{
.appVersion = "3260";
.formatVersion = 3;
DisplayStrings = (
ABCDEFGHIJKLMNOPQRSTUVWXYZ,
"."
);
axes = (
{
name = EVAPORATE;
tag = VAPR;
}
);
date = "2024-10-22 12:30:28 +0000";
familyName = Flow;
fontMaster = (
{
axesValues = (
0
);
id = m002;
metricValues = (
{
over = 16;
pos = 800;
},
{
over = 16;
pos = 700;
},
{
over = 16;
pos = 500;
},
{
over = -16;
},
{
over = -16;
pos = -200;
},
{
}
);
name = Flow;
},
{
axesValues = (
1000
);
id = m01;
metricValues = (
{
over = 16;
pos = 800;
},
{
over = 16;
pos = 700;
},
{
over = 16;
pos = 500;
},
{
over = -16;
},
{
over = -16;
pos = -200;
},
{
}
);
name = Vapor;
},
{
axesValues = (
5000
);
id = m003;
metricValues = (
{
over = 16;
pos = 800;
},
{
over = 16;
pos = 700;
},
{
over = 16;
pos = 500;
},
{
over = -16;
},
{
over = -16;
pos = -200;
},
{
}
);
name = Sen;
}
);
glyphs = (
{
glyphname = A;
lastChange = "2024-11-05 08:28:03 +0000";
layers = (
{
layerId = m01;
shapes = (
{
closed = 1;
nodes = (
(560,0,l),
(690,0,o),
(640,0,o),
(690,0,c),
(600,190,l),
(606,154,o),
(650,40,o),
(650,30,c)
);
},
{
closed = 1;
nodes = (
(590,200,c),
(510,200,o),
(448,200,o),
(230,200,cs),
(180,200,o),
(108,200,o),
(80,200,c),
(70,190,l),
(100,190,o),
(550,190,o),
(590,190,c),
(590,200,o),
(590,190,o)
);
},
{
closed = 1;
nodes = (
(340,700,l),
(310,700,o),
(330,700,o),
(310,700,c),
(300,680,o),
(270,620,o),
(250,580,cs),
(90,240,l),
(60,180,o),
(50,160,o),
(10,80,c),
(-30,0,l),
(0,0,l),
(50,100,l),
(80,160,o),
(60,170,o),
(100,250,c),
(330,690,l),
(560,240,l),
(578,198,o),
(562,234,o),
(590,190,c),
(600,150,o),
(680,40,o),
(620,20,cs),
(560,0,l),
(700,0,o),
(650,92,o),
(600,190,cs)
);
}
);
width = 680;
},
{
associatedMasterId = m01;
layerId = "C5FAC1B4-FC30-4230-AD22-0E3CA9B26410";
name = ExtraBold;
shapes = (
{
closed = 1;
nodes = (
(366,378,l),
(499,0,l),
(717,0,l),
(413,680,l),
(319,680,l),
(15,0,l),
(233,0,l)
);
},
{
closed = 1;
nodes = (
(547,240,l),
(166,240,l),
(166,100,l),
(547,100,l)
);
}
);
width = 732;
},
{
layerId = m002;
shapes = (
{
closed = 1;
nodes = (
(550,0,l),
(685,-4,o),
(715,18,o),
(690,55,cs),
(645,120,l),
(651,83,o),
(595,5,o),
(535,5,c)
);
},
{
closed = 1;
nodes = (
(470,190,c),
(474,176,o),
(447,266,o),
(230,250,cs),
(188,247,o),
(160,240,o),
(110,285,c),
(170,190,ls),
(191,157,o),
(250,146,o),
(285,160,cs),
(335,180,o),
(358,282,o)
);
},
{
closed = 1;
nodes = (
(370,670,l),
(226,672,o),
(70,520,o),
(230,510,c),
(176,690,o),
(376,656,o),
(330,570,cs),
(160,230,l),
(126,146,o),
(62,58,o),
(10,70,c),
(10,0,l),
(220,0,l),
(250,70,l),
(184,28,o),
(72,26,o),
(110,100,cs),
(320,510,l),
(470,160,l),
(484,124,o),
(540,80,o),
(560,130,cs),
(604,238,o),
(642,20,o),
(520,40,c),
(540,0,l),
(626,10,o),
(624,142,o),
(600,190,cs)
);
}
);
width = 691;
},
{
associatedMasterId = m01;
layerId = "516E33CB-9B9E-4C51-91D7-8A0AE647BAFB";
name = DEMOLITION;
shapes = (
{
closed = 1;
nodes = (
(366,378,l),
(499,0,l),
(717,0,l),
(413,680,l),
(319,680,l),
(15,0,l),
(233,0,l)
);
},
{
closed = 1;
nodes = (
(547,240,l),
(166,240,l),
(166,100,l),
(547,100,l)
);
}
);
width = 732;
},
{
associatedMasterId = m002;
layerId = "17F01EB6-B467-4988-BAF2-5B5D5F9E3755";
name = ExtraBold;
shapes = (
{
closed = 1;
nodes = (
(366,378,l),
(499,0,l),
(717,0,l),
(413,680,l),
(319,680,l),
(15,0,l),
(233,0,l)
);
},
{
closed = 1;
nodes = (
(547,240,l),
(166,240,l),
(166,100,l),
(547,100,l)
);
}
);
width = 732;
},
{
associatedMasterId = m002;
layerId = "1DCFC97E-67FA-4E70-B2AB-432D47780184";
name = DEMOLITION;
shapes = (
{
closed = 1;
nodes = (
(350,520,l),
(690,0,l),
(560,0,l),
(370,670,l),
(320,670,l),
(130,0,l),
(0,0,l)
);
},
{
closed = 1;
nodes = (
(560,0,l),
(340,250,l),
(170,250,l),
(150,440,l),
(340,160,l),
(540,160,l)
);
}
);
width = 691;
},
{
associatedMasterId = m002;
layerId = "D3007145-3014-4C6D-B05C-6FAF3D132E8E";
name = DEMOLITION;
shapes = (
{
closed = 1;
nodes = (
(366,378,l),
(499,0,l),
(717,0,l),
(413,680,l),
(319,680,l),
(15,0,l),
(233,0,l)
);
},
{
closed = 1;
nodes = (
(547,240,l),
(166,240,l),
(166,100,l),
(547,100,l)
);
}
);
width = 732;
},
{
layerId = m003;
shapes = (
{
closed = 1;
nodes = (
(560,0,l),
(690,0,o),
(620,0,o),
(670,0,c),
(590,190,l),
(590,150,o),
(530,90,o),
(530,80,c)
);
},
{
closed = 1;
nodes = (
(520,250,c),
(440,250,o),
(448,250,o),
(230,250,cs),
(180,250,o),
(188,250,o),
(160,250,c),
(150,190,l),
(180,190,o),
(490,190,o),
(530,190,c),
(530,220,o),
(530,200,o)
);
},
{
closed = 1;
nodes = (
(340,700,l),
(310,700,o),
(330,700,o),
(310,700,c),
(300,680,o),
(270,620,o),
(250,580,cs),
(90,240,l),
(60,180,o),
(50,160,o),
(10,80,c),
(-30,0,l),
(70,0,l),
(110,90,l),
(140,150,o),
(120,110,o),
(160,190,c),
(320,530,l),
(480,210,l),
(510,140,o),
(500,160,o),
(520,110,c),
(532,70,o),
(528,98,o),
(550,40,c),
(560,0,l),
(646,10,o),
(594,182,o),
(590,190,cs)
);
}
);
width = 660;
}
);
note = A;
unicode = (65,97);
},
{
glyphname = B;
lastChange = "2024-11-05 08:28:03 +0000";
layers = (
{
layerId = m01;
shapes = (
{
closed = 1;
nodes = (
(554,44,o),
(618,133,o),
(618,238,o),
(579,304,o),
(522,342,o),
(490,350,q),
(534,368,o),
(590,450,o),
(590,554,o),
(530,640,o),
(412,688,o),
(312,685,qs),
(284,684,o),
(246,681,qs),
(170,674,o),
(110,661,q),
(110,632,o),
(110,604,o),
(110,575,c),
(110,566,o),
(110,558,o),
(110,550,c),
(110,542,o),
(110,534,o),
(110,525,c),
(110,153,l),
(110,138,o),
(110,122,o),
(110,106,c),
(110,88,o),
(110,68,o),
(110,50,c),
(110,15,l),
(142,8,o),
(224,-3,o),
(313,-10,o),
(436,-10,o)
);
},
{
closed = 1;
nodes = (
(281,77,o),
(170,20,o),
(160,30,qs),
(100,90,o),
(106,582,o),
(140,640,cs),
(166,684,o),
(298,601,o),
(450,690,o),
(570,570,o),
(520,510,o),
(524,356,o),
(460,370,qs),
(286,406,o),
(200,320,qs),
(180,300,l),
(280,390,o),
(590,320,o),
(620,110,o),
(480,0,o),
(330,-10,o)
);
}
);
width = 663;
},
{
associatedMasterId = m01;
layerId = "C5FAC1B4-FC30-4230-AD22-0E3CA9B26410";
name = ExtraBold;
shapes = (
{
closed = 1;
nodes = (
(590,44,o),
(654,141,o),
(654,197,qs),
(654,242,o),
(621,298,o),
(567,333,o),
(536,344,q),
(575,366,o),
(624,440,o),
(624,491,qs),
(624,549,o),
(559,637,o),
(437,686,o),
(349,686,qs),
(277,686,o),
(141,672,o),
(80,660,q),
(80,15,l),
(112,8,o),
(215,-6,o),
(329,-15,o),
(375,-15,qs),
(466,-15,o)
);
},
{
closed = 1;
nodes = (
(322,142,o),
(281,148,o),
(267,152,q),
(267,519,l),
(285,523,o),
(342,527,o),
(366,527,qs),
(391,527,o),
(423,507,o),
(440,475,o),
(440,457,qs),
(440,426,o),
(404,394,o),
(371,394,qs),
(237,394,l),
(237,269,l),
(365,269,ls),
(406,269,o),
(454,243,o),
(454,213,qs),
(454,182,o),
(413,140,o),
(372,140,qs),
(362,140,o)
);
}
);
width = 694;
},
{
layerId = m002;
shapes = (
{
closed = 1;
nodes = (
(560,30,o),
(610,100,o),
(620,210,o),
(590,300,o),
(470,370,o),
(420,350,q),
(470,370,o),
(550,470,o),
(520,600,o),
(430,670,o),
(240,548,o),
(240,650,qs),
(240,672,o),
(200,670,q),
(100,660,o),
(70,640,qs),
(30,614,o),
(10,520,o),
(110,550,c),
(70,580,o),
(30,638,o),
(110,650,cs),
(230,668,o),
(86,510,o),
(100,290,cs),
(110,140,ls),
(114,80,o),
(144,62,o),
(190,150,c),
(186,90,o),
(130,60,o),
(110,90,c),
(110,20,l),
(170,60,o),
(260,90,o),
(410,0,o),
(500,0,o)
);
},
{
closed = 1;
nodes = (
(200,90,o),
(80,0,o),
(220,130,qs),
(376,274,o),
(68,558,o),
(200,600,c),
(232,608,o),
(290,540,o),
(440,600,o),
(350,620,o),
(430,630,o),
(494,550,o),
(470,440,qs),
(450,350,o),
(250,320,q),
(230,300,l),
(370,340,o),
(470,260,o),
(500,180,o),
(440,60,o),
(300,90,o)
);
}
);
width = 663;
},
{
associatedMasterId = m01;
layerId = "E5D51664-4234-4062-B91E-77EF8ECAF748";
name = DEMOLITION;
shapes = (
{
closed = 1;
nodes = (
(590,44,o),
(654,141,o),
(654,197,qs),
(654,242,o),
(621,298,o),
(567,333,o),
(536,344,q),
(575,366,o),
(624,440,o),
(624,491,qs),
(624,549,o),
(559,637,o),
(437,686,o),
(349,686,qs),
(277,686,o),
(141,672,o),
(80,660,q),
(80,15,l),
(112,8,o),
(215,-6,o),
(329,-15,o),
(375,-15,qs),
(466,-15,o)
);
},
{
closed = 1;
nodes = (
(322,142,o),
(281,148,o),
(267,152,q),
(267,519,l),
(285,523,o),
(342,527,o),
(366,527,qs),
(391,527,o),
(423,507,o),
(440,475,o),
(440,457,qs),
(440,426,o),
(404,394,o),
(371,394,qs),
(237,394,l),
(237,269,l),
(365,269,ls),
(406,269,o),
(454,243,o),
(454,213,qs),
(454,182,o),
(413,140,o),
(372,140,qs),
(362,140,o)
);
}
);
width = 694;
},
{
associatedMasterId = m002;
layerId = "A5DB2888-815B-4FA1-BAB8-FFF0F524015A";
name = ExtraBold;
shapes = (
{
closed = 1;
nodes = (
(590,44,o),
(654,141,o),
(654,197,qs),
(654,242,o),
(621,298,o),
(567,333,o),
(536,344,q),
(575,366,o),
(624,440,o),
(624,491,qs),
(624,549,o),
(559,637,o),
(437,686,o),
(349,686,qs),
(277,686,o),
(141,672,o),
(80,660,q),
(80,15,l),
(112,8,o),
(215,-6,o),
(329,-15,o),
(375,-15,qs),
(466,-15,o)
);
},
{
closed = 1;
nodes = (
(322,142,o),
(281,148,o),
(267,152,q),
(267,519,l),
(285,523,o),
(342,527,o),
(366,527,qs),
(391,527,o),
(423,507,o),
(440,475,o),
(440,457,qs),
(440,426,o),
(404,394,o),
(371,394,qs),
(237,394,l),
(237,269,l),
(365,269,ls),
(406,269,o),
(454,243,o),
(454,213,qs),
(454,182,o),
(413,140,o),
(372,140,qs),
(362,140,o)
);
}
);
width = 694;
},
{
associatedMasterId = m002;
layerId = "48F97D1A-FF13-4672-A632-BDD87695829A";
name = DEMOLITION;
shapes = (
{
closed = 1;
nodes = (
(554,43,o),
(618,133,o),
(618,238,o),
(579,304,o),
(522,342,o),
(490,350,q),
(534,368,o),
(590,450,o),
(590,554,o),
(530,638,o),
(420,686,o),
(286,686,o),
(162,673,o),
(110,661,q),
(190,200,l),
(190,200,o),
(224,-3,o),
(313,-10,o),
(435,-10,o)
);
},
{
closed = 1;
nodes = (
(281,77,o),
(74,76,o),
(50,80,q),
(200,589,l),
(231,595,o),
(298,601,o),
(570,700,o),
(610,680,o),
(630,630,o),
(497,448,o),
(425,379,o),
(184,379,q),
(40,500,l),
(208,500,o),
(526,306,o),
(730,120,o),
(427,75,o),
(334,75,o)
);
}
);
width = 663;
},
{
associatedMasterId = m002;
layerId = "F1504B66-7782-42CD-90FC-12E2EAD32BAC";
name = DEMOLITION;
shapes = (
{
closed = 1;
nodes = (
(590,44,o),
(654,141,o),
(654,197,qs),
(654,242,o),
(621,298,o),
(567,333,o),
(536,344,q),
(575,366,o),
(624,440,o),
(624,491,qs),
(624,549,o),
(559,637,o),
(437,686,o),
(349,686,qs),
(277,686,o),
(141,672,o),
(80,660,q),
(80,15,l),
(112,8,o),
(215,-6,o),
(329,-15,o),
(375,-15,qs),
(466,-15,o)
);
},
{
closed = 1;
nodes = (
(322,142,o),
(281,148,o),
(267,152,q),
(267,519,l),
(285,523,o),
(342,527,o),
(366,527,qs),
(391,527,o),
(423,507,o),
(440,475,o),
(440,457,qs),
(440,426,o),
(404,394,o),
(371,394,qs),
(237,394,l),
(237,269,l),
(365,269,ls),
(406,269,o),
(454,243,o),
(454,213,qs),
(454,182,o),
(413,140,o),
(372,140,qs),
(362,140,o)
);
}
);
width = 694;
},
{
layerId = m003;
shapes = (
{
closed = 1;
nodes = (
(554,43,o),
(618,133,o),
(618,238,o),
(579,304,o),
(522,342,o),
(490,350,q),
(534,368,o),
(590,450,o),
(590,554,o),
(530,640,o),
(412,688,o),
(312,685,qs),
(284,684,o),
(246,681,qs),
(170,674,o),
(110,661,q),
(110,632,o),
(110,604,o),
(110,575,c),
(110,566,o),
(110,558,o),
(110,550,c),
(110,542,o),
(110,534,o),
(110,525,c),
(110,153,l),
(110,138,o),
(110,122,o),
(110,106,c),
(110,88,o),
(110,68,o),
(110,50,c),
(110,15,l),
(142,8,o),
(224,-3,o),
(313,-10,o),
(435,-10,o)
);
},
{
closed = 1;
nodes = (
(281,77,o),
(224,83,o),
(200,87,q),
(200,254,o),
(200,422,o),
(200,589,c),
(231,595,o),
(298,601,o),
(382,602,o),
(454,578,o),
(498,530,o),
(498,452,o),
(468,419,qs),
(430,380,o),
(184,379,q),
(180,300,l),
(348,300,o),
(526,306,o),
(526,137,o),
(427,75,o),
(334,75,o)
);
}
);
width = 663;
},
{
associatedMasterId = m003;
layerId = "A6FE7EAB-8C18-4585-BC03-6EC86FCE9BDA";
name = ExtraBold;
shapes = (
{
closed = 1;
nodes = (
(590,44,o),
(654,141,o),
(654,197,qs),
(654,242,o),
(621,298,o),
(567,333,o),
(536,344,q),
(575,366,o),
(624,440,o),
(624,491,qs),
(624,549,o),
(559,637,o),
(437,686,o),
(349,686,qs),
(277,686,o),
(141,672,o),
(80,660,q),
(80,15,l),
(112,8,o),
(215,-6,o),
(329,-15,o),
(375,-15,qs),
(466,-15,o)
);
},
{
closed = 1;
nodes = (
(322,142,o),
(281,148,o),
(267,152,q),
(267,519,l),
(285,523,o),
(342,527,o),
(366,527,qs),
(391,527,o),
(423,507,o),
(440,475,o),
(440,457,qs),
(440,426,o),
(404,394,o),
(371,394,qs),
(237,394,l),
(237,269,l),
(365,269,ls),
(406,269,o),
(454,243,o),
(454,213,qs),
(454,182,o),
(413,140,o),
(372,140,qs),
(362,140,o)
);
}
);
width = 694;
},
{
associatedMasterId = m003;
layerId = "2B3CD504-9FBF-4285-9D1C-4B17C5643215";
name = DEMOLITION;
shapes = (
{
closed = 1;
nodes = (
(590,44,o),
(654,141,o),
(654,197,qs),
(654,242,o),
(621,298,o),
(567,333,o),
(536,344,q),
(575,366,o),
(624,440,o),
(624,491,qs),
(624,549,o),
(559,637,o),
(437,686,o),
(349,686,qs),
(277,686,o),
(141,672,o),
(80,660,q),
(80,15,l),
(112,8,o),
(215,-6,o),
(329,-15,o),
(375,-15,qs),
(466,-15,o)
);
},
{
closed = 1;
nodes = (
(322,142,o),
(281,148,o),
(267,152,q),
(267,519,l),
(285,523,o),
(342,527,o),
(366,527,qs),
(391,527,o),
(423,507,o),
(440,475,o),
(440,457,qs),
(440,426,o),
(404,394,o),
(371,394,qs),
(237,394,l),
(237,269,l),
(365,269,ls),
(406,269,o),
(454,243,o),
(454,213,qs),
(454,182,o),
(413,140,o),
(372,140,qs),
(362,140,o)
);
}
);
width = 694;
}
);
note = B;
unicode = (66,98);
},
{
glyphname = C;
lastChange = "2024-11-05 08:28:03 +0000";
layers = (
{
layerId = m01;
shapes = (
{
closed = 1;
nodes = (
(586,30,o),
(620,60,q),
(620,80,l),
(620,90,o),
(620,90,o),
(620,100,c),
(620,110,o),
(620,120,o),
(620,130,c),
(620,140,o),
(620,140,o),
(620,150,c),
(610,80,qs),
(606,50,o),
(470,0,o),
(400,0,qs),
(280,0,o),
(210,142,o),
(62,260,o),
(60,340,qs),
(62,410,o),
(160,600,o),
(328,678,o),
(400,680,qs),
(454,678,o),
(570,620,o),
(590,550,o),
(600,510,q),
(600,544,o),
(600,580,o),
(600,610,c),
(570,646,o),
(476,686,o),
(400,690,qs),
(328,686,o),
(200,630,o),
(104,534,o),
(50,408,o),
(50,340,qs),
(50,264,o),
(104,136,o),
(200,40,o),
(316,-8,o),
(390,-10,qs),
(464,-8,o)
);
}
);
width = 674;
},
{
associatedMasterId = m01;
layerId = "C5FAC1B4-FC30-4230-AD22-0E3CA9B26410";
name = ExtraBold;
shapes = (
{
closed = 1;
nodes = (
(538,15,o),
(572,44,q),
(572,225,l),
(532,193,o),
(460,160,o),
(402,160,qs),
(357,160,o),
(280,206,o),
(232,285,o),
(232,335,qs),
(232,385,o),
(280,464,o),
(357,510,o),
(402,510,qs),
(441,510,o),
(497,495,o),
(546,467,o),
(572,445,q),
(572,626,l),
(538,655,o),
(448,685,o),
(395,685,qs),
(327,685,o),
(200,638,o),
(99,548,o),
(40,418,o),
(40,335,qs),
(40,252,o),
(99,122,o),
(200,32,o),
(327,-15,o),
(395,-15,qs),
(448,-15,o)
);
}
);
width = 612;
},
{
layerId = m002;
shapes = (
{
closed = 1;
nodes = (
(564,34,o),
(580,50,qs),
(590,60,ls),
(620,90,o),
(620,120,o),
(620,150,c),
(620,110,o),
(620,160,o),
(620,170,cs),
(620,180,o),
(620,200,o),
(620,200,cs),
(620,240,qs),
(620,254,o),
(460,4,o),
(380,0,qs),
(308,4,o),
(210,142,o),
(228,312,o),
(180,340,qs),
(80,400,o),
(200,640,o),
(450,690,o),
(420,640,qs),
(374,564,o),
(570,610,o),
(630,500,o),
(590,440,q),
(640,490,o),
(644,562,o),
(600,610,cs),
(570,646,o),
(476,690,o),
(400,690,qs),
(330,690,o),
(200,630,o),
(104,534,o),
(50,408,o),
(50,340,qs),
(50,264,o),
(104,136,o),
(200,40,o),
(316,-8,o),
(390,-10,qs),
(464,-8,o)
);
}
);
width = 674;
},
{
associatedMasterId = m01;
layerId = "97A217F6-7C67-4854-B2C5-F38D04C02976";
name = DEMOLITION;
shapes = (
{
closed = 1;
nodes = (
(538,15,o),
(572,44,q),
(572,225,l),
(532,193,o),
(460,160,o),
(402,160,qs),
(357,160,o),
(280,206,o),
(232,285,o),
(232,335,qs),
(232,385,o),
(280,464,o),
(357,510,o),
(402,510,qs),
(441,510,o),
(497,495,o),
(546,467,o),
(572,445,q),
(572,626,l),
(538,655,o),
(448,685,o),
(395,685,qs),
(327,685,o),
(200,638,o),
(99,548,o),
(40,418,o),
(40,335,qs),
(40,252,o),
(99,122,o),
(200,32,o),
(327,-15,o),
(395,-15,qs),
(448,-15,o)
);
}
);
width = 612;
},
{
associatedMasterId = m002;
layerId = "F7AD7AFD-7A60-449D-AC1D-B00B3FCB0666";
name = ExtraBold;
shapes = (
{
closed = 1;
nodes = (
(538,15,o),
(572,44,q),
(572,225,l),
(532,193,o),
(460,160,o),
(402,160,qs),
(357,160,o),
(280,206,o),
(232,285,o),
(232,335,qs),
(232,385,o),
(280,464,o),
(357,510,o),
(402,510,qs),
(441,510,o),
(497,495,o),
(546,467,o),
(572,445,q),
(572,626,l),
(538,655,o),
(448,685,o),
(395,685,qs),
(327,685,o),
(200,638,o),
(99,548,o),
(40,418,o),
(40,335,qs),
(40,252,o),
(99,122,o),
(200,32,o),
(327,-15,o),
(395,-15,qs),
(448,-15,o)
);
}
);
width = 612;
},
{
associatedMasterId = m002;
layerId = "2AE80F4B-8830-496C-B851-A8772F55B85E";
name = DEMOLITION;
shapes = (
{
closed = 1;
nodes = (
(589,30,o),
(624,61,q),
(620,-130,l),
(586,-156,o),
(480,73,o),
(403,73,qs),
(328,73,o),
(210,142,o),
(-10,266,o),
(-10,340,qs),
(-10,416,o),
(210,529,o),
(326,750,o),
(400,750,qs),
(452,750,o),
(527,568,o),
(578,836,o),
(600,820,q),
(604,613,l),
(569,645,o),
(476,685,o),
(403,685,qs),
(327,685,o),
(199,630,o),
(103,534,o),
(50,407,o),
(50,335,qs),
(50,263,o),
(103,136,o),
(199,40,o),
(327,-15,o),
(403,-15,qs),
(476,-15,o)
);
}
);
width = 674;
},
{
associatedMasterId = m002;
layerId = "949583B4-095D-4314-87FD-00D0E5FCBEDE";
name = DEMOLITION;
shapes = (
{
closed = 1;
nodes = (
(538,15,o),
(572,44,q),
(572,225,l),
(532,193,o),
(460,160,o),
(402,160,qs),
(357,160,o),
(280,206,o),
(232,285,o),
(232,335,qs),
(232,385,o),
(280,464,o),
(357,510,o),
(402,510,qs),
(441,510,o),
(497,495,o),
(546,467,o),
(572,445,q),
(572,626,l),
(538,655,o),
(448,685,o),
(395,685,qs),
(327,685,o),
(200,638,o),
(99,548,o),
(40,418,o),
(40,335,qs),
(40,252,o),
(99,122,o),
(200,32,o),
(327,-15,o),
(395,-15,qs),
(448,-15,o)
);
}
);
width = 612;
},
{
layerId = m003;
shapes = (
{
closed = 1;
nodes = (
(586,30,o),
(620,60,q),
(620,80,l),
(620,90,o),
(620,90,o),
(620,100,c),
(620,110,o),
(620,120,o),
(620,130,c),
(620,140,o),
(620,140,o),
(624,151,c),
(610,140,qs),
(578,114,o),
(480,73,o),
(403,73,qs),
(328,73,o),
(210,142,o),
(142,260,o),
(142,335,qs),
(142,410,o),
(210,529,o),
(328,598,o),
(403,597,qs),
(454,598,o),
(528,568,o),
(578,526,o),
(600,510,q),
(600,544,o),
(600,580,o),
(600,610,c),
(570,646,o),
(476,686,o),
(403,685,qs),
(327,685,o),
(199,630,o),
(103,534,o),
(50,407,o),
(50,335,qs),
(50,263,o),
(103,136,o),
(199,40,o),
(316,-8,o),
(390,-10,qs),
(464,-8,o)
);
}
);
width = 674;
},
{
associatedMasterId = m003;
layerId = "6D1DEBFC-F9BA-4842-9218-AE3B37C65605";
name = ExtraBold;
shapes = (
{
closed = 1;
nodes = (
(538,15,o),
(572,44,q),
(572,225,l),
(532,193,o),
(460,160,o),
(402,160,qs),
(357,160,o),
(280,206,o),
(232,285,o),
(232,335,qs),
(232,385,o),
(280,464,o),
(357,510,o),
(402,510,qs),
(441,510,o),
(497,495,o),
(546,467,o),
(572,445,q),
(572,626,l),
(538,655,o),
(448,685,o),
(395,685,qs),
(327,685,o),
(200,638,o),
(99,548,o),
(40,418,o),
(40,335,qs),
(40,252,o),
(99,122,o),
(200,32,o),
(327,-15,o),
(395,-15,qs),
(448,-15,o)
);
}
);
width = 612;
},
{
associatedMasterId = m003;
layerId = "18E8346E-F0EB-4A61-B193-53C8DDACA399";
name = DEMOLITION;
shapes = (
{
closed = 1;
nodes = (
(538,15,o),
(572,44,q),
(572,225,l),
(532,193,o),
(460,160,o),
(402,160,qs),
(357,160,o),
(280,206,o),
(232,285,o),
(232,335,qs),
(232,385,o),
(280,464,o),
(357,510,o),
(402,510,qs),
(441,510,o),
(497,495,o),
(546,467,o),
(572,445,q),
(572,626,l),
(538,655,o),
(448,685,o),
(395,685,qs),
(327,685,o),
(200,638,o),
(99,548,o),
(40,418,o),
(40,335,qs),
(40,252,o),
(99,122,o),
(200,32,o),
(327,-15,o),
(395,-15,qs),
(448,-15,o)
);
}
);
width = 612;
}
);
note = C;
unicode = (67,99);
},
{
glyphname = D;
lastChange = "2024-11-05 08:28:03 +0000";
layers = (
{
layerId = m01;
shapes = (
{
closed = 1;
nodes = (
(572,44,o),
(662,137,o),
(709,264,o),
(709,338,qs),
(709,437,o),
(626,594,o),
(469,686,o),
(356,686,qs),
(287,686,o),
(171,672,o),
(110,661,q),
(110,587,l),
(110,580,o),
(110,574,o),
(110,566,c),
(110,560,o),
(110,556,o),
(110,550,c),
(110,150,l),
(110,130,o),
(110,110,o),
(110,90,c),
(110,82,o),
(110,72,o),
(110,64,c),
(110,48,o),
(110,88,o),
(110,70,cs),
(110,30,o),
(228,-4,o),
(310,-10,o),
(356,-10,qs),
(440,-10,o)
);
},
{
closed = 1;
nodes = (
(120,26,o),
(120,80,qs),
(120,160,o),
(192,160,o),
(170,250,cs),
(130,410,o),
(84,604,o),
(150,660,cs),
(180,686,o),
(312,598,o),
(340,620,qs),
(414,680,o),
(570,640,o),
(682,450,o),
(700,340,qs),
(710,280,o),
(650,120,o),
(440,-10,o),
(340,0,qs),
(300,4,o)
);
}
);
width = 759;
},
{
associatedMasterId = m01;
layerId = "C5FAC1B4-FC30-4230-AD22-0E3CA9B26410";
name = ExtraBold;
shapes = (
{
closed = 1;
nodes = (
(572,41,o),
(662,141,o),
(711,272,o),
(711,346,qs),
(711,454,o),
(615,606,o),
(453,686,o),
(353,686,qs),
(287,686,o),
(144,669,o),
(80,658,q),
(80,13,l),
(121,5,o),
(219,-8,o),
(322,-15,o),
(368,-15,qs),
(446,-15,o)
);
},
{
closed = 1;
nodes = (
(290,165,o),
(267,172,q),
(267,499,l),
(287,504,o),
(336,511,o),
(359,511,qs),
(410,511,o),
(481,467,o),
(519,388,o),
(519,336,qs),
(519,287,o),
(481,207,o),
(410,160,o),
(359,160,qs),
(338,160,o)
);
}
);
width = 751;
},
{
layerId = m002;
shapes = (
{
closed = 1;
nodes = (
(572,43,o),
(662,137,o),
(709,264,o),
(709,338,qs),
(709,437,o),
(626,594,o),
(469,686,o),
(356,686,qs),
(287,686,o),
(90,686,o),
(90,610,qs),
(90,500,l),
(120,576,o),
(186,662,o),
(280,660,c),
(210,650,o),
(110,552,o),
(110,440,cs),
(110,80,ls),
(110,22,o),
(172,10,o),
(240,70,c),
(196,18,o),
(144,10,o),
(100,50,c),
(98,18,o),
(92,2,o),
(70,0,c),
(110,0,o),
(228,-4,o),
(310,-10,o),
(356,-10,qs),
(440,-10,o)
);
},
{
closed = 1;
nodes = (
(190,180,o),
(190,70,q),
(150,200,o),
(330,150,o),
(290,240,cs),
(248,334,o),
(120,440,o),
(190,590,cs),
(206,624,o),
(320,680,o),
(360,600,qs),
(388,530,o),
(554,532,o),
(716,374,o),
(680,250,qs),
(620,40,o),
(150,450,o),
(508,26,o),
(430,30,qs),
(390,26,o)
);
}
);
width = 759;
},
{
associatedMasterId = m01;
layerId = "22EC8C43-861A-4093-A1FF-5E86DA9F6486";
name = DEMOLITION;
shapes = (
{
closed = 1;
nodes = (
(572,41,o),
(662,141,o),
(711,272,o),
(711,346,qs),
(711,454,o),
(615,606,o),
(453,686,o),
(353,686,qs),
(287,686,o),
(144,669,o),
(80,658,q),
(80,13,l),
(121,5,o),
(219,-8,o),
(322,-15,o),
(368,-15,qs),
(446,-15,o)
);
},
{
closed = 1;
nodes = (
(290,165,o),
(267,172,q),
(267,499,l),
(287,504,o),
(336,511,o),
(359,511,qs),
(410,511,o),
(481,467,o),
(519,388,o),
(519,336,qs),
(519,287,o),
(481,207,o),
(410,160,o),
(359,160,qs),
(338,160,o)
);
}
);
width = 751;
},
{
associatedMasterId = m002;
layerId = "6A16F7B7-293C-4D57-A96A-8EB50E825652";
name = ExtraBold;
shapes = (
{
closed = 1;
nodes = (
(572,41,o),
(662,141,o),
(711,272,o),
(711,346,qs),
(711,454,o),
(615,606,o),
(453,686,o),
(353,686,qs),
(287,686,o),
(144,669,o),
(80,658,q),
(80,13,l),
(121,5,o),
(219,-8,o),
(322,-15,o),
(368,-15,qs),
(446,-15,o)
);
},
{
closed = 1;
nodes = (
(290,165,o),
(267,172,q),
(267,499,l),
(287,504,o),
(336,511,o),
(359,511,qs),
(410,511,o),
(481,467,o),
(519,388,o),
(519,336,qs),
(519,287,o),
(481,207,o),
(410,160,o),
(359,160,qs),
(338,160,o)
);
}
);
width = 751;
},
{
associatedMasterId = m002;
layerId = "F6C3DEEF-29E1-44B6-81B6-A03A39EBEDF3";
name = DEMOLITION;
shapes = (
{
closed = 1;
nodes = (
(572,43,o),
(662,137,o),
(630,256,o),
(630,330,qs),
(630,430,o),
(626,594,o),
(469,686,o),
(356,686,qs),
(287,686,o),
(171,672,o),
(110,661,q),
(230,20,l),
(272,14,o),
(228,-4,o),
(554,280,o),
(400,40,qs),
(356,-30,o)
);
},
{
closed = 1;
nodes = (
(138,6,o),
(100,10,q),
(200,591,l),
(238,596,o),
(504,740,o),
(540,740,qs),
(622,740,o),
(554,532,o),
(710,416,o),
(710,340,qs),
(710,266,o),
(554,144,o),
(437,75,o),
(356,75,qs),
(320,75,o)
);
}
);
width = 759;
},
{
associatedMasterId = m002;
layerId = "92F7BD08-1336-47BE-B4A4-65622FF97D5F";
name = DEMOLITION;
shapes = (
{
closed = 1;
nodes = (
(572,41,o),
(662,141,o),
(711,272,o),
(711,346,qs),
(711,454,o),
(615,606,o),
(453,686,o),
(353,686,qs),
(287,686,o),
(144,669,o),
(80,658,q),
(80,13,l),
(121,5,o),
(219,-8,o),
(322,-15,o),
(368,-15,qs),
(446,-15,o)
);
},
{
closed = 1;
nodes = (
(290,165,o),
(267,172,q),
(267,499,l),
(287,504,o),
(336,511,o),
(359,511,qs),
(410,511,o),
(481,467,o),
(519,388,o),
(519,336,qs),
(519,287,o),
(481,207,o),
(410,160,o),
(359,160,qs),
(338,160,o)
);
}
);
width = 751;
},
{
layerId = m003;
shapes = (
{
closed = 1;
nodes = (
(572,43,o),
(662,137,o),
(709,264,o),
(709,338,qs),
(709,437,o),
(626,594,o),
(469,686,o),
(356,686,qs),
(287,686,o),
(171,672,o),
(110,661,q),
(110,587,l),
(110,580,o),
(110,574,o),
(110,566,c),
(110,560,o),
(110,556,o),
(110,550,c),
(110,150,l),
(110,130,o),
(110,110,o),
(110,90,c),
(110,82,o),
(110,72,o),
(110,64,c),
(110,48,o),
(110,32,o),
(110,15,c),
(151,8,o),
(228,-4,o),
(310,-10,o),
(356,-10,qs),
(440,-10,o)
);
},
{
closed = 1;
nodes = (
(238,81,o),
(200,85,q),
(200,98,o),
(200,112,o),
(200,125,c),
(200,280,o),
(200,436,o),
(200,591,c),
(238,596,o),
(320,601,o),
(356,601,qs),
(437,601,o),
(554,532,o),
(617,413,o),
(617,338,qs),
(617,263,o),
(554,144,o),
(442,80,o),
(360,80,qs),
(324,80,o)
);
}
);
width = 759;
},
{
associatedMasterId = m003;
layerId = "BBBFD516-16AC-453D-8F85-D793562C0F77";
name = ExtraBold;
shapes = (
{
closed = 1;
nodes = (
(572,41,o),
(662,141,o),
(711,272,o),
(711,346,qs),
(711,454,o),
(615,606,o),
(453,686,o),
(353,686,qs),
(287,686,o),
(144,669,o),
(80,658,q),
(80,13,l),
(121,5,o),
(219,-8,o),
(322,-15,o),
(368,-15,qs),
(446,-15,o)
);
},
{
closed = 1;
nodes = (
(290,165,o),
(267,172,q),
(267,499,l),
(287,504,o),
(336,511,o),
(359,511,qs),
(410,511,o),
(481,467,o),
(519,388,o),
(519,336,qs),
(519,287,o),
(481,207,o),
(410,160,o),
(359,160,qs),
(338,160,o)
);
}
);
width = 751;
},
{
associatedMasterId = m003;
layerId = "16937FA2-D2E8-4179-9A22-BECFB430E4F2";
name = DEMOLITION;
shapes = (
{
closed = 1;
nodes = (
(572,41,o),
(662,141,o),
(711,272,o),
(711,346,qs),
(711,454,o),
(615,606,o),
(453,686,o),
(353,686,qs),
(287,686,o),
(144,669,o),
(80,658,q),
(80,13,l),
(121,5,o),
(219,-8,o),
(322,-15,o),
(368,-15,qs),
(446,-15,o)
);
},
{
closed = 1;
nodes = (
(290,165,o),
(267,172,q),
(267,499,l),
(287,504,o),
(336,511,o),
(359,511,qs),
(410,511,o),
(481,467,o),
(519,388,o),
(519,336,qs),
(519,287,o),
(481,207,o),
(410,160,o),
(359,160,qs),
(338,160,o)
);
}
);
width = 751;
}
);
note = D;
unicode = (68,100);
},
{
glyphname = E;
lastChange = "2024-11-05 08:28:03 +0000";
layers = (
{
layerId = m01;
shapes = (
{
closed = 1;
nodes = (
(570,-50,o),
(570,-20,o),
(570,10,c),
(560,10,o),
(550,10,o),
(540,10,c),
(534,10,o),
(526,10,o),
(520,10,c),
(510,10,o),
(500,10,o),
(490,10,c),
(394,0,o),
(120,-16,o),
(120,80,cs),
(120,212,o),
(120,378,o),
(120,510,cs),
(120,570,o),
(100,640,o),
(180,660,cs),
(196,664,o),
(310,670,o),
(490,660,cs),
(500,660,o),
(510,660,o),
(520,660,cs),
(536,660,o),
(554,660,o),
(570,660,c),
(570,670,l),
(416,670,o),
(264,670,o),
(110,670,c),
(110,656,o),
(110,642,o),
(110,630,c),
(110,618,o),
(110,610,o),
(110,600,c),
(110,590,o),
(110,578,o),
(110,570,c),
(110,420,o),
(110,276,o),
(110,130,c),
(110,106,o),
(110,112,o),
(110,90,c),
(110,74,o),
(110,60,o),
(110,40,c),
(110,30,o),
(110,14,o),
(110,0,c),
(264,0,o),
(416,0,o),
(570,0,c)
);
},
{
closed = 1;
nodes = (
(480,330,o),
(480,282,o),
(480,310,c),
(110,310,l),
(112,282,o),
(112,330,o),
(110,300,c),
(234,310,o),
(356,310,o),
(480,300,c)
);
}
);
width = 639;
},
{
associatedMasterId = m01;
layerId = "C5FAC1B4-FC30-4230-AD22-0E3CA9B26410";
name = ExtraBold;
shapes = (
{
closed = 1;
nodes = (
(574,160,l),
(267,160,l),
(267,515,l),
(574,515,l),
(574,670,l),
(80,670,l),
(80,0,l),
(574,0,l)
);
},
{
closed = 1;
nodes = (
(540,414,l),
(185,414,l),
(185,264,l),
(540,264,l)
);
}
);
width = 644;
},
{
layerId = m002;
shapes = (
{
closed = 1;
nodes = (
);
},
{
closed = 1;
nodes = (
(570,30,o),
(570,110,o),
(570,140,c),
(570,132,o),
(566,106,o),
(550,90,cs),
(540,80,o),
(530,70,o),
(510,60,cs),
(450,30,o),
(410,52,o),
(380,70,cs),
(330,100,o),
(300,110,o),
(200,90,c),
(286,356,o),
(140,382,o),
(140,530,cs),
(140,562,o),
(146,614,o),
(180,640,cs),
(220,670,o),
(290,670,o),
(320,640,cs),
(390,570,o),
(400,620,o),
(480,630,cs),
(530,636,o),
(550,590,o),
(570,530,c),
(570,670,l),
(416,670,o),
(264,670,o),
(110,670,c),
(50,670,o),
(40,630,o),
(70,510,c),
(90,630,o),
(150,660,o),
(210,660,c),
(150,640,o),
(110,590,o),
(110,490,c),
(110,340,o),
(110,256,o),
(110,110,c),
(110,40,o),
(170,80,o),
(180,110,c),
(170,80,o),
(110,10,o),
(90,100,c),
(90,90,o),
(90,14,o),
(90,0,c),
(278,204,o),
(320,-30,o),
(570,0,c)
);
},
{
closed = 1;
nodes = (
(480,274,o),
(442,384,o),
(360,360,cs),
(320,350,ls),
(202,324,o),
(190,224,o),
(200,230,c),
(280,484,o),
(460,118,o),
(570,340,c)
);
}
);
width = 639;
},
{
associatedMasterId = m01;
layerId = "5376E7BC-C7D4-41E2-9A07-056DEA3955AF";
name = DEMOLITION;
shapes = (
{
closed = 1;
nodes = (
(574,160,l),
(267,160,l),
(267,515,l),
(574,515,l),
(574,670,l),
(80,670,l),
(80,0,l),
(574,0,l)
);
},
{
closed = 1;
nodes = (
(540,414,l),
(185,414,l),
(185,264,l),
(540,264,l)
);
}
);
width = 644;
},
{
associatedMasterId = m002;
layerId = "EBE9C354-B649-4547-91A0-7E4637186A84";
name = ExtraBold;
shapes = (
{
closed = 1;
nodes = (
(574,160,l),
(267,160,l),
(267,515,l),
(574,515,l),
(574,670,l),
(80,670,l),
(80,0,l),
(574,0,l)
);
},
{
closed = 1;
nodes = (
(540,414,l),
(185,414,l),
(185,264,l),
(540,264,l)
);
}
);
width = 644;
},
{
associatedMasterId = m002;
layerId = "1A1BC1F1-934E-40BE-A8C6-C54ED4333CCB";
name = DEMOLITION;
shapes = (
{
closed = 1;
nodes = (
(570,80,l),
(140,50,l),
(70,740,l),
(580,780,l),
(520,830,l),
(110,670,l),
(110,0,l),
(570,130,l)
);
},
{
closed = 1;
nodes = (
(530,210,l),
(-10,470,l),
(167,301,l),
(526,301,l)
);
}
);
width = 639;
},
{
associatedMasterId = m002;
layerId = "48B7E652-51BD-4206-9C11-7DCAE7DF468E";
name = DEMOLITION;
shapes = (
{
closed = 1;
nodes = (
(574,160,l),
(267,160,l),
(267,515,l),
(574,515,l),
(574,670,l),
(80,670,l),
(80,0,l),
(574,0,l)
);
},
{
closed = 1;
nodes = (
(540,414,l),
(185,414,l),
(185,264,l),
(540,264,l)
);
}
);
width = 644;
},
{
layerId = m003;
shapes = (
{
closed = 1;
nodes = (
(570,30,o),
(570,60,o),
(570,90,c),
(560,90,o),
(550,90,o),
(540,90,c),
(534,90,o),
(526,90,o),
(520,90,c),
(510,90,o),
(500,90,o),
(490,90,c),
(394,90,o),
(296,90,o),
(200,90,c),
(200,222,o),
(200,356,o),
(200,488,cs),
(200,522,o),
(200,556,o),
(200,590,c),
(296,590,o),
(394,590,o),
(490,590,c),
(500,590,o),
(510,590,o),
(520,590,c),
(536,590,o),
(554,590,o),
(570,590,c),
(569,670,l),
(416,670,o),
(264,670,o),
(110,670,c),
(110,656,o),
(110,642,o),
(110,627,c),
(110,618,o),
(110,610,o),
(110,602,c),
(110,590,o),
(110,578,o),
(110,565,c),
(110,420,o),
(110,276,o),
(110,130,c),
(110,106,o),
(110,112,o),
(110,90,c),
(110,74,o),
(110,60,o),
(110,44,c),
(110,30,o),
(110,14,o),
(110,0,c),
(264,0,o),
(416,0,o),
(569,0,c)
);
},
{
closed = 1;
nodes = (
(530,330,o),
(530,362,o),
(530,390,c),
(160,390,l),
(162,362,o),
(162,330,o),
(160,300,c),
(284,300,o),
(406,300,o),
(530,300,c)
);
}
);
width = 639;
},
{
associatedMasterId = m003;
layerId = "ABFD094E-760C-47A1-85DE-72C54F4BE649";
name = ExtraBold;
shapes = (
{
closed = 1;
nodes = (
(574,160,l),
(267,160,l),
(267,515,l),
(574,515,l),
(574,670,l),
(80,670,l),
(80,0,l),
(574,0,l)
);
},
{
closed = 1;
nodes = (
(540,414,l),
(185,414,l),
(185,264,l),
(540,264,l)
);
}
);
width = 644;
},
{
associatedMasterId = m003;
layerId = "1A2C4CC1-2C09-4A9E-9EE4-623295E4262F";
name = DEMOLITION;
shapes = (
{
closed = 1;
nodes = (
(574,160,l),
(267,160,l),
(267,515,l),
(574,515,l),
(574,670,l),
(80,670,l),
(80,0,l),
(574,0,l)
);
},
{
closed = 1;
nodes = (
(540,414,l),
(185,414,l),
(185,264,l),
(540,264,l)
);
}
);
width = 644;
}
);
note = E;
unicode = (69,101);
},
{
glyphname = F;
lastChange = "2024-11-05 08:59:03 +0000";
layers = (
{
layerId = m01;
shapes = (
{
closed = 1;
nodes = (
(150,10,ls),
(128,22,o),
(120,116,o),
(120,160,cs),
(120,170,l),
(120,180,o),
(120,190,o),
(120,200,c),
(140,350,o),
(112,366,o),
(120,500,c),
(120,514,o),
(130,556,o),
(130,570,cs),
(130,700,o),
(170,660,o),
(310,660,cs),
(520,660,ls),
(562,660,o),
(540,590,o),
(520,590,c),
(550,590,l),
(550,670,l),
(110,670,l),
(100,670,o),
(80,658,o),
(80,650,cs),
(80,638,o),
(110,632,o),
(110,610,cs),
(110,600,o),
(110,588,o),
(110,580,c),
(110,130,l),
(110,122,o),
(110,110,o),
(110,100,c),
(110,86,o),
(110,76,o),
(110,60,c),
(110,0,l),
(170,0,l)
);
},
{
closed = 1;
nodes = (
(420,280,o),
(420,280,o),
(420,290,c),
(370,290,o),
(328,278,o),
(320,300,cs),
(300,350,o),
(240,250,o),
(110,290,c),
(110,270,l),
(212,284,o),
(322,284,o),
(420,270,c)
);
}
);
width = 603;
},
{
associatedMasterId = m01;
layerId = "C5FAC1B4-FC30-4230-AD22-0E3CA9B26410";
name = ExtraBold;
shapes = (
{
closed = 1;
nodes = (
(267,505,l),
(555,505,l),
(555,670,l),
(80,670,l),
(80,0,l),
(267,0,l)
);
},
{
closed = 1;
nodes = (
(505,391,l),
(157,391,l),
(157,226,l),
(505,226,l)
);
}
);
width = 615;
},
{
layerId = m002;
shapes = (
{
closed = 1;
nodes = (
(210,10,ls),
(236,36,o),
(230,70,o),
(230,120,cs),
(230,140,ls),
(230,150,o),
(230,180,o),
(230,190,cs),
(230,322,o),
(230,170,o),
(230,260,cs),
(230,414,o),
(120,440,o),
(130,580,cs),
(138,702,o),
(310,600,o),
(370,630,cs),
(430,660,ls),
(462,676,o),
(518,650,o),
(530,620,cs),
(550,570,l),
(550,670,l),
(110,670,l),
(50,670,o),
(40,650,o),
(50,550,c),
(50,590,o),
(120,660,o),
(200,660,c),
(150,650,o),
(110,620,o),
(110,560,cs),
(110,120,ls),
(110,50,o),
(130,20,o),
(180,50,c),
(154,14,o),
(112,18,o),
(100,60,c),
(100,0,l),
(200,0,l)
);
},
{
closed = 1;
nodes = (
(408,286,o),
(490,260,o),
(540,350,c),
(466,282,o),
(418,390,o),
(360,370,cs),
(308,352,o),
(270,360,o),
(220,300,c),
(220,290,l),
(268,370,o),
(334,322,o),
(380,300,cs)
);
}
);
width = 603;
},
{
associatedMasterId = m01;
layerId = "A184EB91-2386-4B51-951E-D468BC93B967";
name = DEMOLITION;
shapes = (
{
closed = 1;
nodes = (
(267,505,l),
(555,505,l),
(555,670,l),
(80,670,l),
(80,0,l),
(267,0,l)
);
},
{
closed = 1;
nodes = (
(505,391,l),
(157,391,l),
(157,226,l),
(505,226,l)
);
}
);
width = 615;
},
{
associatedMasterId = m002;
layerId = "68D56C27-73F8-41E8-A0BF-B142BED10BCF";
name = ExtraBold;
shapes = (
{
closed = 1;
nodes = (
(267,505,l),
(555,505,l),
(555,670,l),
(80,670,l),
(80,0,l),
(267,0,l)
);
},
{
closed = 1;
nodes = (
(505,391,l),
(157,391,l),
(157,226,l),
(505,226,l)
);
}
);
width = 615;
},
{
associatedMasterId = m002;
layerId = "FE95C74E-D990-4E7E-8065-5BB0C8AE47AB";
name = DEMOLITION;
shapes = (
{
closed = 1;
nodes = (
(150,700,l),
(550,770,l),
(550,670,l),
(120,730,l),
(120,-10,l),
(70,-10,l)
);
},
{
closed = 1;
nodes = (
(490,240,l),
(180,361,l),
(180,320,l),
(490,300,l)
);
}
);
width = 603;
},
{
associatedMasterId = m002;
layerId = "CDB0D5C6-5661-488F-A805-78A5F0ED6E3C";
name = DEMOLITION;
shapes = (
{
closed = 1;
nodes = (
(267,505,l),
(555,505,l),
(555,670,l),
(80,670,l),
(80,0,l),
(267,0,l)
);
},
{
closed = 1;
nodes = (
(505,391,l),
(157,391,l),
(157,226,l),
(505,226,l)
);
}
);
width = 615;
},
{
layerId = m003;
shapes = (
{
closed = 1;
nodes = (
(200,70,l),
(200,78,o),
(200,86,o),
(200,94,c),
(200,113,l),
(200,122,o),
(200,132,o),
(200,142,c),
(200,274,o),
(200,406,o),
(200,538,c),
(200,554,o),
(200,576,o),
(200,590,c),
(290,590,o),
(370,590,o),
(450,590,c),
(490,590,l),
(500,590,o),
(510,590,o),
(520,590,c),
(550,590,l),
(548,670,l),
(110,670,l),
(110,660,o),
(110,648,o),
(110,637,c),
(110,628,o),
(110,620,o),
(110,610,c),
(110,600,o),
(110,588,o),
(110,577,c),
(110,133,l),
(110,122,o),
(110,110,o),
(110,97,c),
(110,86,o),
(110,76,o),
(110,64,c),
(110,0,l),
(200,0,l)
);
},
{
closed = 1;
nodes = (
(490,308,o),
(490,332,o),
(490,360,c),
(438,360,o),
(382,360,o),
(327,360,cs),
(277,360,o),
(228,360,o),
(180,360,c),
(180,280,l),
(280,280,o),
(390,280,o),
(490,280,c)
);
}
);
width = 603;
},
{
associatedMasterId = m003;
layerId = "3901362C-EC58-442B-82FC-0C0CB9FE675E";
name = ExtraBold;
shapes = (
{
closed = 1;
nodes = (
(267,505,l),
(555,505,l),
(555,670,l),
(80,670,l),
(80,0,l),
(267,0,l)
);
},
{
closed = 1;
nodes = (
(505,391,l),
(157,391,l),
(157,226,l),
(505,226,l)
);
}
);
width = 615;
},
{
associatedMasterId = m003;
layerId = "7491BBE6-EDBF-4D98-9A36-EE2FFF41BD7F";
name = DEMOLITION;
shapes = (
{
closed = 1;
nodes = (
(267,505,l),
(555,505,l),
(555,670,l),
(80,670,l),
(80,0,l),
(267,0,l)
);
},
{
closed = 1;
nodes = (
(505,391,l),
(157,391,l),
(157,226,l),
(505,226,l)
);
}
);
width = 615;
}
);
note = F;
unicode = (70,102);
},
{
glyphname = G;
lastChange = "2024-11-05 08:28:03 +0000";
layers = (
{
layerId = m01;
shapes = (
{
closed = 1;
nodes = (
(561,16,o),
(672,136,o),
(640,120,qs),
(620,110,l),
(610,90,o),
(550,20,o),
(450,0,o),
(390,0,qs),
(300,0,o),
(130,100,o),
(60,260,o),
(60,330,qs),
(60,460,o),
(210,530,o),
(270,680,o),
(410,680,qs),
(462,680,o),
(570,620,o),
(600,540,o),
(604,514,q),
(604,548,o),
(604,580,o),
(604,613,c),
(569,645,o),
(476,685,o),
(403,685,qs),
(327,685,o),
(199,630,o),
(103,534,o),
(50,407,o),
(50,335,qs),
(50,263,o),
(103,136,o),
(199,40,o),
(324,-10,o),
(400,-10,qs),
(460,-10,o)
);
},
{
closed = 1;
nodes = (
(680,128,o),
(650,116,o),
(650,190,cs),
(650,198,o),
(650,204,o),
(650,210,cs),
(650,220,o),
(650,222,o),
(650,230,cs),
(650,330,o),
(468,290,o),
(370,290,c),
(370,260,o),
(370,300,o),
(370,270,c),
(436,270,o),
(484,290,o),
(550,290,cs),
(750,290,o),
(576,38,o),
(570,40,c),
(620,80,ls)
);
}
);
width = 701;
},
{
associatedMasterId = m01;
layerId = "C5FAC1B4-FC30-4230-AD22-0E3CA9B26410";
name = ExtraBold;
shapes = (
{
closed = 1;
nodes = (
(533,10,o),
(609,56,o),
(640,89,q),
(502,193,l),
(494,184,o),
(465,169,o),
(426,160,o),
(402,160,qs),
(357,160,o),
(280,206,o),
(232,285,o),
(232,335,qs),
(232,385,o),
(280,464,o),
(357,510,o),
(402,510,qs),
(441,510,o),
(497,495,o),
(546,467,o),
(572,445,q),
(572,626,l),
(538,655,o),
(448,685,o),
(395,685,qs),
(327,685,o),
(200,638,o),
(99,548,o),
(40,418,o),
(40,335,qs),
(40,252,o),
(99,122,o),
(200,32,o),
(327,-15,o),
(395,-15,qs),
(445,-15,o)
);
},
{
closed = 1;
nodes = (
(640,359,l),
(479,359,l),
(479,239,l),
(479,238,l),
(479,29,l),
(640,89,l)
);
}
);
width = 695;
},
{
layerId = m002;
shapes = (
{
closed = 1;
nodes = (
(561,16,o),
(637,65,o),
(661,91,q),
(560,130,l),
(560,60,o),
(510,10,o),
(360,110,o),
(270,180,qs),
(164,262,o),
(370,-10,o),
(160,180,o),
(140,330,qs),
(130,406,o),
(200,610,o),
(316,680,o),
(390,680,qs),
(442,680,o),
(530,560,o),
(610,530,o),
(640,520,q),
(610,550,o),
(612,560,o),
(600,590,cs),
(580,640,o),
(476,685,o),
(403,685,qs),
(327,685,o),
(199,630,o),
(103,534,o),
(50,407,o),
(50,335,qs),
(50,263,o),
(103,136,o),
(200,40,o),
(324,-10,o),
(400,-10,qs),
(460,-10,o)
);
},
{
closed = 1;
nodes = (
(662,208,o),
(660,190,o),
(660,320,c),
(634,274,o),
(602,272,o),
(580,270,c),
(638,272,o),
(694,370,o),
(660,370,cs),
(610,370,o),
(408,370,o),
(310,370,c),
(350,350,o),
(340,280,o),
(400,280,c),
(466,280,o),
(560,430,o),
(560,330,c),
(562,246,o),
(558,114,o),
(560,30,c),
(660,90,l)
);
}
);
width = 701;
},
{
associatedMasterId = m01;
layerId = "7D56D60C-6E20-4CA9-926F-AA5BE98F1B95";
name = DEMOLITION;
shapes = (
{
closed = 1;
nodes = (
(533,10,o),
(609,56,o),
(640,89,q),
(502,193,l),
(494,184,o),
(465,169,o),
(426,160,o),
(402,160,qs),
(357,160,o),
(280,206,o),
(232,285,o),
(232,335,qs),
(232,385,o),
(280,464,o),
(357,510,o),
(402,510,qs),
(441,510,o),
(497,495,o),
(546,467,o),
(572,445,q),
(572,626,l),
(538,655,o),
(448,685,o),
(395,685,qs),
(327,685,o),
(200,638,o),
(99,548,o),
(40,418,o),
(40,335,qs),
(40,252,o),
(99,122,o),
(200,32,o),
(327,-15,o),
(395,-15,qs),
(445,-15,o)
);
},
{
closed = 1;
nodes = (
(640,359,l),
(479,359,l),
(479,239,l),
(479,238,l),
(479,29,l),
(640,89,l)
);
}
);
width = 695;
},
{
associatedMasterId = m002;
layerId = "14D6AAA2-54A8-41FA-86BA-4804590C4E44";
name = ExtraBold;
shapes = (
{
closed = 1;
nodes = (
(533,10,o),
(609,56,o),
(640,89,q),
(502,193,l),
(494,184,o),
(465,169,o),
(426,160,o),
(402,160,qs),
(357,160,o),
(280,206,o),
(232,285,o),
(232,335,qs),
(232,385,o),
(280,464,o),
(357,510,o),
(402,510,qs),
(441,510,o),
(497,495,o),
(546,467,o),
(572,445,q),
(572,626,l),
(538,655,o),
(448,685,o),
(395,685,qs),
(327,685,o),
(200,638,o),
(99,548,o),
(40,418,o),
(40,335,qs),
(40,252,o),
(99,122,o),
(200,32,o),
(327,-15,o),
(395,-15,qs),
(445,-15,o)
);
},
{
closed = 1;
nodes = (
(640,359,l),
(479,359,l),
(479,239,l),
(479,238,l),
(479,29,l),
(640,89,l)
);
}
);
width = 695;
},
{
associatedMasterId = m002;
layerId = "AA8D46D3-F3E1-489C-9D03-5FCFDBA9E6E0";
name = DEMOLITION;
shapes = (
{
closed = 1;
nodes = (
(561,16,o),
(637,65,o),
(661,91,q),
(564,131,l),
(553,122,o),
(516,94,o),
(454,73,o),
(403,73,qs),
(328,73,o),
(210,142,o),
(142,260,o),
(142,335,qs),
(142,410,o),
(210,529,o),
(328,597,o),
(403,597,qs),
(454,597,o),
(527,568,o),
(578,816,o),
(600,800,q),
(604,613,l),
(569,645,o),
(304,440,o),
(230,440,qs),
(154,440,o),
(199,630,o),
(103,534,o),
(50,407,o),
(50,335,qs),
(50,263,o),
(103,136,o),
(199,40,o),
(144,250,o),
(220,250,qs),
(280,250,o)
);
},
{
closed = 1;
nodes = (
(661,366,l),
(350,240,l),
(350,340,l),
(750,270,l),
(564,30,l),
(661,91,l)
);
}
);
width = 701;
},
{
associatedMasterId = m002;
layerId = "6CF560F1-76F8-4183-929C-55BEAF6C9BAF";
name = DEMOLITION;
shapes = (
{
closed = 1;
nodes = (
(533,10,o),
(609,56,o),
(640,89,q),
(502,193,l),
(494,184,o),
(465,169,o),
(426,160,o),
(402,160,qs),
(357,160,o),
(280,206,o),
(232,285,o),
(232,335,qs),
(232,385,o),
(280,464,o),
(357,510,o),
(402,510,qs),
(441,510,o),
(497,495,o),
(546,467,o),
(572,445,q),
(572,626,l),
(538,655,o),
(448,685,o),
(395,685,qs),
(327,685,o),
(200,638,o),
(99,548,o),
(40,418,o),
(40,335,qs),
(40,252,o),
(99,122,o),
(200,32,o),
(327,-15,o),
(395,-15,qs),
(445,-15,o)
);
},
{
closed = 1;
nodes = (
(640,359,l),
(479,359,l),
(479,239,l),
(479,238,l),
(479,29,l),
(640,89,l)
);
}
);
width = 695;
},
{
layerId = m003;
shapes = (
{
closed = 1;
nodes = (
(561,16,o),
(637,65,o),
(661,91,q),
(564,131,l),
(554,122,o),
(516,94,o),
(454,74,o),
(403,73,qs),
(328,74,o),
(210,142,o),
(142,260,o),
(142,335,qs),
(142,410,o),
(210,530,o),
(328,598,o),
(403,597,qs),
(454,597,o),
(527,568,o),
(582,530,o),
(604,514,q),
(604,548,o),
(604,580,o),
(604,613,c),
(569,645,o),
(476,685,o),
(403,685,qs),
(327,685,o),
(199,630,o),
(103,534,o),
(50,407,o),
(50,335,qs),
(50,263,o),
(103,136,o),
(199,40,o),
(324,-10,o),
(400,-10,qs),
(460,-10,o)
);
},
{
closed = 1;
nodes = (
(660,167,o),
(660,244,o),
(660,320,cs),
(660,325,o),
(660,331,o),
(660,337,cs),
(660,348,o),
(660,359,o),
(660,370,c),
(562,370,o),
(468,370,o),
(370,370,c),
(370,340,o),
(370,310,o),
(370,280,c),
(436,280,o),
(494,280,o),
(560,280,c),
(562,196,o),
(558,114,o),
(560,30,c),
(661,91,l)
);
}
);
width = 701;
},
{
associatedMasterId = m003;
layerId = "A3975AA8-51A5-4C25-A422-50D1AE3B588C";
name = ExtraBold;
shapes = (
{
closed = 1;
nodes = (
(533,10,o),
(609,56,o),
(640,89,q),
(502,193,l),
(494,184,o),
(465,169,o),
(426,160,o),
(402,160,qs),
(357,160,o),
(280,206,o),
(232,285,o),
(232,335,qs),
(232,385,o),
(280,464,o),
(357,510,o),
(402,510,qs),
(441,510,o),
(497,495,o),
(546,467,o),
(572,445,q),
(572,626,l),
(538,655,o),
(448,685,o),
(395,685,qs),
(327,685,o),
(200,638,o),
(99,548,o),
(40,418,o),
(40,335,qs),
(40,252,o),
(99,122,o),
(200,32,o),
(327,-15,o),
(395,-15,qs),
(445,-15,o)
);
},
{
closed = 1;
nodes = (
(640,359,l),
(479,359,l),
(479,239,l),
(479,238,l),
(479,29,l),
(640,89,l)
);
}
);
width = 695;
},
{
associatedMasterId = m003;
layerId = "95036E22-17C7-4FDE-9519-0268FAD2F0CC";
name = DEMOLITION;
shapes = (
{
closed = 1;
nodes = (
(533,10,o),
(609,56,o),
(640,89,q),
(502,193,l),
(494,184,o),
(465,169,o),
(426,160,o),
(402,160,qs),
(357,160,o),
(280,206,o),
(232,285,o),
(232,335,qs),
(232,385,o),
(280,464,o),
(357,510,o),
(402,510,qs),
(441,510,o),
(497,495,o),
(546,467,o),
(572,445,q),
(572,626,l),
(538,655,o),
(448,685,o),
(395,685,qs),
(327,685,o),
(200,638,o),
(99,548,o),
(40,418,o),
(40,335,qs),
(40,252,o),
(99,122,o),
(200,32,o),
(327,-15,o),
(395,-15,qs),
(445,-15,o)
);
},
{
closed = 1;
nodes = (
(640,359,l),
(479,359,l),
(479,239,l),
(479,238,l),
(479,29,l),
(640,89,l)
);
}
);
width = 695;
}
);
note = G;
unicode = (71,103);
},
{
glyphname = H;
lastChange = "2024-11-05 08:59:45 +0000";
layers = (
{
layerId = m01;
shapes = (
{
closed = 1;
nodes = (
(670,40,l),
(670,50,o),
(670,62,o),
(670,70,c),
(670,90,o),
(670,104,o),
(670,120,cs),
(670,244,o),
(680,366,o),
(670,580,c),
(670,590,o),
(670,600,o),
(670,610,c),
(670,630,o),
(672,644,o),
(670,660,cs),
(672,664,o),
(672,668,o),
(670,670,c),
(660,670,l),
(660,656,o),
(660,666,o),
(660,630,c),
(662,612,o),
(662,594,o),
(660,570,c),
(660,566,o),
(660,558,o),
(660,540,c),
(620,420,o),
(660,318,o),
(660,180,cs),
(660,130,o),
(640,138,o),
(640,120,cs),
(640,110,o),
(660,76,o),
(660,60,c),
(660,0,l),
(670,0,l)
);
},
{
closed = 1;
nodes = (
(140,20,ls),
(140,34,o),
(120,50,o),
(120,60,cs),
(120,76,o),
(120,88,o),
(120,100,c),
(98,322,o),
(142,404,o),
(120,510,cs),
(110,560,o),
(110,580,o),
(140,610,cs),
(160,630,o),
(120,648,o),
(120,660,cs),
(120,664,o),
(120,666,o),
(120,670,c),
(110,670,l),
(110,656,o),
(110,640,o),
(110,625,c),
(110,614,o),
(110,602,o),
(110,591,c),
(110,580,o),
(110,570,o),
(110,558,c),
(110,130,l),
(110,114,o),
(110,96,o),
(110,79,c),
(110,70,o),
(110,60,o),
(110,49,c),
(110,0,l),
(140,0,l)
);
},
{
closed = 1;
nodes = (
(670,310,l),
(530,312,o),
(250,312,o),
(110,310,c),
(110,300,l),
(252,308,o),
(530,312,o),
(670,300,c)
);
}
);
width = 782;
},
{
associatedMasterId = m01;
layerId = "C5FAC1B4-FC30-4230-AD22-0E3CA9B26410";
name = ExtraBold;
shapes = (
{
closed = 1;
nodes = (
(694,670,l),
(507,670,l),
(507,0,l),
(694,0,l)
);
},
{
closed = 1;
nodes = (
(267,670,l),
(80,670,l),
(80,0,l),
(267,0,l)
);
},
{
closed = 1;
nodes = (
(535,405,l),
(247,405,l),
(247,240,l),
(535,240,l)
);
}
);
width = 774;
},
{
layerId = m002;
shapes = (
{
closed = 1;
nodes = (
(670,40,l),
(670,80,o),
(660,130,o),
(640,10,c),
(640,100,o),
(666,104,o),
(670,120,cs),
(730,400,o),
(460,440,o),
(670,580,c),
(670,590,o),
(670,600,o),
(670,610,c),
(530,710,o),
(671,644,o),
(672,661,cs),
(672,664,o),
(672,667,o),
(672,670,c),
(582,670,l),
(600,650,o),
(638,616,o),
(640,580,c),
(620,620,o),
(580,650,o),
(580,630,c),
(578,622,o),
(580,552,o),
(582,542,c),
(582,410,o),
(580,282,o),
(580,150,c),
(580,140,o),
(580,112,o),
(580,100,cs),
(580,60,o),
(584,34,o),
(570,20,cs),
(550,0,l),
(672,0,l)
);
},
{
closed = 1;
nodes = (
(200,34,l),
(200,90,o),
(174,48,o),
(170,10,c),
(172,62,o),
(180,70,o),
(200,80,c),
(4,392,o),
(240,378,o),
(240,530,cs),
(240,600,o),
(150,650,o),
(150,660,c),
(150,674,o),
(200,648,o),
(200,660,cs),
(200,664,o),
(200,667,o),
(200,670,c),
(110,670,l),
(150,660,o),
(170,576,o),
(170,560,c),
(168,576,o),
(108,678,o),
(110,630,c),
(110,620,o),
(110,570,o),
(110,558,c),
(110,130,l),
(110,114,o),
(110,88,o),
(110,70,cs),
(110,42,o),
(98,28,o),
(90,20,cs),
(70,0,l),
(200,0,l)
);
},
{
closed = 1;
nodes = (
(610,388,l),
(470,388,o),
(260,90,o),
(140,140,c),
(200,80,l),
(346,148,o),
(470,438,o),
(610,300,c)
);
}
);
width = 782;
},
{
associatedMasterId = m01;
layerId = "DBD515F7-101E-468A-85F8-FEF87A21F1DC";
name = DEMOLITION;
shapes = (
{
closed = 1;
nodes = (
(694,670,l),
(507,670,l),
(507,0,l),
(694,0,l)
);
},
{
closed = 1;
nodes = (
(267,670,l),
(80,670,l),
(80,0,l),
(267,0,l)
);
},
{
closed = 1;
nodes = (
(535,405,l),
(247,405,l),
(247,240,l),
(535,240,l)
);
}
);
width = 774;
},
{
associatedMasterId = m002;
layerId = "5510D768-EDEF-469B-BA63-2C21BB66E22A";
name = ExtraBold;
shapes = (
{
closed = 1;
nodes = (
(694,670,l),
(507,670,l),
(507,0,l),
(694,0,l)
);
},
{
closed = 1;
nodes = (
(267,670,l),
(80,670,l),
(80,0,l),
(267,0,l)
);
},
{
closed = 1;
nodes = (
(535,405,l),
(247,405,l),
(247,240,l),
(535,240,l)
);
}
);
width = 774;
},
{
associatedMasterId = m002;
layerId = "114DABB6-2923-4798-B023-82907DD51131";
name = DEMOLITION;
shapes = (
{
closed = 1;
nodes = (
(500,670,l),
(410,670,l),
(780,0,l),
(670,0,l)
);
},
{
closed = 1;
nodes = (
(200,670,l),
(110,670,l),
(360,-10,l),
(250,0,l)
);
},
{
closed = 1;
nodes = (
(610,388,l),
(190,310,l),
(50,390,l),
(610,303,l)
);
}
);
width = 782;
},
{
associatedMasterId = m002;
layerId = "D510E49D-77A9-4514-A79A-6881C2879D52";
name = DEMOLITION;
shapes = (
{
closed = 1;
nodes = (
(694,670,l),
(507,670,l),
(507,0,l),
(694,0,l)
);
},
{
closed = 1;
nodes = (
(267,670,l),
(80,670,l),
(80,0,l),
(267,0,l)
);
},
{
closed = 1;
nodes = (
(535,405,l),
(247,405,l),
(247,240,l),
(535,240,l)
);
}
);
width = 774;
},
{
layerId = m003;
shapes = (
{
closed = 1;
nodes = (
(670,40,l),
(670,50,o),
(670,62,o),
(670,70,c),
(670,90,o),
(670,104,o),
(670,120,cs),
(670,274,o),
(670,428,o),
(670,580,c),
(670,590,o),
(670,600,o),
(670,610,c),
(670,629,o),
(671,644,o),
(672,661,cs),
(672,664,o),
(672,667,o),
(672,670,c),
(582,670,l),
(580,650,o),
(580,660,o),
(582,625,c),
(582,606,o),
(582,588,o),
(582,569,c),
(580,560,o),
(580,552,o),
(582,542,c),
(582,410,o),
(580,282,o),
(580,150,c),
(580,140,o),
(580,122,o),
(580,110,c),
(580,100,o),
(580,100,o),
(580,90,c),
(580,0,l),
(670,0,l)
);
},
{
closed = 1;
nodes = (
(200,34,l),
(200,42,o),
(200,52,o),
(200,60,c),
(200,74,o),
(200,86,o),
(200,100,c),
(200,264,o),
(200,428,o),
(200,591,c),
(200,602,o),
(200,614,o),
(200,624,c),
(200,637,o),
(200,648,o),
(200,660,cs),
(200,664,o),
(200,667,o),
(200,670,c),
(110,670,l),
(110,656,o),
(110,640,o),
(110,625,c),
(110,614,o),
(110,602,o),
(110,591,c),
(110,580,o),
(110,570,o),
(110,558,c),
(110,130,l),
(110,114,o),
(110,96,o),
(110,79,c),
(110,70,o),
(110,60,o),
(110,49,c),
(110,0,l),
(200,0,l)
);
},
{
closed = 1;
nodes = (
(610,388,l),
(470,390,o),
(260,390,o),
(120,390,c),
(120,300,l),
(262,298,o),
(470,302,o),
(610,300,c)
);
}
);
width = 782;
},
{
associatedMasterId = m003;
layerId = "075D60DF-18D7-4F1F-BBBD-735DE2FC3B69";
name = ExtraBold;
shapes = (
{
closed = 1;
nodes = (
(694,670,l),
(507,670,l),
(507,0,l),
(694,0,l)
);
},
{
closed = 1;
nodes = (
(267,670,l),
(80,670,l),
(80,0,l),
(267,0,l)
);
},
{
closed = 1;
nodes = (
(535,405,l),
(247,405,l),
(247,240,l),
(535,240,l)
);
}
);
width = 774;
},
{
associatedMasterId = m003;
layerId = "C78DE7BF-519C-40CD-BACA-D1AD4B861A1F";
name = DEMOLITION;
shapes = (
{
closed = 1;
nodes = (
(694,670,l),
(507,670,l),
(507,0,l),
(694,0,l)
);
},
{
closed = 1;
nodes = (
(267,670,l),
(80,670,l),
(80,0,l),
(267,0,l)
);
},
{
closed = 1;
nodes = (
(535,405,l),
(247,405,l),
(247,240,l),
(535,240,l)
);
}
);
width = 774;
}
);
note = H;
unicode = (72,104);
},
{
glyphname = I;
lastChange = "2024-11-05 09:01:39 +0000";
layers = (
{
layerId = m01;
shapes = (
{
closed = 1;
nodes = (
(200,20,o),
(302,650,o),
(313,670,c),
(284,670,o),
(270,670,o),
(270,660,c),
(310,654,o),
(224,150,o),
(220,0,c),
(250,0,o),
(242,0,o),
(270,0,c)
);
},
{
closed = 1;
nodes = (
(430,4,o),
(430,6,o),
(430,10,c),
(430,-16,o),
(430,-4,o),
(430,0,c),
(430,8,o),
(430,2,o),
(430,10,c),
(430,50,l),
(400,10,o),
(370,30,o),
(330,20,cs),
(274,6,o),
(136,8,o),
(110,50,c),
(110,0,l),
(216,0,o),
(324,0,o),
(430,0,c)
);
},
{
closed = 1;
nodes = (
(430,650,o),
(430,650,o),
(430,660,cs),
(430,672,o),
(430,670,o),
(426,670,c),
(320,670,o),
(216,670,o),
(110,670,c),
(110,642,o),
(110,674,o),
(110,650,c),
(216,670,o),
(320,666,o),
(430,640,c)
);
}
);
width = 536;
},
{
associatedMasterId = m01;
layerId = "C5FAC1B4-FC30-4230-AD22-0E3CA9B26410";
name = ExtraBold;
shapes = (
{
closed = 1;
nodes = (
(380,670,l),
(193,670,l),
(193,0,l),
(380,0,l)
);
},
{
closed = 1;
nodes = (
(503,155,l),
(70,155,l),
(70,0,l),
(503,0,l)
);
},
{
closed = 1;
nodes = (
(503,670,l),
(70,670,l),
(70,515,l),
(503,515,l)
);
}
);
width = 573;
},
{
layerId = m002;
shapes = (
{
closed = 1;
nodes = (
(390,250,o),
(354,622,o),
(270,650,c),
(240,640,o),
(312,652,o),
(260,460,cs),
(228,342,o),
(118,220,o),
(250,80,c),
(320,70,o),
(180,66,o),
(310,180,cs)
);
},
{
closed = 1;
nodes = (
(430,0,o),
(430,6,o),
(430,10,c),
(430,18,o),
(430,24,o),
(430,30,c),
(430,36,o),
(430,46,o),
(430,50,c),
(430,90,l),
(390,110,o),
(370,120,o),
(340,120,cs),
(250,120,o),
(190,-20,o),
(110,90,c),
(110,0,l),
(350,138,o),
(380,60,o),
(430,0,c)
);
},
{
closed = 1;
nodes = (
(430,620,o),
(430,640,o),
(430,660,cs),
(430,660,o),
(430,670,o),
(430,670,c),
(268,654,o),
(132,620,o),
(110,670,c),
(110,642,o),
(110,614,o),
(110,590,c),
(214,654,o),
(316,672,o),
(430,590,c)
);
}
);
width = 536;
},
{
associatedMasterId = m01;
layerId = "452732ED-5C46-4175-B826-C62C36AAA834";
name = DEMOLITION;
shapes = (
{
closed = 1;
nodes = (
(380,670,l),
(193,670,l),
(193,0,l),
(380,0,l)
);
},
{
closed = 1;
nodes = (
(503,155,l),
(70,155,l),
(70,0,l),
(503,0,l)
);
},
{
closed = 1;
nodes = (
(503,670,l),
(70,670,l),
(70,515,l),
(503,515,l)
);
}
);
width = 573;
},
{
associatedMasterId = m002;
layerId = "99E4DAD3-C5D3-440D-841C-48948F0792C3";
name = ExtraBold;
shapes = (
{
closed = 1;
nodes = (
(380,670,l),
(193,670,l),
(193,0,l),
(380,0,l)
);
},
{
closed = 1;
nodes = (
(503,155,l),
(70,155,l),
(70,0,l),
(503,0,l)
);
},
{
closed = 1;
nodes = (
(503,670,l),
(70,670,l),
(70,515,l),
(503,515,l)
);
}
);
width = 573;
},
{
associatedMasterId = m002;
layerId = "3AB74DF1-1896-42AF-BFB9-C816D7E123DE";
name = DEMOLITION;
shapes = (
{
closed = 1;
nodes = (
(170,420,l),
(223,670,l),
(223,0,l),
(313,0,l)
);
},
{
closed = 1;
nodes = (
(430,-90,l),
(110,90,l),
(110,0,l),
(426,0,l)
);
},
{
closed = 1;
nodes = (
(426,670,l),
(110,670,l),
(110,760,l),
(426,585,l)
);
}
);
width = 536;
},
{
associatedMasterId = m002;
layerId = "655581B4-C97D-4DED-A3E8-E941D013712C";
name = DEMOLITION;
shapes = (
{
closed = 1;
nodes = (
(380,670,l),
(193,670,l),
(193,0,l),
(380,0,l)
);
},
{
closed = 1;
nodes = (
(503,155,l),
(70,155,l),
(70,0,l),
(503,0,l)
);
},
{
closed = 1;
nodes = (
(503,670,l),
(70,670,l),
(70,515,l),
(503,515,l)
);
}
);
width = 573;
},
{
layerId = m003;
shapes = (
{
closed = 1;
nodes = (
(314,224,o),
(314,446,o),
(313,670,c),
(284,670,o),
(254,670,o),
(223,670,c),
(224,446,o),
(222,224,o),
(220,0,c),
(250,0,o),
(282,0,o),
(310,0,c)
);
},
{
closed = 1;
nodes = (
(430,4,o),
(430,6,o),
(430,10,c),
(430,14,o),
(430,26,o),
(430,30,c),
(430,38,o),
(430,42,o),
(430,50,c),
(430,90,l),
(398,90,o),
(364,90,o),
(330,90,cs),
(258,90,o),
(180,90,o),
(110,90,c),
(110,0,l),
(216,0,o),
(324,0,o),
(430,0,c)
);
},
{
closed = 1;
nodes = (
(426,610,o),
(426,635,o),
(426,659,cs),
(426,663,o),
(426,666,o),
(426,670,c),
(320,670,o),
(216,670,o),
(110,670,c),
(110,642,o),
(110,614,o),
(110,585,c),
(216,586,o),
(320,586,o),
(426,585,c)
);
}
);
width = 536;
},
{
associatedMasterId = m003;
layerId = "EB4B3F15-E227-4F46-A51E-758A1FEF502F";
name = ExtraBold;
shapes = (
{
closed = 1;
nodes = (
(380,670,l),
(193,670,l),
(193,0,l),
(380,0,l)
);
},
{
closed = 1;
nodes = (
(503,155,l),
(70,155,l),
(70,0,l),
(503,0,l)
);
},
{
closed = 1;
nodes = (
(503,670,l),
(70,670,l),
(70,515,l),
(503,515,l)
);
}
);
width = 573;
},
{
associatedMasterId = m003;
layerId = "8A12C47D-BADD-42E0-A2F2-38CE40190B3A";
name = DEMOLITION;
shapes = (
{
closed = 1;
nodes = (
(380,670,l),
(193,670,l),
(193,0,l),
(380,0,l)
);
},
{
closed = 1;
nodes = (
(503,155,l),
(70,155,l),
(70,0,l),
(503,0,l)
);
},
{
closed = 1;
nodes = (
(503,670,l),
(70,670,l),
(70,515,l),
(503,515,l)
);
}
);
width = 573;
}
);
note = I;
unicode = (73,105);
},
{
glyphname = J;
lastChange = "2024-11-05 09:03:22 +0000";
layers = (
{
layerId = m01;
shapes = (
{
closed = 1;
nodes = (
(150,-162,o),
(206,-44,o),
(210,30,qs),
(205,672,l),
(115,672,l),
(220,660,o),
(232,8,o),
(140,-130,cs),
(40,-280,o),
(-50,-170,q),
(-10,-250,l),
(52,-232,o)
);
}
);
width = 315;
},
{
associatedMasterId = m01;
layerId = "C5FAC1B4-FC30-4230-AD22-0E3CA9B26410";
name = ExtraBold;
shapes = (
{
closed = 1;
nodes = (
(235,-160,o),
(304,-36,o),
(304,47,qs),
(304,672,l),
(117,672,l),
(117,54,ls),
(117,-61,o),
(-30,-93,q),
(32,-255,l),
(113,-238,o)
);
}
);
width = 374;
},
{
layerId = m002;
shapes = (
{
closed = 1;
nodes = (
(149,-163,o),
(205,-51,o),
(205,34,qs),
(205,672,l),
(20,670,l),
(394,648,o),
(56,338,o),
(110,100,cs),
(210,-340,o),
(-10,-20,q),
(-11,-255,l),
(52,-232,o)
);
}
);
width = 315;
},
{
associatedMasterId = m01;
layerId = "80282F81-DEA5-486F-B22A-A399C3E6A20E";
name = DEMOLITION;
shapes = (
{
closed = 1;
nodes = (
(235,-160,o),
(304,-36,o),
(304,47,qs),
(304,672,l),
(117,672,l),
(117,54,ls),
(117,-61,o),
(-30,-93,q),
(32,-255,l),
(113,-238,o)
);
}
);
width = 374;
},
{
associatedMasterId = m002;
layerId = "604E078B-1ACA-437C-86FC-FF707411E8C9";
name = ExtraBold;
shapes = (
{
closed = 1;
nodes = (
(235,-160,o),
(304,-36,o),
(304,47,qs),
(304,672,l),
(117,672,l),
(117,54,ls),
(117,-61,o),
(-30,-93,q),
(32,-255,l),
(113,-238,o)
);
}
);
width = 374;
},
{
associatedMasterId = m002;
layerId = "010E8FB6-7F4A-455C-99F3-DDB203197E4C";
name = DEMOLITION;
shapes = (
{
closed = 1;
nodes = (
(149,-163,o),
(205,-51,o),
(205,34,qs),
(205,672,l),
(260,580,l),
(160,-40,ls),
(140,-160,o),
(-55,-168,q),
(-60,-130,l),
(4,-106,o)
);
}
);
width = 315;
},
{
associatedMasterId = m002;
layerId = "C26D5C73-24A9-4E26-8320-69C82ADB7F5D";
name = DEMOLITION;
shapes = (
{
closed = 1;
nodes = (
(235,-160,o),
(304,-36,o),
(304,47,qs),
(304,672,l),
(117,672,l),
(117,54,ls),
(117,-61,o),
(-30,-93,q),
(32,-255,l),
(113,-238,o)
);
}
);
width = 374;
},
{
layerId = m003;
shapes = (
{
closed = 1;
nodes = (
(149,-163,o),
(205,-51,o),
(205,34,qs),
(205,672,l),
(115,672,l),
(116,454,o),
(116,234,o),
(115,16,cs),
(116,-106,o),
(-50,-170,q),
(-11,-255,l),
(52,-232,o)
);
}
);
width = 315;
},
{
associatedMasterId = m003;
layerId = "18ABCB1A-7608-4421-BB30-561E6CA57310";
name = ExtraBold;
shapes = (
{
closed = 1;
nodes = (
(235,-160,o),
(304,-36,o),
(304,47,qs),
(304,672,l),
(117,672,l),
(117,54,ls),
(117,-61,o),
(-30,-93,q),
(32,-255,l),
(113,-238,o)
);
}
);
width = 374;
},
{
associatedMasterId = m003;
layerId = "7F83F821-95EE-4953-9769-04627AF5D393";
name = DEMOLITION;
shapes = (
{
closed = 1;
nodes = (
(235,-160,o),
(304,-36,o),
(304,47,qs),
(304,672,l),
(117,672,l),
(117,54,ls),
(117,-61,o),
(-30,-93,q),
(32,-255,l),
(113,-238,o)
);
}
);
width = 374;
}
);
note = J;
unicode = (74,106);
},
{
glyphname = K;
lastChange = "2024-11-05 08:53:36 +0000";
layers = (
{
layerId = m01;
shapes = (
{
closed = 1;
nodes = (
(490,670,l),
(338,504,o),
(194,344,o),
(110,270,c),
(110,260,l),
(134,284,o),
(156,306,o),
(180,330,c),
(180,330,o),
(190,340,o),
(190,340,c),
(190,340,o),
(180,330,o),
(200,350,c),
(370,540,o),
(420,580,o),
(480,600,c),
(486,606,o),
(496,606,o),
(510,620,c),
(514,624,o),
(520,636,o),
(520,650,cs),
(520,670,l)
);
},
{
closed = 1;
nodes = (
(130,0,o),
(120,64,o),
(120,110,cs),
(120,410,o),
(80,660,o),
(200,670,c),
(110,670,l),
(110,638,l),
(110,628,o),
(110,618,o),
(110,608,c),
(110,598,o),
(110,588,o),
(110,577,c),
(110,65,l),
(110,62,o),
(110,60,o),
(110,56,c),
(110,52,o),
(110,46,o),
(110,42,c),
(110,28,o),
(110,14,o),
(110,0,c),
(200,0,l)
);
},
{
closed = 1;
nodes = (
(350,118,o),
(280,190,o),
(210,340,c),
(200,330,o),
(200,330,o),
(200,330,c),
(268,204,o),
(356,90,o),
(490,0,c),
(500,0,l)
);
}
);
width = 672;
},
{
associatedMasterId = m01;
layerId = "C5FAC1B4-FC30-4230-AD22-0E3CA9B26410";
name = ExtraBold;
shapes = (
{
closed = 1;
nodes = (
(467,670,l),
(129,268,l),
(248,181,l),
(682,670,l)
);
},
{
closed = 1;
nodes = (
(267,670,l),
(80,670,l),
(80,0,l),
(267,0,l)
);
},
{
closed = 1;
nodes = (
(377,429,l),
(231,330,l),
(465,0,l),
(695,0,l)
);
}
);
width = 710;
},
{
layerId = m002;
shapes = (
{
closed = 1;
nodes = (
(520,670,l),
(474,330,o),
(242,482,o),
(140,270,c),
(200,160,l),
(200,230,o),
(230,270,o),
(230,270,cs),
(260,342,o),
(198,338,o),
(170,300,c),
(198,324,o),
(206,344,o),
(240,330,c),
(290,370,o),
(476,430,o),
(560,600,cs),
(570,620,o),
(570,650,o),
(580,660,cs),
(596,676,o),
(598,638,o),
(620,660,cs),
(630,670,l)
);
},
{
closed = 1;
nodes = (
(230,50,o),
(210,110,o),
(200,160,cs),
(164,338,o),
(20,514,o),
(240,670,c),
(110,670,l),
(110,638,l),
(110,628,o),
(110,618,o),
(110,608,c),
(110,598,o),
(110,588,o),
(110,577,c),
(110,65,l),
(110,62,o),
(110,60,o),
(110,56,c),
(110,52,o),
(110,46,o),
(110,42,c),
(110,28,o),
(110,14,o),
(110,0,c),
(300,0,l)
);
},
{
closed = 1;
nodes = (
(602,188,o),
(180,290,o),
(290,360,c),
(242,340,o),
(230,340,o),
(240,330,cs),
(230,340,o),
(542,124,o),
(490,0,c),
(662,0,l)
);
}
);
width = 672;
},
{
associatedMasterId = m01;
layerId = "9ED4BB16-E516-4610-B9C6-BFE4C5B1E419";
name = DEMOLITION;
shapes = (
{
closed = 1;
nodes = (
(467,670,l),
(129,268,l),
(248,181,l),
(682,670,l)
);
},
{
closed = 1;
nodes = (
(267,670,l),
(80,670,l),
(80,0,l),
(267,0,l)
);
},
{
closed = 1;
nodes = (
(377,429,l),
(231,330,l),
(465,0,l),
(695,0,l)
);
}
);
width = 710;
},
{
associatedMasterId = m002;
layerId = "D3E2D732-3176-4516-B727-476AB7D9596C";
name = ExtraBold;
shapes = (
{
closed = 1;
nodes = (
(467,670,l),
(129,268,l),
(248,181,l),
(682,670,l)
);
},
{
closed = 1;
nodes = (
(267,670,l),
(80,670,l),
(80,0,l),
(267,0,l)
);
},
{
closed = 1;
nodes = (
(377,429,l),
(231,330,l),
(465,0,l),
(695,0,l)
);
}
);
width = 710;
},
{
associatedMasterId = m002;
layerId = "D20D047E-F08A-439C-B506-76F3B70DC1EA";
name = DEMOLITION;
shapes = (
{
closed = 1;
nodes = (
(516,670,l),
(180,280,l),
(120,330,l),
(632,670,l)
);
},
{
closed = 1;
nodes = (
(-20,710,l),
(110,670,l),
(110,0,l),
(200,0,l)
);
},
{
closed = 1;
nodes = (
(240,320,l),
(290,390,l),
(537,0,l),
(662,0,l)
);
}
);
width = 672;
},
{
associatedMasterId = m002;
layerId = "6FFA63D7-9422-470F-85C2-F8DE3D34C2D9";
name = DEMOLITION;
shapes = (
{
closed = 1;
nodes = (
(467,670,l),
(129,268,l),
(248,181,l),
(682,670,l)
);
},
{
closed = 1;
nodes = (
(267,670,l),
(80,670,l),
(80,0,l),
(267,0,l)
);
},
{
closed = 1;
nodes = (
(377,429,l),
(231,330,l),
(465,0,l),
(695,0,l)
);
}
);
width = 710;
},
{
layerId = m003;
shapes = (
{
closed = 1;
nodes = (
(516,670,l),
(390,536,o),
(264,402,o),
(139,268,c),
(170,190,l),
(194,214,o),
(216,236,o),
(240,260,c),
(244,264,o),
(250,270,o),
(250,270,c),
(250,270,o),
(258,278,o),
(260,280,c),
(362,386,o),
(458,494,o),
(560,600,c),
(570,610,o),
(580,620,o),
(590,630,c),
(598,638,o),
(604,644,o),
(610,650,c),
(632,670,l)
);
},
{
closed = 1;
nodes = (
(200,47,o),
(200,94,o),
(200,141,cs),
(200,317,o),
(200,493,o),
(200,670,c),
(110,670,l),
(110,638,l),
(110,628,o),
(110,618,o),
(110,608,c),
(110,598,o),
(110,588,o),
(110,577,c),
(110,65,l),
(110,62,o),
(110,60,o),
(110,56,c),
(110,52,o),
(110,46,o),
(110,42,c),
(110,28,o),
(110,14,o),
(110,0,c),
(200,0,l)
);
},
{
closed = 1;
nodes = (
(548,132,o),
(434,266,o),
(319,398,c),
(296,376,o),
(274,352,o),
(251,329,c),
(346,220,o),
(442,110,o),
(537,0,c),
(662,0,l)
);
}
);
width = 672;
},
{
associatedMasterId = m003;
layerId = "4E7C3CC7-6A3C-4175-8B90-3B92F265F7F6";
name = ExtraBold;
shapes = (
{
closed = 1;
nodes = (
(467,670,l),
(129,268,l),
(248,181,l),
(682,670,l)
);
},
{
closed = 1;
nodes = (
(267,670,l),
(80,670,l),
(80,0,l),
(267,0,l)
);
},
{
closed = 1;
nodes = (
(377,429,l),
(231,330,l),
(465,0,l),
(695,0,l)
);
}
);
width = 710;
},
{
associatedMasterId = m003;
layerId = "6110CB2C-0AAC-4F91-91F4-A2E39939ABF4";
name = DEMOLITION;
shapes = (
{
closed = 1;
nodes = (
(467,670,l),
(129,268,l),
(248,181,l),
(682,670,l)
);
},
{
closed = 1;
nodes = (
(267,670,l),
(80,670,l),
(80,0,l),
(267,0,l)
);
},
{
closed = 1;
nodes = (
(377,429,l),
(231,330,l),
(465,0,l),
(695,0,l)
);
}
);
width = 710;
}
);
note = K;
unicode = (75,107);
},
{
glyphname = L;
lastChange = "2024-11-05 08:28:03 +0000";
layers = (
{
layerId = m01;
shapes = (
{
closed = 1;
nodes = (
(570,12,o),
(570,-6,o),
(570,10,c),
(570,20,l),
(540,20,l),
(530,20,o),
(520,20,o),
(510,20,c),
(406,-2,o),
(152,-4,o),
(140,100,cs),
(130,180,o),
(102,68,o),
(120,520,c),
(120,542,o),
(120,564,o),
(120,590,c),
(120,594,o),
(120,602,o),
(120,610,c),
(120,630,o),
(120,650,o),
(120,670,c),
(110,670,l),
(110,664,o),
(110,656,o),
(110,650,c),
(110,636,o),
(110,624,o),
(110,610,c),
(110,596,o),
(110,584,o),
(110,570,c),
(110,120,l),
(110,110,o),
(110,96,o),
(110,80,c),
(110,68,o),
(110,54,o),
(110,40,c),
(110,0,l),
(570,0,l)
);
}
);
width = 614;
},
{
associatedMasterId = m01;
layerId = "C5FAC1B4-FC30-4230-AD22-0E3CA9B26410";
name = ExtraBold;
shapes = (
{
closed = 1;
nodes = (
(558,165,l),
(267,165,l),
(267,670,l),
(80,670,l),
(80,0,l),
(558,0,l)
);
}
);
width = 618;
},
{
layerId = m002;
shapes = (
{
closed = 1;
nodes = (
(570,38,o),
(570,110,o),
(570,110,cs),
(570,190,l),
(560,140,ls),
(556,120,o),
(524,66,o),
(470,40,cs),
(430,20,o),
(140,-48,o),
(140,80,cs),
(140,158,o),
(390,280,o),
(170,530,cs),
(154,548,o),
(150,590,o),
(160,600,c),
(190,510,o),
(280,710,o),
(390,620,c),
(288,708,o),
(266,618,o),
(200,640,cs),
(110,670,l),
(148,646,o),
(174,606,o),
(170,590,c),
(120,692,o),
(110,628,o),
(110,550,cs),
(110,536,o),
(110,494,o),
(110,480,c),
(110,150,ls),
(110,70,o),
(130,30,o),
(180,10,c),
(150,10,o),
(130,30,o),
(110,70,c),
(110,0,l),
(570,0,l)
);
}
);
width = 614;
},
{
associatedMasterId = m01;
layerId = "BEE96D66-B142-4D63-82F3-147308BE1888";
name = DEMOLITION;
shapes = (
{
closed = 1;
nodes = (
(558,165,l),
(267,165,l),
(267,670,l),
(80,670,l),
(80,0,l),
(558,0,l)
);
}
);
width = 618;
},
{
associatedMasterId = m002;
layerId = "466F2A13-CDB9-4BD0-882D-34598AA5DD1B";
name = ExtraBold;
shapes = (
{
closed = 1;
nodes = (
(558,165,l),
(267,165,l),
(267,670,l),
(80,670,l),
(80,0,l),
(558,0,l)
);
}
);
width = 618;
},
{
associatedMasterId = m002;
layerId = "F2FE9AD6-8924-4886-8BC4-CC99D054759B";
name = DEMOLITION;
shapes = (
{
closed = 1;
nodes = (
(570,0,l),
(200,85,l),
(120,670,l),
(230,670,l),
(110,0,l),
(570,90,l)
);
}
);
width = 614;
},
{
associatedMasterId = m002;
layerId = "AF90C418-89E0-4B3F-80D7-7E96A5FF0385";
name = DEMOLITION;
shapes = (
{
closed = 1;
nodes = (
(558,165,l),
(267,165,l),
(267,670,l),
(80,670,l),
(80,0,l),
(558,0,l)
);
}
);
width = 618;
},
{
layerId = m003;
shapes = (
{
closed = 1;
nodes = (
(570,12,o),
(570,24,o),
(569,35,c),
(570,90,l),
(540,90,l),
(530,90,o),
(520,90,o),
(510,90,c),
(406,92,o),
(304,92,o),
(200,90,c),
(200,236,o),
(200,376,o),
(200,520,c),
(200,542,o),
(200,564,o),
(200,585,c),
(200,594,o),
(200,602,o),
(200,609,c),
(200,630,o),
(200,650,o),
(200,670,c),
(110,670,l),
(110,664,o),
(110,656,o),
(110,649,c),
(110,636,o),
(110,624,o),
(110,610,c),
(110,596,o),
(110,584,o),
(110,570,c),
(110,124,l),
(110,110,o),
(110,96,o),
(110,81,c),
(110,68,o),
(110,54,o),
(110,41,c),
(110,0,l),
(569,0,l)
);
}
);
width = 614;
},
{
associatedMasterId = m003;
layerId = "482551B2-2889-46E4-9DD3-FE078A13A83F";
name = ExtraBold;
shapes = (
{
closed = 1;
nodes = (
(558,165,l),
(267,165,l),
(267,670,l),
(80,670,l),
(80,0,l),
(558,0,l)
);
}
);
width = 618;
},
{
associatedMasterId = m003;
layerId = "A0CE188A-B21F-44F6-AF05-12911A0ABB7B";
name = DEMOLITION;
shapes = (
{
closed = 1;
nodes = (
(558,165,l),
(267,165,l),
(267,670,l),
(80,670,l),
(80,0,l),
(558,0,l)
);
}
);
width = 618;
}
);
note = L;
unicode = (76,108);
},
{
glyphname = M;
lastChange = "2024-11-05 08:53:21 +0000";
layers = (
{
layerId = m01;
shapes = (
{
closed = 1;
nodes = (
(200,400,o),
(98,472,o),
(130,660,c),
(200,588,o),
(340,334,o),
(410,260,c),
(418,260,o),
(432,260,o),
(440,260,c),
(520,250,o),
(640,622,o),
(720,660,c),
(730,496,o),
(730,156,o),
(710,0,c),
(730,0,l),
(730,48,o),
(730,82,o),
(730,120,cs),
(730,130,o),
(730,142,o),
(730,150,cs),
(730,326,o),
(732,494,o),
(730,670,c),
(722,670,o),
(720,670,o),
(710,670,c),
(690,650,l),
(690,650,o),
(686,646,o),
(680,640,c),
(674,634,o),
(670,630,o),
(660,620,c),
(420,260,l),
(324,364,o),
(234,568,o),
(138,670,c),
(110,670,l),
(110,662,o),
(110,652,o),
(110,644,c),
(110,640,o),
(110,634,o),
(110,629,c),
(110,620,o),
(110,612,o),
(110,604,c),
(110,418,o),
(110,234,o),
(110,48,cs),
(110,32,o),
(110,16,o),
(110,0,c),
(130,0,l)
);
}
);
width = 843;
},
{
associatedMasterId = m01;
layerId = "C5FAC1B4-FC30-4230-AD22-0E3CA9B26410";
name = ExtraBold;
shapes = (
{
closed = 1;
nodes = (
(267,330,l),
(404,175,l),
(460,175,l),
(597,330,l),
(597,0,l),
(784,0,l),
(784,680,l),
(718,680,l),
(432,390,l),
(146,680,l),
(80,680,l),
(80,0,l),
(267,0,l)
);
}
);
width = 864;
},
{
layerId = m002;
shapes = (
{
closed = 1;
nodes = (
(458,-26,o),
(152,380,o),
(190,540,c),
(420,398,o),
(370,342,o),
(370,260,cs),
(370,234,o),
(424,204,o),
(420,230,cs),
(394,374,o),
(644,614,o),
(650,540,cs),
(660,386,o),
(382,0,o),
(760,0,cs),
(810,0,l),
(920,10,o),
(830,90,o),
(750,40,cs),
(632,-30,o),
(630,80,o),
(630,80,cs),
(630,154,o),
(886,298,o),
(750,570,cs),
(720,630,o),
(710,640,o),
(700,650,c),
(630,570,l),
(630,600,o),
(694,664,o),
(710,680,c),
(700,680,o),
(670,680,o),
(670,680,c),
(410,330,l),
(344,440,o),
(262,568,o),
(140,670,c),
(100,670,l),
(120,660,o),
(182,574,o),
(180,560,c),
(182,562,o),
(112,636,o),
(110,630,c),
(112,622,o),
(112,614,o),
(110,600,c),
(300,270,o),
(182,68,o),
(170,160,cs),
(140,400,o),
(50,60,o),
(50,0,c),
(140,0,l)
);
}
);
width = 843;
},
{
associatedMasterId = m01;
layerId = "DBE1E299-5399-4231-9D0B-FFB617DBDE2B";
name = DEMOLITION;
shapes = (
{
closed = 1;
nodes = (
(267,330,l),
(404,175,l),
(460,175,l),
(597,330,l),
(597,0,l),
(784,0,l),
(784,680,l),
(718,680,l),
(432,390,l),
(146,680,l),
(80,680,l),
(80,0,l),
(267,0,l)
);
}
);
width = 864;
},
{
associatedMasterId = m002;
layerId = "53E0C1A6-7DDE-4132-8663-56457DC87F40";
name = ExtraBold;
shapes = (
{
closed = 1;
nodes = (
(267,330,l),
(404,175,l),
(460,175,l),
(597,330,l),
(597,0,l),
(784,0,l),
(784,680,l),
(718,680,l),
(432,390,l),
(146,680,l),
(80,680,l),
(80,0,l),
(267,0,l)
);
}
);
width = 864;
},
{
associatedMasterId = m002;
layerId = "1F79730E-3819-4D99-9720-29242D1F35D1";
name = DEMOLITION;
shapes = (
{
closed = 1;
nodes = (
(200,485,l),
(410,350,l),
(440,350,l),
(643,485,l),
(730,0,l),
(620,0,l),
(730,670,l),
(705,670,l),
(420,250,l),
(138,670,l),
(110,670,l),
(230,0,l),
(120,0,l)
);
}
);
width = 843;
},
{
associatedMasterId = m002;
layerId = "9E5EC8FB-1F38-4804-B165-D463595B3A8A";
name = DEMOLITION;
shapes = (
{
closed = 1;
nodes = (
(267,330,l),
(404,175,l),
(460,175,l),
(597,330,l),
(597,0,l),
(784,0,l),
(784,680,l),
(718,680,l),
(432,390,l),
(146,680,l),
(80,680,l),
(80,0,l),
(267,0,l)
);
}
);
width = 864;
},
{
layerId = m003;
shapes = (
{
closed = 1;
nodes = (
(200,162,o),
(200,324,o),
(200,485,c),
(270,412,o),
(340,334,o),
(410,260,c),
(418,260,o),
(432,260,o),
(440,260,c),
(510,334,o),
(572,418,o),
(640,490,c),
(642,330,o),
(642,162,o),
(640,0,c),
(730,0,l),
(730,48,o),
(730,82,o),
(730,120,cs),
(730,130,o),
(730,142,o),
(730,150,cs),
(730,326,o),
(732,494,o),
(730,670,c),
(722,670,o),
(720,670,o),
(710,670,c),
(690,650,l),
(690,650,o),
(686,646,o),
(680,640,c),
(674,634,o),
(670,630,o),
(660,620,c),
(424,363,l),
(328,466,o),
(234,568,o),
(138,670,c),
(110,670,l),
(110,662,o),
(110,652,o),
(110,644,c),
(110,640,o),
(110,634,o),
(110,629,c),
(110,620,o),
(110,612,o),
(110,604,c),
(110,418,o),
(110,234,o),
(110,48,cs),
(110,32,o),
(110,16,o),
(110,0,c),
(200,0,l)
);
}
);
width = 843;
},
{
associatedMasterId = m003;
layerId = "2BC8519A-4A9C-4478-9996-152CE683320A";
name = ExtraBold;
shapes = (
{
closed = 1;
nodes = (
(267,330,l),
(404,175,l),
(460,175,l),
(597,330,l),
(597,0,l),
(784,0,l),
(784,680,l),
(718,680,l),
(432,390,l),
(146,680,l),
(80,680,l),
(80,0,l),
(267,0,l)
);
}
);
width = 864;
},
{
associatedMasterId = m003;
layerId = "19BB1EC8-93A6-4B1C-B8FD-40C9113EFECE";
name = DEMOLITION;
shapes = (
{
closed = 1;
nodes = (
(267,330,l),
(404,175,l),
(460,175,l),
(597,330,l),
(597,0,l),
(784,0,l),
(784,680,l),
(718,680,l),
(432,390,l),
(146,680,l),
(80,680,l),
(80,0,l),
(267,0,l)
);
}
);
width = 864;
}
);
note = M;
unicode = (77,109);
},
{
glyphname = N;
lastChange = "2024-11-05 08:56:17 +0000";
layers = (
{
layerId = m01;
shapes = (
{
closed = 1;
nodes = (
(670,57,o),
(670,113,o),
(670,170,cs),
(670,336,o),
(670,503,o),
(670,670,c),
(650,670,l),
(670,530,o),
(660,314,o),
(660,180,c),
(660,160,l),
(660,154,o),
(660,146,o),
(660,140,c),
(660,126,o),
(660,170,o),
(660,110,cs),
(660,-162,o),
(458,434,o),
(140,670,c),
(110,670,l),
(110,662,o),
(110,654,o),
(110,650,c),
(110,640,o),
(110,632,o),
(110,630,c),
(110,614,o),
(110,602,o),
(110,590,c),
(110,394,o),
(110,198,o),
(110,0,c),
(140,0,o),
(110,0,o),
(140,0,c),
(148,116,o),
(96,440,o),
(130,650,c),
(130,610,ls),
(130,600,o),
(132,560,o),
(150,590,cs),
(162,610,o),
(158,620,o),
(160,620,c),
(322,502,o),
(520,174,o),
(640,0,c),
(670,0,l)
);
}
);
width = 779;
},
{
associatedMasterId = m01;
layerId = "C5FAC1B4-FC30-4230-AD22-0E3CA9B26410";
name = ExtraBold;
shapes = (
{
closed = 1;
nodes = (
(692,670,l),
(505,670,l),
(505,345,l),
(146,680,l),
(80,680,l),
(80,0,l),
(267,0,l),
(267,319,l),
(626,-10,l),
(692,-10,l)
);
}
);
width = 772;
},
{
layerId = m002;
shapes = (
{
closed = 1;
nodes = (
(726,0,o),
(524,268,o),
(590,370,cs),
(680,510,o),
(700,550,o),
(700,670,c),
(500,670,l),
(848,610,o),
(506,542,o),
(550,370,cs),
(580,250,ls),
(594,194,o),
(618,116,o),
(580,80,c),
(580,66,o),
(600,80,o),
(570,210,cs),
(416,872,o),
(536,-150,o),
(140,670,c),
(110,670,l),
(110,662,o),
(110,654,o),
(110,650,c),
(110,640,o),
(110,632,o),
(110,630,c),
(110,614,o),
(110,602,o),
(110,590,c),
(110,394,o),
(110,198,o),
(110,0,c),
(140,0,o),
(310,0,o),
(340,0,c),
(120,140,o),
(156,270,o),
(180,440,c),
(210,350,ls),
(236,272,o),
(334,232,o),
(410,320,cs),
(420,330,o),
(460,400,o),
(500,330,c),
(570,230,o),
(590,60,o),
(520,0,c),
(700,0,ls)
);
}
);
width = 779;
},
{
associatedMasterId = m01;
layerId = "924A4BF4-0003-4C4F-A74B-57456BDBB9DC";
name = DEMOLITION;
shapes = (
{
closed = 1;
nodes = (
(692,670,l),
(505,670,l),
(505,345,l),
(146,680,l),
(80,680,l),
(80,0,l),
(267,0,l),
(267,319,l),
(626,-10,l),
(692,-10,l)
);
}
);
width = 772;
},
{
associatedMasterId = m002;
layerId = "55DCD20C-809C-4AE7-91FC-FC4F5BC313F9";
name = ExtraBold;
shapes = (
{
closed = 1;
nodes = (
(692,670,l),
(505,670,l),
(505,345,l),
(146,680,l),
(80,680,l),
(80,0,l),
(267,0,l),
(267,319,l),
(626,-10,l),
(692,-10,l)
);
}
);
width = 772;
},
{
associatedMasterId = m002;
layerId = "B4BEAC53-183D-4893-A14F-B8882230F7C3";
name = DEMOLITION;
shapes = (
{
closed = 1;
nodes = (
(200,479,l),
(690,160,l),
(640,370,l),
(570,670,l),
(660,670,l),
(540,10,l),
(144,670,l),
(110,670,l),
(110,0,l),
(0,0,l)
);
}
);
width = 779;
},
{
associatedMasterId = m002;
layerId = "1109D1D3-4651-4448-9FED-85C9959D6943";
name = DEMOLITION;
shapes = (
{
closed = 1;
nodes = (
(692,670,l),
(505,670,l),
(505,345,l),
(146,680,l),
(80,680,l),
(80,0,l),
(267,0,l),
(267,319,l),
(626,-10,l),
(692,-10,l)
);
}
);
width = 772;
},
{
layerId = m003;
shapes = (
{
closed = 1;
nodes = (
(670,57,o),
(670,113,o),
(670,170,cs),
(670,336,o),
(670,503,o),
(670,670,c),
(580,670,l),
(580,536,o),
(580,404,o),
(580,270,c),
(580,250,l),
(580,244,o),
(580,236,o),
(580,230,c),
(580,216,o),
(580,200,o),
(580,190,c),
(434,346,o),
(290,508,o),
(140,670,c),
(110,670,l),
(110,662,o),
(110,654,o),
(110,650,c),
(110,640,o),
(110,632,o),
(110,630,c),
(110,614,o),
(110,602,o),
(110,590,c),
(110,394,o),
(110,198,o),
(110,0,c),
(140,0,o),
(170,0,o),
(200,0,c),
(200,160,o),
(200,320,o),
(200,480,c),
(210,470,l),
(216,462,o),
(218,458,o),
(220,460,c),
(226,452,o),
(228,450,o),
(230,450,c),
(366,298,o),
(500,148,o),
(640,0,c),
(670,0,l)
);
}
);
width = 779;
},
{
associatedMasterId = m003;
layerId = "893E8BDD-C977-49E9-AA5B-DEA7AF9138B3";
name = ExtraBold;
shapes = (
{
closed = 1;
nodes = (
(692,670,l),
(505,670,l),
(505,345,l),
(146,680,l),
(80,680,l),
(80,0,l),
(267,0,l),
(267,319,l),
(626,-10,l),
(692,-10,l)
);
}
);
width = 772;
},
{
associatedMasterId = m003;
layerId = "AA7902E0-12AE-4D52-89E5-7A240A1A9CF7";
name = DEMOLITION;
shapes = (
{
closed = 1;
nodes = (
(692,670,l),
(505,670,l),
(505,345,l),
(146,680,l),
(80,680,l),
(80,0,l),
(267,0,l),
(267,319,l),
(626,-10,l),
(692,-10,l)
);
}
);
width = 772;
}
);
note = N;
unicode = (78,110);
},
{
glyphname = O;
lastChange = "2024-11-05 08:28:03 +0000";
layers = (
{
layerId = m01;
shapes = (
{
closed = 1;
nodes = (
(608,40,o),
(704,136,o),
(756,264,o),
(760,340,qs),
(756,408,o),
(704,534,o),
(608,630,o),
(480,686,o),
(400,690,qs),
(328,686,o),
(200,630,o),
(104,534,o),
(50,408,o),
(50,340,qs),
(50,264,o),
(104,136,o),
(200,40,o),
(328,-14,o),
(400,-10,qs),
(480,-14,o)
);
},
{
closed = 1;
nodes = (
(192,290,o),
(62,260,o),
(60,340,qs),
(62,410,o),
(140,590,o),
(328,678,o),
(400,680,qs),
(478,678,o),
(660,590,o),
(754,410,o),
(750,340,qs),
(754,260,o),
(650,80,o),
(508,0,o),
(430,0,qs),
(222,-2,o),
(190,140,qs)
);
}
);
width = 806;
},
{
associatedMasterId = m01;
layerId = "C5FAC1B4-FC30-4230-AD22-0E3CA9B26410";
name = ExtraBold;
shapes = (
{
closed = 1;
nodes = (
(581,32,o),
(679,122,o),
(736,252,o),
(736,335,qs),
(736,418,o),
(679,548,o),
(581,638,o),
(456,685,o),
(388,685,qs),
(320,685,o),
(195,638,o),
(97,548,o),
(40,418,o),
(40,335,qs),
(40,252,o),
(97,122,o),
(195,32,o),
(320,-15,o),
(388,-15,qs),
(456,-15,o)
);
},
{
closed = 1;
nodes = (
(272.679,206.123,o),
(232,285,o),
(232,334.907,qs),
(232,384.814,o),
(273,464,o),
(343,510,o),
(388.056,510,qs),
(433.112,510,o),
(504,464,o),
(544,385,o),
(544,334.907,qs),
(544,284.813,o),
(504,206,o),
(433,160,o),
(388.134,160,qs),
(343.268,160,o)
);
}
);
width = 776;
},
{
layerId = m002;
shapes = (
{
closed = 1;
nodes = (
(607,40,o),
(703,136,o),
(756,263,o),
(756,335,qs),
(756,407,o),
(703,534,o),
(607,630,o),
(480,686,o),
(403,685,qs),
(328,686,o),
(199,630,o),
(103,534,o),
(50,407,o),
(50,335,qs),
(50,263,o),
(103,136,o),
(199,40,o),
(324,-10,o),
(400,-10,qs),
(476,-10,o)
);
},
{
closed = 1;
nodes = (
(70,150,o),
(300,118,o),
(260,180,qs),
(150,350,o),
(180,590,o),
(340,690,o),
(380,640,qs),
(458,542,o),
(596,529,o),
(740,490,o),
(750,350,qs),
(758,250,o),
(650,70,o),
(462,106,o),
(400,70,qs),
(276,-2,o),
(220,40,qs)
);
}
);
width = 806;
},
{
associatedMasterId = m01;
layerId = "9EA474A2-6ED2-4242-96FB-C1CB7C66C784";
name = DEMOLITION;
shapes = (
{
closed = 1;
nodes = (
(581,32,o),
(679,122,o),
(736,252,o),
(736,335,qs),
(736,418,o),
(679,548,o),
(581,638,o),
(456,685,o),
(388,685,qs),
(320,685,o),
(195,638,o),
(97,548,o),
(40,418,o),
(40,335,qs),
(40,252,o),
(97,122,o),
(195,32,o),
(320,-15,o),
(388,-15,qs),
(456,-15,o)
);
},
{
closed = 1;
nodes = (
(272.679,206.123,o),
(232,285,o),
(232,334.907,qs),
(232,384.814,o),
(273,464,o),
(343,510,o),
(388.056,510,qs),
(433.112,510,o),
(504,464,o),
(544,385,o),
(544,334.907,qs),
(544,284.813,o),
(504,206,o),
(433,160,o),
(388.134,160,qs),
(343.268,160,o)
);
}
);
width = 776;
},
{
associatedMasterId = m002;
layerId = "3195AC05-8261-48A2-8E53-856B176EA91F";
name = ExtraBold;
shapes = (
{
closed = 1;
nodes = (
(581,32,o),
(679,122,o),
(736,252,o),
(736,335,qs),
(736,418,o),
(679,548,o),
(581,638,o),
(456,685,o),
(388,685,qs),
(320,685,o),
(195,638,o),
(97,548,o),
(40,418,o),
(40,335,qs),
(40,252,o),
(97,122,o),
(195,32,o),
(320,-15,o),
(388,-15,qs),
(456,-15,o)
);
},
{
closed = 1;
nodes = (
(272.679,206.123,o),
(232,285,o),
(232,334.907,qs),
(232,384.814,o),
(273,464,o),
(343,510,o),
(388.056,510,qs),
(433.112,510,o),
(504,464,o),
(544,385,o),
(544,334.907,qs),
(544,284.813,o),
(504,206,o),
(433,160,o),
(388.134,160,qs),
(343.268,160,o)
);
}
);
width = 776;
},
{
associatedMasterId = m002;
layerId = "C91DC292-3483-4E8F-A38C-B45D8F48F2D0";
name = DEMOLITION;
shapes = (
{
closed = 1;
nodes = (
(608,40,o),
(704,136,o),
(686,254,o),
(690,330,qs),
(686,398,o),
(620,490,o),
(530,540,o),
(480,686,o),
(400,690,q),
(328,686,o),
(200,570,o),
(170,530,o),
(110,402,o),
(110,330,qs),
(110,258,o),
(104,136,o),
(200,40,o),
(334,40,o),
(410,40,qs),
(486,40,o)
);
},
{
closed = 1;
nodes = (
(170,90,o),
(80,252,o),
(80,330,qs),
(80,402,o),
(210,529,o),
(326,710,o),
(400,710,qs),
(476,710,o),
(596,529,o),
(720,406,o),
(720,330,qs),
(720,256,o),
(630,100,o),
(484,6,o),
(410,10,qs),
(334,6,o)
);
}
);
width = 806;
},
{
associatedMasterId = m002;
layerId = "ADFBC3AF-4997-4BBD-A225-10F26DC05FDA";
name = DEMOLITION;
shapes = (
{
closed = 1;
nodes = (
(581,32,o),
(679,122,o),
(736,252,o),
(736,335,qs),
(736,418,o),
(679,548,o),
(581,638,o),
(456,685,o),
(388,685,qs),
(320,685,o),
(195,638,o),
(97,548,o),
(40,418,o),
(40,335,qs),
(40,252,o),
(97,122,o),
(195,32,o),
(320,-15,o),
(388,-15,qs),
(456,-15,o)
);
},
{
closed = 1;
nodes = (
(272.679,206.123,o),
(232,285,o),
(232,334.907,qs),
(232,384.814,o),
(273,464,o),
(343,510,o),
(388.056,510,qs),
(433.112,510,o),
(504,464,o),
(544,385,o),
(544,334.907,qs),
(544,284.813,o),
(504,206,o),
(433,160,o),
(388.134,160,qs),
(343.268,160,o)
);
}
);
width = 776;
},
{
layerId = m003;
shapes = (
{
closed = 1;
nodes = (
(608,40,o),
(704,136,o),
(756,264,o),
(760,340,qs),
(756,408,o),
(704,534,o),
(608,630,o),
(480,686,o),
(400,690,qs),
(328,686,o),
(200,630,o),
(104,534,o),
(50,408,o),
(50,340,qs),
(50,264,o),
(104,136,o),
(200,40,o),
(328,-14,o),
(400,-10,qs),
(480,-14,o)
);
},
{
closed = 1;
nodes = (
(205,157,o),
(142,260,o),
(140,340,qs),
(142,410,o),
(210,530,o),
(328,598,o),
(400,600,qs),
(478,598,o),
(596,530,o),
(664,410,o),
(660,340,qs),
(664,260,o),
(596,142,o),
(478,74,o),
(400,70,qs),
(301,76,o),
(231,134,qs)
);
}
);
width = 806;
},
{
associatedMasterId = m003;
layerId = "AD79B935-1D4E-4384-89A7-68D22A1136B1";
name = ExtraBold;
shapes = (
{
closed = 1;
nodes = (
(581,32,o),
(679,122,o),
(736,252,o),
(736,335,qs),
(736,418,o),
(679,548,o),
(581,638,o),
(456,685,o),
(388,685,qs),
(320,685,o),
(195,638,o),
(97,548,o),
(40,418,o),
(40,335,qs),
(40,252,o),
(97,122,o),
(195,32,o),
(320,-15,o),
(388,-15,qs),
(456,-15,o)
);
},
{
closed = 1;
nodes = (
(272.679,206.123,o),
(232,285,o),
(232,334.907,qs),
(232,384.814,o),
(273,464,o),
(343,510,o),
(388.056,510,qs),
(433.112,510,o),
(504,464,o),
(544,385,o),
(544,334.907,qs),
(544,284.813,o),
(504,206,o),
(433,160,o),
(388.134,160,qs),
(343.268,160,o)
);
}
);
width = 776;
},
{
associatedMasterId = m003;
layerId = "55B52FFE-7264-4464-A8EA-791629B962A0";
name = DEMOLITION;
shapes = (
{
closed = 1;
nodes = (
(581,32,o),
(679,122,o),
(736,252,o),
(736,335,qs),
(736,418,o),
(679,548,o),
(581,638,o),
(456,685,o),
(388,685,qs),
(320,685,o),
(195,638,o),
(97,548,o),
(40,418,o),
(40,335,qs),
(40,252,o),
(97,122,o),
(195,32,o),
(320,-15,o),
(388,-15,qs),
(456,-15,o)
);
},
{
closed = 1;
nodes = (
(272.679,206.123,o),
(232,285,o),
(232,334.907,qs),
(232,384.814,o),
(273,464,o),
(343,510,o),
(388.056,510,qs),
(433.112,510,o),
(504,464,o),
(544,385,o),
(544,334.907,qs),
(544,284.813,o),
(504,206,o),
(433,160,o),
(388.134,160,qs),
(343.268,160,o)
);
}
);
width = 776;
}
);
note = O;
unicode = (79,111);
},
{
glyphname = P;
lastChange = "2024-11-05 08:56:47 +0000";
layers = (
{
layerId = m01;
shapes = (
{
closed = 1;
nodes = (
(114,164,o),
(110,366,o),
(120,530,c),
(120,564,o),
(120,628,o),
(120,660,c),
(170,662,o),
(300,662,o),
(350,660,cs),
(394,660,o),
(530,600,o),
(600,464,o),
(600,420,qs),
(600,350,o),
(440,194,o),
(360,240,qs),
(290,280,o),
(214,258,o),
(190,270,q),
(190,240,o),
(190,278,o),
(190,250,c),
(216,238,o),
(304,210,o),
(360,210,qs),
(432,210,o),
(544,267,o),
(610,370,o),
(610,439,qs),
(610,491,o),
(570,576,o),
(503,637,o),
(420,670,o),
(377,670,qs),
(110,670,l),
(110,41,l),
(110,28,o),
(110,14,o),
(110,0,c),
(120,0,l)
);
}
);
width = 660;
},
{
associatedMasterId = m01;
layerId = "C5FAC1B4-FC30-4230-AD22-0E3CA9B26410";
name = ExtraBold;
shapes = (
{
closed = 1;
nodes = (
(257,495,l),
(335,495,ls),
(365,495,o),
(411,477,o),
(438,435,o),
(438,397,qs),
(438,354,o),
(379,296,o),
(335,296,qs),
(306,296,o),
(255,309,o),
(235,318,q),
(235,171,l),
(258,155,o),
(328,141,o),
(377,141,qs),
(442,141,o),
(558,204,o),
(630,320,o),
(630,397,qs),
(630,464,o),
(583,566,o),
(505,635,o),
(408,670,o),
(357,670,qs),
(70,670,l),
(70,0,l),
(257,0,l)
);
}
);
width = 660;
},
{
layerId = m002;
shapes = (
{
closed = 1;
nodes = (
(326,0,o),
(120,222,o),
(200,390,cs),
(250,494,o),
(150,520,o),
(130,580,cs),
(72,752,o),
(220,580,o),
(360,650,cs),
(420,680,o),
(570,580,o),
(484,476,o),
(510,430,qs),
(590,290,o),
(400,250,o),
(450,420,qs),
(458,450,o),
(260,240,o),
(220,360,q),
(206,332,o),
(208,298,o),
(230,260,c),
(280,204,o),
(440,450,o),
(400,300,qs),
(388,252,o),
(510,250,o),
(580,350,o),
(580,420,qs),
(580,474,o),
(560,576,o),
(504,638,o),
(420,670,o),
(380,670,qs),
(110,670,l),
(110,90,ls),
(110,20,o),
(100,10,o),
(80,0,c),
(210,0,ls)
);
}
);
width = 660;
},
{
associatedMasterId = m01;
layerId = "D917B961-BDB9-4A51-A5CA-CDDDB99A3824";
name = DEMOLITION;
shapes = (
{
closed = 1;
nodes = (
(257,495,l),
(335,495,ls),
(365,495,o),
(411,477,o),
(438,435,o),
(438,397,qs),
(438,354,o),
(379,296,o),
(335,296,qs),
(306,296,o),
(255,309,o),
(235,318,q),
(235,171,l),
(258,155,o),
(328,141,o),
(377,141,qs),
(442,141,o),
(558,204,o),
(630,320,o),
(630,397,qs),
(630,464,o),
(583,566,o),
(505,635,o),
(408,670,o),
(357,670,qs),
(70,670,l),
(70,0,l),
(257,0,l)
);
}
);
width = 660;
},
{
associatedMasterId = m002;
layerId = "332870CD-94DD-479E-8AE8-364826A9F544";
name = ExtraBold;
shapes = (
{
closed = 1;
nodes = (
(257,495,l),
(335,495,ls),
(365,495,o),
(411,477,o),
(438,435,o),
(438,397,qs),
(438,354,o),
(379,296,o),
(335,296,qs),
(306,296,o),
(255,309,o),
(235,318,q),
(235,171,l),
(258,155,o),
(328,141,o),
(377,141,qs),
(442,141,o),
(558,204,o),
(630,320,o),
(630,397,qs),
(630,464,o),
(583,566,o),
(505,635,o),
(408,670,o),
(357,670,qs),
(70,670,l),
(70,0,l),
(257,0,l)
);
}
);
width = 660;
},
{
associatedMasterId = m002;
layerId = "E63E4DFD-4D39-4936-99C4-8C14605F3CB8";
name = DEMOLITION;
shapes = (
{
closed = 1;
nodes = (
(200,585,l),
(350,590,ls),
(396,586,o),
(540,510,o),
(580,324,o),
(580,280,qs),
(580,210,o),
(435,292,o),
(359,292,qs),
(308,292,o),
(212,317,o),
(188,330,q),
(190,420,l),
(214,406,o),
(304,209,o),
(362,209,qs),
(431,209,o),
(544,267,o),
(610,370,o),
(610,440,qs),
(610,492,o),
(570,576,o),
(504,638,o),
(420,670,o),
(380,670,qs),
(110,670,l),
(220,0,l),
(110,0,l)
);
}
);
width = 660;
},
{
associatedMasterId = m002;
layerId = "E8CDE7E8-437B-4011-BDE7-A6ADCB822320";
name = DEMOLITION;
shapes = (
{
closed = 1;
nodes = (
(257,495,l),
(335,495,ls),
(365,495,o),
(411,477,o),
(438,435,o),
(438,397,qs),
(438,354,o),
(379,296,o),
(335,296,qs),
(306,296,o),
(255,309,o),
(235,318,q),
(235,171,l),
(258,155,o),
(328,141,o),
(377,141,qs),
(442,141,o),
(558,204,o),
(630,320,o),
(630,397,qs),
(630,464,o),
(583,566,o),
(505,635,o),
(408,670,o),
(357,670,qs),
(70,670,l),
(70,0,l),
(257,0,l)
);
}
);
width = 660;
},
{
layerId = m003;
shapes = (
{
closed = 1;
nodes = (
(200,164,o),
(200,328,o),
(200,493,c),
(200,526,o),
(200,558,o),
(200,590,c),
(250,592,o),
(300,592,o),
(350,590,cs),
(394,590,o),
(471,547,o),
(518,482,o),
(518,439,qs),
(518,368,o),
(435,292,o),
(359,292,qs),
(308,292,o),
(212,317,o),
(188,330,q),
(190,300,o),
(190,278,o),
(190,250,c),
(216,238,o),
(304,209,o),
(362,209,qs),
(431,209,o),
(544,267,o),
(610,370,o),
(610,439,qs),
(610,491,o),
(570,576,o),
(503,637,o),
(420,670,o),
(377,670,qs),
(110,670,l),
(110,41,l),
(110,28,o),
(110,14,o),
(110,0,c),
(200,0,l)
);
}
);
width = 660;
},
{
associatedMasterId = m003;
layerId = "07354EDA-AF7C-4575-9520-AC5DB6CDEFEF";
name = ExtraBold;
shapes = (
{
closed = 1;
nodes = (
(257,495,l),
(335,495,ls),
(365,495,o),
(411,477,o),
(438,435,o),
(438,397,qs),
(438,354,o),
(379,296,o),
(335,296,qs),
(306,296,o),
(255,309,o),
(235,318,q),
(235,171,l),
(258,155,o),
(328,141,o),
(377,141,qs),
(442,141,o),
(558,204,o),
(630,320,o),
(630,397,qs),
(630,464,o),
(583,566,o),
(505,635,o),
(408,670,o),
(357,670,qs),
(70,670,l),
(70,0,l),
(257,0,l)
);
}
);
width = 660;
},
{
associatedMasterId = m003;
layerId = "7CD797F4-47C5-4ACA-AB85-25B03A708C68";
name = DEMOLITION;
shapes = (
{
closed = 1;
nodes = (
(257,495,l),
(335,495,ls),
(365,495,o),
(411,477,o),
(438,435,o),
(438,397,qs),
(438,354,o),
(379,296,o),
(335,296,qs),
(306,296,o),
(255,309,o),
(235,318,q),
(235,171,l),
(258,155,o),
(328,141,o),
(377,141,qs),
(442,141,o),
(558,204,o),
(630,320,o),
(630,397,qs),
(630,464,o),
(583,566,o),
(505,635,o),
(408,670,o),
(357,670,qs),
(70,670,l),
(70,0,l),
(257,0,l)
);
}
);
width = 660;
}
);
note = P;
unicode = (80,112);
},
{
glyphname = Q;
lastChange = "2024-11-05 08:28:03 +0000";
layers = (
{
layerId = m01;
shapes = (
{
closed = 1;
nodes = (
(608,40,o),
(703,136,o),
(756,263,o),
(756,335,qs),
(756,407,o),
(703,534,o),
(607,630,o),
(479,685,o),
(403,685,qs),
(327,685,o),
(199,630,o),
(103,534,o),
(50,407,o),
(50,335,qs),
(50,263,o),
(103,136,o),
(199,40,o),
(324,-20,o),
(400,-20,qs),
(476,-20,o)
);
},
{
closed = 1;
nodes = (
(756,-116,o),
(620,-150,o),
(450,30,o),
(440,30,q),
(440,30,o),
(440,20,o),
(430,20,c),
(486,-22,o),
(580,-117,o),
(709,-154,o),
(764,-154,q),
(760,-70,l)
);
},
{
closed = 1;
nodes = (
(200,50,o),
(60,210,o),
(60,330,qs),
(60,406,o),
(210,529,o),
(326,680,o),
(400,680,qs),
(476,680,o),
(660,590,o),
(750,406,o),
(750,330,qs),
(750,220,o),
(610,40,o),
(470,10,o),
(380,80,qs),
(320,126,o)
);
}
);
width = 809;
},
{
associatedMasterId = m01;
layerId = "C5FAC1B4-FC30-4230-AD22-0E3CA9B26410";
name = ExtraBold;
shapes = (
{
closed = 1;
nodes = (
(581,32,o),
(679,122,o),
(736,252,o),
(736,335,qs),
(736,418,o),
(679,548,o),
(581,638,o),
(456,685,o),
(388,685,qs),
(320,685,o),
(195,638,o),
(97,548,o),
(40,418,o),
(40,335,qs),
(40,252,o),
(97,122,o),
(195,32,o),
(320,-15,o),
(388,-15,qs),
(456,-15,o)
);
},
{
closed = 1;
nodes = (
(715,-15,o),
(637,-11,o),
(567,5,o),
(538,23,q),
(388,-15,l),
(434,-68,o),
(559,-138,o),
(695,-171,o),
(755,-171,q),
(755,-15,l)
);
},
{
closed = 1;
nodes = (
(273,206,o),
(232,285,o),
(232,335,qs),
(232,385,o),
(273,464,o),
(343,510,o),
(388,510,qs),
(433,510,o),
(504,464,o),
(544,385,o),
(544,335,qs),
(544,285,o),
(504,206,o),
(433,160,o),
(388,160,qs),
(343,160,o)
);
}
);
width = 775;
},
{
layerId = m002;
shapes = (
{
closed = 1;
nodes = (
(580,20,o),
(703,136,o),
(756,263,o),
(756,335,qs),
(756,407,o),
(703,534,o),
(607,630,o),
(480,686,o),
(403,685,qs),
(328,686,o),
(199,630,o),
(103,534,o),
(50,408,o),
(50,340,qs),
(50,264,o),
(120,90,o),
(250,-10,o),
(290,160,o),
(340,20,qs),
(362,-44,o)
);
},
{
closed = 1;
nodes = (
(700,100,o),
(700,0,o),
(620,-30,o),
(540,20,q),
(514,14,o),
(500,-10,o),
(420,40,c),
(472,2,o),
(680,-50,o),
(770,130,o),
(810,180,q),
(720,120,l)
);
},
{
closed = 1;
nodes = (
(250,10,o),
(260,310,o),
(140,360,qs),
(-14,424,o),
(360,610,o),
(330,680,o),
(400,680,qs),
(620,680,o),
(660,300,o),
(750,406,o),
(750,330,qs),
(750,256,o),
(680,100,o),
(474,8,o),
(390,100,qs),
(290,210,o)
);
}
);
width = 809;
},
{
associatedMasterId = m01;
layerId = "E2D7B3D2-ECCA-447B-BA5D-29DB056DF772";
name = DEMOLITION;
shapes = (
{
closed = 1;
nodes = (
(581,32,o),
(679,122,o),
(736,252,o),
(736,335,qs),
(736,418,o),
(679,548,o),
(581,638,o),
(456,685,o),
(388,685,qs),
(320,685,o),
(195,638,o),
(97,548,o),
(40,418,o),
(40,335,qs),
(40,252,o),
(97,122,o),
(195,32,o),
(320,-15,o),
(388,-15,qs),
(456,-15,o)
);
},
{
closed = 1;
nodes = (
(715,-15,o),
(637,-11,o),
(567,5,o),
(538,23,q),
(388,-15,l),
(434,-68,o),
(559,-138,o),
(695,-171,o),
(755,-171,q),
(755,-15,l)
);
},
{
closed = 1;
nodes = (
(273,206,o),
(232,285,o),
(232,335,qs),
(232,385,o),
(273,464,o),
(343,510,o),
(388,510,qs),
(433,510,o),
(504,464,o),
(544,385,o),
(544,335,qs),
(544,285,o),
(504,206,o),
(433,160,o),
(388,160,qs),
(343,160,o)
);
}
);
width = 775;
},
{
associatedMasterId = m002;
layerId = "C08B314E-06F6-4CC5-8415-B23EA8ABC60F";
name = ExtraBold;
shapes = (
{
closed = 1;
nodes = (
(581,32,o),
(679,122,o),
(736,252,o),
(736,335,qs),
(736,418,o),
(679,548,o),
(581,638,o),
(456,685,o),
(388,685,qs),
(320,685,o),
(195,638,o),
(97,548,o),
(40,418,o),
(40,335,qs),
(40,252,o),
(97,122,o),
(195,32,o),
(320,-15,o),
(388,-15,qs),
(456,-15,o)
);
},
{
closed = 1;
nodes = (
(715,-15,o),
(637,-11,o),
(567,5,o),
(538,23,q),
(388,-15,l),
(434,-68,o),
(559,-138,o),
(695,-171,o),
(755,-171,q),
(755,-15,l)
);
},
{
closed = 1;
nodes = (
(273,206,o),
(232,285,o),
(232,335,qs),
(232,385,o),
(273,464,o),
(343,510,o),
(388,510,qs),
(433,510,o),
(504,464,o),
(544,385,o),
(544,335,qs),
(544,285,o),
(504,206,o),
(433,160,o),
(388,160,qs),
(343,160,o)
);
}
);
width = 775;
},
{
associatedMasterId = m002;
layerId = "1D075C1A-928E-4D89-97D6-3834F53FC0F2";
name = DEMOLITION;
shapes = (
{
closed = 1;
nodes = (
(608,40,o),
(703,136,o),
(756,263,o),
(756,335,qs),
(756,407,o),
(703,534,o),
(607,630,o),
(479,685,o),
(403,685,qs),
(327,685,o),
(199,630,o),
(103,534,o),
(50,407,o),
(50,335,qs),
(50,263,o),
(103,136,o),
(199,40,o),
(328,-14,o),
(403,-15,qs),
(480,-14,o)
);
},
{
closed = 1;
nodes = (
(724,-146,o),
(594,-136,o),
(554,-96,o),
(570,-20,q),
(400,-30,l),
(460,-68,o),
(584,-86,o),
(706,-82,o),
(760,-90,q),
(760,-150,l)
);
},
{
closed = 1;
nodes = (
(210,142,o),
(0,286,o),
(0,360,qs),
(0,436,o),
(210,529,o),
(336,710,o),
(410,710,qs),
(486,710,o),
(596,529,o),
(770,406,o),
(770,330,qs),
(770,256,o),
(596,142,o),
(326,0,o),
(250,0,qs),
(176,0,o)
);
}
);
width = 809;
},
{
associatedMasterId = m002;
layerId = "EC53C79C-549F-4055-85A7-95F602E3610E";
name = DEMOLITION;
shapes = (
{
closed = 1;
nodes = (
(581,32,o),
(679,122,o),
(736,252,o),
(736,335,qs),
(736,418,o),
(679,548,o),
(581,638,o),
(456,685,o),
(388,685,qs),
(320,685,o),
(195,638,o),
(97,548,o),
(40,418,o),
(40,335,qs),
(40,252,o),
(97,122,o),
(195,32,o),
(320,-15,o),
(388,-15,qs),
(456,-15,o)
);
},
{
closed = 1;
nodes = (
(715,-15,o),
(637,-11,o),
(567,5,o),
(538,23,q),
(388,-15,l),
(434,-68,o),
(559,-138,o),
(695,-171,o),
(755,-171,q),
(755,-15,l)
);
},
{
closed = 1;
nodes = (
(273,206,o),
(232,285,o),
(232,335,qs),
(232,385,o),
(273,464,o),
(343,510,o),
(388,510,qs),
(433,510,o),
(504,464,o),
(544,385,o),
(544,335,qs),
(544,285,o),
(504,206,o),
(433,160,o),
(388,160,qs),
(343,160,o)
);
}
);
width = 775;
},
{
layerId = m003;
shapes = (
{
closed = 1;
nodes = (
(607,40,o),
(703,136,o),
(756,263,o),
(756,335,qs),
(756,407,o),
(703,534,o),
(607,630,o),
(479,685,o),
(403,685,qs),
(327,685,o),
(199,630,o),
(103,534,o),
(50,407,o),
(50,335,qs),
(50,263,o),
(103,136,o),
(199,40,o),
(327,-15,o),
(403,-15,qs),
(479,-15,o)
);
},
{
closed = 1;
nodes = (
(724,-64,o),
(614,-39,o),
(496,2,o),
(442,25,q),
(430,12,o),
(416,-2,o),
(403,-15,c),
(455,-53,o),
(580,-117,o),
(709,-154,o),
(764,-154,q),
(764,-64,l)
);
},
{
closed = 1;
nodes = (
(210,142,o),
(142,260,o),
(142,335,qs),
(142,410,o),
(210,529,o),
(328,597,o),
(403,597,qs),
(478,597,o),
(596,529,o),
(664,410,o),
(664,335,qs),
(664,260,o),
(596,142,o),
(478,73,o),
(403,73,qs),
(328,73,o)
);
}
);
width = 809;
},
{
associatedMasterId = m003;
layerId = "2202DEDA-0E86-4BE6-B74D-0A07D953F336";
name = ExtraBold;
shapes = (
{
closed = 1;
nodes = (
(581,32,o),
(679,122,o),
(736,252,o),
(736,335,qs),
(736,418,o),
(679,548,o),
(581,638,o),
(456,685,o),
(388,685,qs),
(320,685,o),
(195,638,o),
(97,548,o),
(40,418,o),
(40,335,qs),
(40,252,o),
(97,122,o),
(195,32,o),
(320,-15,o),
(388,-15,qs),
(456,-15,o)
);
},
{
closed = 1;
nodes = (
(715,-15,o),
(637,-11,o),
(567,5,o),
(538,23,q),
(388,-15,l),
(434,-68,o),
(559,-138,o),
(695,-171,o),
(755,-171,q),
(755,-15,l)
);
},
{
closed = 1;
nodes = (
(273,206,o),
(232,285,o),
(232,335,qs),
(232,385,o),
(273,464,o),
(343,510,o),
(388,510,qs),
(433,510,o),
(504,464,o),
(544,385,o),
(544,335,qs),
(544,285,o),
(504,206,o),
(433,160,o),
(388,160,qs),
(343,160,o)
);
}
);
width = 775;
},
{
associatedMasterId = m003;
layerId = "22507EE3-EB47-4621-8517-A5C5A142E607";
name = DEMOLITION;
shapes = (
{
closed = 1;
nodes = (
(581,32,o),
(679,122,o),
(736,252,o),
(736,335,qs),
(736,418,o),
(679,548,o),
(581,638,o),
(456,685,o),
(388,685,qs),
(320,685,o),
(195,638,o),
(97,548,o),
(40,418,o),
(40,335,qs),
(40,252,o),
(97,122,o),
(195,32,o),
(320,-15,o),
(388,-15,qs),
(456,-15,o)
);
},
{
closed = 1;
nodes = (
(715,-15,o),
(637,-11,o),
(567,5,o),
(538,23,q),
(388,-15,l),
(434,-68,o),
(559,-138,o),
(695,-171,o),
(755,-171,q),
(755,-15,l)
);
},
{
closed = 1;
nodes = (
(273,206,o),
(232,285,o),
(232,335,qs),
(232,385,o),
(273,464,o),
(343,510,o),
(388,510,qs),
(433,510,o),
(504,464,o),
(544,385,o),
(544,335,qs),
(544,285,o),
(504,206,o),
(433,160,o),
(388,160,qs),
(343,160,o)
);
}
);
width = 775;
}
);
note = Q;
unicode = (81,113);
},
{
glyphname = R;
lastChange = "2024-11-05 08:57:38 +0000";
layers = (
{
layerId = m01;
shapes = (
{
closed = 1;
nodes = (
(120,194,o),
(108,464,o),
(120,660,c),
(310,660,ls),
(430,660,o),
(570,420,o),
(490,420,qs),
(450,420,o),
(410,290,o),
(310,310,qs),
(298,312,o),
(210,320,o),
(190,320,q),
(193,297,l),
(210,310,o),
(220,310,o),
(310,302,o),
(356,298,o),
(370,300,qs),
(430,298,o),
(480,342,o),
(540,408,o),
(540,470,qs),
(540,522,o),
(500,598,o),
(430,650,o),
(330,670,o),
(290,670,qs),
(110,670,l),
(110,446,o),
(110,224,o),
(110,0,c),
(130,0,l)
);
},
{
closed = 1;
nodes = (
(390,108,o),
(280,190,o),
(190,320,c),
(190,300,o),
(180,300,o),
(183,297,c),
(284,198,o),
(386,100,o),
(488,0,c),
(510,0,l)
);
}
);
width = 646;
},
{
associatedMasterId = m01;
layerId = "C5FAC1B4-FC30-4230-AD22-0E3CA9B26410";
name = ExtraBold;
shapes = (
{
closed = 1;
nodes = (
(267,515,l),
(345,515,ls),
(389,515,o),
(448,478,o),
(448,437,qs),
(448,401,o),
(389,356,o),
(345,356,qs),
(316,356,o),
(265,370,o),
(245,379,q),
(245,284,l),
(256,282,o),
(302,270,o),
(356,257,o),
(404,247,o),
(417,247,qs),
(479,247,o),
(580,290,o),
(640,375,o),
(640,437,qs),
(640,496,o),
(593,584,o),
(515,642,o),
(418,670,o),
(367,670,qs),
(80,670,l),
(80,0,l),
(267,0,l)
);
},
{
closed = 1;
nodes = (
(423,333,l),
(255,284,l),
(446,0,l),
(674,0,l)
);
}
);
width = 689;
},
{
layerId = m002;
shapes = (
{
closed = 1;
nodes = (
(354,0,o),
(-16,728,o),
(180,650,cs),
(280,610,ls),
(314,596,o),
(450,694,o),
(470,590,qs),
(500,440,o),
(380,330,o),
(410,400,qs),
(418,416,o),
(336,410,o),
(310,400,qs),
(260,380,l),
(320,400,o),
(380,400,o),
(350,320,o),
(412,360,o),
(430,370,qs),
(450,380,o),
(490,360,o),
(540,460,o),
(540,490,qs),
(540,550,o),
(510,618,o),
(444,666,o),
(410,670,o),
(370,670,qs),
(110,670,l),
(120,310,o),
(160,100,o),
(80,0,c),
(180,0,ls)
);
},
{
closed = 1;
nodes = (
(428,-8,o),
(580,170,o),
(480,270,cs),
(438,312,o),
(330,310,o),
(170,310,c),
(604,268,o),
(312,0,o),
(580,0,cs),
(640,0,l)
);
}
);
width = 646;
},
{
associatedMasterId = m01;
layerId = "7CF9DB58-2FB1-46BF-8E32-8EAD75F7FF8F";
name = DEMOLITION;
shapes = (
{
closed = 1;
nodes = (
(267,515,l),
(345,515,ls),
(389,515,o),
(448,478,o),
(448,437,qs),
(448,401,o),
(389,356,o),
(345,356,qs),
(316,356,o),
(265,370,o),
(245,379,q),
(245,284,l),
(256,282,o),
(302,270,o),
(356,257,o),
(404,247,o),
(417,247,qs),
(479,247,o),
(580,290,o),
(640,375,o),
(640,437,qs),
(640,496,o),
(593,584,o),
(515,642,o),
(418,670,o),
(367,670,qs),
(80,670,l),
(80,0,l),
(267,0,l)
);
},
{
closed = 1;
nodes = (
(423,333,l),
(255,284,l),
(446,0,l),
(674,0,l)
);
}
);
width = 689;
},
{
associatedMasterId = m002;
layerId = "77CC0058-3092-44C6-B146-F03E3CB5BEFB";
name = ExtraBold;
shapes = (
{
closed = 1;
nodes = (
(267,515,l),
(345,515,ls),
(389,515,o),
(448,478,o),
(448,437,qs),
(448,401,o),
(389,356,o),
(345,356,qs),
(316,356,o),
(265,370,o),
(245,379,q),
(245,284,l),
(256,282,o),
(302,270,o),
(356,257,o),
(404,247,o),
(417,247,qs),
(479,247,o),
(580,290,o),
(640,375,o),
(640,437,qs),
(640,496,o),
(593,584,o),
(515,642,o),
(418,670,o),
(367,670,qs),
(80,670,l),
(80,0,l),
(267,0,l)
);
},
{
closed = 1;
nodes = (
(423,333,l),
(255,284,l),
(446,0,l),
(674,0,l)
);
}
);
width = 689;
},
{
associatedMasterId = m002;
layerId = "3EF0CF9A-8841-4199-B8A9-84CDC804271F";
name = DEMOLITION;
shapes = (
{
closed = 1;
nodes = (
(200,700,l),
(410,700,ls),
(522,700,o),
(630,560,o),
(620,470,qs),
(614,420,o),
(425,351,o),
(349,351,qs),
(309,351,o),
(227,362,o),
(193,372,q),
(210,470,l),
(222,468,o),
(249,287,o),
(250,280,o),
(346,278,o),
(362,278,qs),
(420,278,o),
(529,321,o),
(600,407,o),
(600,469,qs),
(600,521,o),
(560,597,o),
(493,646,o),
(410,670,o),
(367,670,qs),
(110,670,l),
(220,0,l),
(110,0,l)
);
},
{
closed = 1;
nodes = (
(255,334,l),
(183,297,l),
(650,0,l),
(540,0,l)
);
}
);
width = 646;
},
{
associatedMasterId = m002;
layerId = "019950FA-1C91-4899-925E-1675C9C49C3E";
name = DEMOLITION;
shapes = (
{
closed = 1;
nodes = (
(267,515,l),
(345,515,ls),
(389,515,o),
(448,478,o),
(448,437,qs),
(448,401,o),
(389,356,o),
(345,356,qs),
(316,356,o),
(265,370,o),
(245,379,q),
(245,284,l),
(256,282,o),
(302,270,o),
(356,257,o),
(404,247,o),
(417,247,qs),
(479,247,o),
(580,290,o),
(640,375,o),
(640,437,qs),
(640,496,o),
(593,584,o),
(515,642,o),
(418,670,o),
(367,670,qs),
(80,670,l),
(80,0,l),
(267,0,l)
);
},
{
closed = 1;
nodes = (
(423,333,l),
(255,284,l),
(446,0,l),
(674,0,l)
);
}
);
width = 689;
},
{
layerId = m003;
shapes = (
{
closed = 1;
nodes = (
(200,196,o),
(200,390,o),
(200,585,c),
(352,585,ls),
(417,585,o),
(508,525,o),
(508,469,qs),
(508,415,o),
(425,351,o),
(349,351,qs),
(309,351,o),
(227,362,o),
(193,372,q),
(193,297,l),
(205,294,o),
(249,287,o),
(299,282,o),
(346,278,o),
(362,278,qs),
(420,278,o),
(529,321,o),
(600,407,o),
(600,469,qs),
(600,521,o),
(560,597,o),
(493,646,o),
(410,670,o),
(367,670,qs),
(110,670,l),
(110,446,o),
(110,224,o),
(110,0,c),
(200,0,l)
);
},
{
closed = 1;
nodes = (
(502,112,o),
(378,222,o),
(255,334,c),
(232,322,o),
(208,310,o),
(183,297,c),
(284,198,o),
(386,100,o),
(488,0,c),
(626,0,l)
);
}
);
width = 646;
},
{
associatedMasterId = m003;
layerId = "C44E97D7-6635-46DD-A0E2-09C7D4736200";
name = ExtraBold;
shapes = (
{
closed = 1;
nodes = (
(267,515,l),
(345,515,ls),
(389,515,o),
(448,478,o),
(448,437,qs),
(448,401,o),
(389,356,o),
(345,356,qs),
(316,356,o),
(265,370,o),
(245,379,q),
(245,284,l),
(256,282,o),
(302,270,o),
(356,257,o),
(404,247,o),
(417,247,qs),
(479,247,o),
(580,290,o),
(640,375,o),
(640,437,qs),
(640,496,o),
(593,584,o),
(515,642,o),
(418,670,o),
(367,670,qs),
(80,670,l),
(80,0,l),
(267,0,l)
);
},
{
closed = 1;
nodes = (
(423,333,l),
(255,284,l),
(446,0,l),
(674,0,l)
);
}
);
width = 689;
},
{
associatedMasterId = m003;
layerId = "43366695-A7E1-4D77-B482-13DCA34AE44F";
name = DEMOLITION;
shapes = (
{
closed = 1;
nodes = (
(267,515,l),
(345,515,ls),
(389,515,o),
(448,478,o),
(448,437,qs),
(448,401,o),
(389,356,o),
(345,356,qs),
(316,356,o),
(265,370,o),
(245,379,q),
(245,284,l),
(256,282,o),
(302,270,o),
(356,257,o),
(404,247,o),
(417,247,qs),
(479,247,o),
(580,290,o),
(640,375,o),
(640,437,qs),
(640,496,o),
(593,584,o),
(515,642,o),
(418,670,o),
(367,670,qs),
(80,670,l),
(80,0,l),
(267,0,l)
);
},
{
closed = 1;
nodes = (
(423,333,l),
(255,284,l),
(446,0,l),
(674,0,l)
);
}
);
width = 689;
}
);
note = R;
unicode = (82,114);
},
{
glyphname = S;
lastChange = "2024-11-05 08:58:19 +0000";
layers = (
{
layerId = m01;
shapes = (
{
closed = 1;
nodes = (
(450,20,o),
(450,120,o),
(473,176,qs),
(496,232,o),
(408,336,o),
(334,346,qs),
(230,360,ls),
(186,366,o),
(60,460,o),
(60,500,qs),
(60,536,o),
(140,640,o),
(240,670,o),
(270,670,qs),
(318,670,o),
(430,630,o),
(437,534,q),
(437,627,l),
(408,646,o),
(331,680,o),
(272,680,qs),
(213,680,o),
(111,630,o),
(50,545,o),
(50,492,qs),
(50,455,o),
(90,350,o),
(180,360,o),
(230,350,qs),
(330,330,ls),
(362,324,o),
(420,280,o),
(466,176,o),
(460,150,qs),
(440,60,o),
(300,6,o),
(250,0,qs),
(160,-10,o),
(90,121,o),
(51,148,q),
(51,55,l),
(87,30,o),
(190,-24,o),
(243,-10,qs),
(360,20,o)
);
}
);
width = 523;
},
{
associatedMasterId = m01;
layerId = "C5FAC1B4-FC30-4230-AD22-0E3CA9B26410";
name = ExtraBold;
shapes = (
{
closed = 1;
nodes = (
(469,42,o),
(543,141,o),
(543,205,qs),
(543,259,o),
(478,345,o),
(405,373,qs),
(337,400,ls),
(295,417,o),
(237,445,o),
(237,470,qs),
(237,486,o),
(254,509,o),
(286,523,o),
(308,523,qs),
(365,523,o),
(459,486,o),
(502,461,q),
(502,632,l),
(467,656,o),
(352,685,o),
(293,685,qs),
(228,685,o),
(112,635,o),
(40,538,o),
(40,467,qs),
(40,427,o),
(64,352,o),
(126,292,o),
(182,274,qs),
(277,244,ls),
(295,239,o),
(322,223,o),
(336,205,o),
(336,195,qs),
(336,174,o),
(303,147,o),
(268,147,qs),
(212,147,o),
(91,193,o),
(43,229,q),
(43,58,l),
(87,27,o),
(205,-15,o),
(265,-15,qs),
(343,-15,o)
);
}
);
width = 573;
},
{
layerId = m002;
shapes = (
{
closed = 1;
nodes = (
(420,20,o),
(470,100,o),
(470,180,qs),
(470,310,o),
(140,312,o),
(330,330,qs),
(440,340,ls),
(482,344,o),
(150,410,o),
(143,489,qs),
(140,524,o),
(180,620,o),
(230,670,o),
(270,670,qs),
(362,670,o),
(412,512,o),
(440,490,q),
(440,630,l),
(408,646,o),
(331,680,o),
(272,680,qs),
(213,680,o),
(112,630,o),
(50,546,o),
(50,490,qs),
(50,430,o),
(150,360,o),
(422,344,o),
(350,340,qs),
(200,330,ls),
(28,318,o),
(330,290,o),
(390,250,o),
(390,170,qs),
(390,100,o),
(320,-10,o),
(250,0,qs),
(186,10,o),
(110,170,o),
(50,210,q),
(51,55,l),
(87,30,o),
(185,-10,o),
(243,-10,qs),
(305,-10,o)
);
}
);
width = 523;
},
{
associatedMasterId = m01;
layerId = "7941DA72-7498-47BD-99CD-14910BE4862A";
name = DEMOLITION;
shapes = (
{
closed = 1;
nodes = (
(469,42,o),
(543,141,o),
(543,205,qs),
(543,259,o),
(478,345,o),
(405,373,qs),
(337,400,ls),
(295,417,o),
(237,445,o),
(237,470,qs),
(237,486,o),
(254,509,o),
(286,523,o),
(308,523,qs),
(365,523,o),
(459,486,o),
(502,461,q),
(502,632,l),
(467,656,o),
(352,685,o),
(293,685,qs),
(228,685,o),
(112,635,o),
(40,538,o),
(40,467,qs),
(40,427,o),
(64,352,o),
(126,292,o),
(182,274,qs),
(277,244,ls),
(295,239,o),
(322,223,o),
(336,205,o),
(336,195,qs),
(336,174,o),
(303,147,o),
(268,147,qs),
(212,147,o),
(91,193,o),
(43,229,q),
(43,58,l),
(87,27,o),
(205,-15,o),
(265,-15,qs),
(343,-15,o)
);
}
);
width = 573;
},
{
associatedMasterId = m002;
layerId = "8A3BC513-7CD5-43D3-B4F3-BE029F84AAD6";
name = ExtraBold;
shapes = (
{
closed = 1;
nodes = (
(469,42,o),
(543,141,o),
(543,205,qs),
(543,259,o),
(478,345,o),
(405,373,qs),
(337,400,ls),
(295,417,o),
(237,445,o),
(237,470,qs),
(237,486,o),
(254,509,o),
(286,523,o),
(308,523,qs),
(365,523,o),
(459,486,o),
(502,461,q),
(502,632,l),
(467,656,o),
(352,685,o),
(293,685,qs),
(228,685,o),
(112,635,o),
(40,538,o),
(40,467,qs),
(40,427,o),
(64,352,o),
(126,292,o),
(182,274,qs),
(277,244,ls),
(295,239,o),
(322,223,o),
(336,205,o),
(336,195,qs),
(336,174,o),
(303,147,o),
(268,147,qs),
(212,147,o),
(91,193,o),
(43,229,q),
(43,58,l),
(87,27,o),
(205,-15,o),
(265,-15,qs),
(343,-15,o)
);
}
);
width = 573;
},
{
associatedMasterId = m002;
layerId = "6B3A6A20-0C6E-4A96-8D9E-3CF6E78B1EFC";
name = DEMOLITION;
shapes = (
{
closed = 1;
nodes = (
(409,38,o),
(474,122,o),
(473,176,qs),
(474,240,o),
(400,306,o),
(330,320,qs),
(230,340,ls),
(150,356,o),
(90,440,o),
(90,480,qs),
(90,516,o),
(187,571,o),
(260,690,o),
(290,690,qs),
(338,690,o),
(416,656,o),
(440,630,q),
(440,520,l),
(412,540,o),
(331,680,o),
(272,680,qs),
(213,680,o),
(111,630,o),
(50,545,o),
(50,492,qs),
(50,455,o),
(72,392,o),
(122,324,o),
(174,318,qs),
(240,310,ls),
(258,308,o),
(440,330,o),
(510,240,o),
(500,150,qs),
(496,110,o),
(330,10,o),
(280,10,qs),
(216,10,o),
(90,34,o),
(50,60,q),
(50,160,l),
(86,138,o),
(185,-10,o),
(243,-10,qs),
(305,-10,o)
);
}
);
width = 523;
},
{
associatedMasterId = m002;
layerId = "32F29B1D-362A-41C8-AA2B-13BAFE756FB0";
name = DEMOLITION;
shapes = (
{
closed = 1;
nodes = (
(469,42,o),
(543,141,o),
(543,205,qs),
(543,259,o),
(478,345,o),
(405,373,qs),
(337,400,ls),
(295,417,o),
(237,445,o),
(237,470,qs),
(237,486,o),
(254,509,o),
(286,523,o),
(308,523,qs),
(365,523,o),
(459,486,o),
(502,461,q),
(502,632,l),
(467,656,o),
(352,685,o),
(293,685,qs),
(228,685,o),
(112,635,o),
(40,538,o),
(40,467,qs),
(40,427,o),
(64,352,o),
(126,292,o),
(182,274,qs),
(277,244,ls),
(295,239,o),
(322,223,o),
(336,205,o),
(336,195,qs),
(336,174,o),
(303,147,o),
(268,147,qs),
(212,147,o),
(91,193,o),
(43,229,q),
(43,58,l),
(87,27,o),
(205,-15,o),
(265,-15,qs),
(343,-15,o)
);
}
);
width = 573;
},
{
layerId = m003;
shapes = (
{
closed = 1;
nodes = (
(409,38,o),
(473,121,o),
(473,176,qs),
(473,239,o),
(403,315,o),
(334,346,qs),
(242,388,ls),
(201,407,o),
(143,449,o),
(143,489,qs),
(143,525,o),
(187,571,o),
(252,592,o),
(282,592,qs),
(329,592,o),
(409,555,o),
(437,534,q),
(437,627,l),
(408,646,o),
(331,680,o),
(272,680,qs),
(213,680,o),
(111,630,o),
(50,545,o),
(50,492,qs),
(50,455,o),
(72,392,o),
(126,340,o),
(174,318,qs),
(285,268,ls),
(306,259,o),
(350,233,o),
(381,197,o),
(381,172,qs),
(381,128,o),
(305,78,o),
(255,78,qs),
(191,78,o),
(90,121,o),
(51,148,q),
(51,55,l),
(87,30,o),
(185,-10,o),
(243,-10,qs),
(305,-10,o)
);
}
);
width = 523;
},
{
associatedMasterId = m003;
layerId = "52095EC4-D97F-4E02-88B4-1C6D21D93090";
name = ExtraBold;
shapes = (
{
closed = 1;
nodes = (
(469,42,o),
(543,141,o),
(543,205,qs),
(543,259,o),
(478,345,o),
(405,373,qs),
(337,400,ls),
(295,417,o),
(237,445,o),
(237,470,qs),
(237,486,o),
(254,509,o),
(286,523,o),
(308,523,qs),
(365,523,o),
(459,486,o),
(502,461,q),
(502,632,l),
(467,656,o),
(352,685,o),
(293,685,qs),
(228,685,o),
(112,635,o),
(40,538,o),
(40,467,qs),
(40,427,o),
(64,352,o),
(126,292,o),
(182,274,qs),
(277,244,ls),
(295,239,o),
(322,223,o),
(336,205,o),
(336,195,qs),
(336,174,o),
(303,147,o),
(268,147,qs),
(212,147,o),
(91,193,o),
(43,229,q),
(43,58,l),
(87,27,o),
(205,-15,o),
(265,-15,qs),
(343,-15,o)
);
}
);
width = 573;
},
{
associatedMasterId = m003;
layerId = "6341F1F2-5CF5-4C80-BFD7-CC7F8ABE6104";
name = DEMOLITION;
shapes = (
{
closed = 1;
nodes = (
(469,42,o),
(543,141,o),
(543,205,qs),
(543,259,o),
(478,345,o),
(405,373,qs),
(337,400,ls),
(295,417,o),
(237,445,o),
(237,470,qs),
(237,486,o),
(254,509,o),
(286,523,o),
(308,523,qs),
(365,523,o),
(459,486,o),
(502,461,q),
(502,632,l),
(467,656,o),
(352,685,o),
(293,685,qs),
(228,685,o),
(112,635,o),
(40,538,o),
(40,467,qs),
(40,427,o),
(64,352,o),
(126,292,o),
(182,274,qs),
(277,244,ls),
(295,239,o),
(322,223,o),
(336,205,o),
(336,195,qs),
(336,174,o),
(303,147,o),
(268,147,qs),
(212,147,o),
(91,193,o),
(43,229,q),
(43,58,l),
(87,27,o),
(205,-15,o),
(265,-15,qs),
(343,-15,o)
);
}
);
width = 573;
}
);
note = S;
unicode = (83,115);
},
{
glyphname = T;
lastChange = "2024-11-05 08:58:02 +0000";
layers = (
{
layerId = m01;
shapes = (
{
closed = 1;
nodes = (
(330,10,o),
(290,10,o),
(280,50,cs),
(244,192,o),
(298,268,o),
(310,380,cs),
(320,480,o),
(351,571,o),
(351,670,c),
(261,670,l),
(350,670,o),
(360,540,o),
(300,560,cs),
(254,576,o),
(310,370,o),
(290,310,cs),
(250,192,o),
(262,125,o),
(261,0,c),
(351,0,l)
);
},
{
closed = 1;
nodes = (
(582,670,l),
(514,670,o),
(445,670,o),
(377,670,cs),
(336,670,o),
(295,670,o),
(254,670,cs),
(179,670,o),
(105,670,o),
(30,670,c),
(30,590,l),
(30,670,o),
(70,658,o),
(90,660,cs),
(240,670,o),
(350,660,o),
(490,660,cs),
(510,660,o),
(570,670,o),
(580,590,c)
);
}
);
width = 611;
},
{
associatedMasterId = m01;
layerId = "C5FAC1B4-FC30-4230-AD22-0E3CA9B26410";
name = ExtraBold;
shapes = (
{
closed = 1;
nodes = (
(404,670,l),
(217,670,l),
(217,0,l),
(404,0,l)
);
},
{
closed = 1;
nodes = (
(586,670,l),
(35,670,l),
(35,515,l),
(586,515,l)
);
}
);
width = 621;
},
{
layerId = m002;
shapes = (
{
closed = 1;
nodes = (
(350,10,o),
(328,50,o),
(310,110,cs),
(160,640,o),
(276,336,o),
(310,310,cs),
(390,250,o),
(340,564,o),
(340,640,c),
(240,640,l),
(280,644,o),
(294,604,o),
(300,570,cs),
(340,330,o),
(302,326,o),
(280,370,cs),
(152,626,o),
(230,0,o),
(280,0,cs),
(400,0,l)
);
},
{
closed = 1;
nodes = (
(580,680,l),
(510,676,o),
(424,694,o),
(350,670,cs),
(320,660,o),
(300,660,o),
(260,670,cs),
(190,688,o),
(112,676,o),
(30,680,c),
(30,590,l),
(50,600,o),
(76,604,o),
(100,610,cs),
(238,636,o),
(386,644,o),
(520,610,cs),
(560,600,o),
(566,598,o),
(590,590,c)
);
}
);
width = 611;
},
{
associatedMasterId = m01;
layerId = "9ACC2572-091B-449B-941D-3F73CC71375F";
name = DEMOLITION;
shapes = (
{
closed = 1;
nodes = (
(404,670,l),
(217,670,l),
(217,0,l),
(404,0,l)
);
},
{
closed = 1;
nodes = (
(586,670,l),
(35,670,l),
(35,515,l),
(586,515,l)
);
}
);
width = 621;
},
{
associatedMasterId = m002;
layerId = "5ED762C8-7B3B-4505-85AE-6050C9284089";
name = ExtraBold;
shapes = (
{
closed = 1;
nodes = (
(404,670,l),
(217,670,l),
(217,0,l),
(404,0,l)
);
},
{
closed = 1;
nodes = (
(586,670,l),
(35,670,l),
(35,515,l),
(586,515,l)
);
}
);
width = 621;
},
{
associatedMasterId = m002;
layerId = "9085D9B7-ABC9-480A-96B9-7A79C7FE7828";
name = DEMOLITION;
shapes = (
{
closed = 1;
nodes = (
(351,670,l),
(261,670,l),
(330,0,l),
(240,0,l)
);
},
{
closed = 1;
nodes = (
(582,670,l),
(30,670,l),
(30,585,l),
(580,760,l)
);
}
);
width = 611;
},
{
associatedMasterId = m002;
layerId = "8DC9FA72-749E-424B-95D7-9A29BA1D5D3C";
name = DEMOLITION;
shapes = (
{
closed = 1;
nodes = (
(404,670,l),
(217,670,l),
(217,0,l),
(404,0,l)
);
},
{
closed = 1;
nodes = (
(586,670,l),
(35,670,l),
(35,515,l),
(586,515,l)
);
}
);
width = 621;
},
{
layerId = m003;
shapes = (
{
closed = 1;
nodes = (
(351,11,o),
(351,23,o),
(351,34,cs),
(352,148,o),
(352,261,o),
(352,374,cs),
(352,473,o),
(351,571,o),
(351,670,c),
(261,670,l),
(261,626,o),
(261,583,o),
(261,540,cs),
(262,484,o),
(262,429,o),
(262,374,cs),
(262,250,o),
(262,125,o),
(261,0,c),
(351,0,l)
);
},
{
closed = 1;
nodes = (
(582,670,l),
(514,670,o),
(445,670,o),
(377,670,cs),
(336,670,o),
(295,670,o),
(254,670,cs),
(179,670,o),
(105,670,o),
(30,670,c),
(30,590,l),
(52,590,o),
(78,590,o),
(100,590,cs),
(244,592,o),
(378,592,o),
(520,590,cs),
(540,590,o),
(562,590,o),
(580,590,c)
);
}
);
width = 611;
},
{
associatedMasterId = m003;
layerId = "8F9C879E-CE40-42DF-AC2E-835DFAFCF3CE";
name = ExtraBold;
shapes = (
{
closed = 1;
nodes = (
(404,670,l),
(217,670,l),
(217,0,l),
(404,0,l)
);
},
{
closed = 1;
nodes = (
(586,670,l),
(35,670,l),
(35,515,l),
(586,515,l)
);
}
);
width = 621;
},
{
associatedMasterId = m003;
layerId = "9858DF61-AD5B-4120-8271-B324BD1A11C8";
name = DEMOLITION;
shapes = (
{
closed = 1;
nodes = (
(404,670,l),
(217,670,l),
(217,0,l),
(404,0,l)
);
},
{
closed = 1;
nodes = (
(586,670,l),
(35,670,l),
(35,515,l),
(586,515,l)
);
}
);
width = 621;
}
);
note = T;
unicode = (84,116);
},
{
glyphname = U;
lastChange = "2024-11-05 08:28:03 +0000";
layers = (
{
layerId = m01;
shapes = (
{
closed = 1;
nodes = (
(579,53,o),
(652,178,o),
(652,265,qs),
(652,400,o),
(652,536,o),
(652,672,c),
(562,672,l),
(676,592,o),
(640,418,o),
(640,260,cs),
(640,192,o),
(620,140,o),
(520,0,o),
(370,0,qs),
(230,0,o),
(241,117,o),
(120,192,o),
(120,260,qs),
(120,444,o),
(60,650,o),
(190,672,c),
(100,672,l),
(100,536,o),
(100,400,o),
(100,265,cs),
(100,178,o),
(173,53,o),
(302,-10,o),
(380,-10,qs),
(460,-10,o)
);
}
);
width = 752;
},
{
associatedMasterId = m01;
layerId = "C5FAC1B4-FC30-4230-AD22-0E3CA9B26410";
name = ExtraBold;
shapes = (
{
closed = 1;
nodes = (
(594,52,o),
(676,178,o),
(676,265,qs),
(676,672,l),
(489,672,l),
(489,278,ls),
(489,244,o),
(464,190,o),
(413,160,o),
(373,160,qs),
(333,160,o),
(282,190,o),
(257,244,o),
(257,278,qs),
(257,672,l),
(70,672,l),
(70,265,ls),
(70,178,o),
(152,52,o),
(290,-15,o),
(373,-15,qs),
(457,-15,o)
);
}
);
width = 746;
},
{
layerId = m002;
shapes = (
{
closed = 1;
nodes = (
(579,53,o),
(706,198,o),
(652,265,qs),
(520,430,o),
(788,674,o),
(652,672,cs),
(500,670,l),
(792,606,o),
(538,416,o),
(562,268,cs),
(572,200,o),
(511,117,o),
(430,0,o),
(380,0,qs),
(330,0,o),
(241,117,o),
(178,200,o),
(190,268,qs),
(216,410,o),
(-50,602,o),
(260,670,c),
(100,672,ls),
(-36,674,o),
(230,430,o),
(100,270,cs),
(40,196,o),
(173,53,o),
(302,-10,o),
(380,-10,qs),
(460,-10,o)
);
}
);
width = 752;
},
{
associatedMasterId = m01;
layerId = "3709E960-E542-41D3-B123-4E507334AC4A";
name = DEMOLITION;
shapes = (
{
closed = 1;
nodes = (
(594,52,o),
(676,178,o),
(676,265,qs),
(676,672,l),
(489,672,l),
(489,278,ls),
(489,244,o),
(464,190,o),
(413,160,o),
(373,160,qs),
(333,160,o),
(282,190,o),
(257,244,o),
(257,278,qs),
(257,672,l),
(70,672,l),
(70,265,ls),
(70,178,o),
(152,52,o),
(290,-15,o),
(373,-15,qs),
(457,-15,o)
);
}
);
width = 746;
},
{
associatedMasterId = m002;
layerId = "67BF1E6B-C24C-486A-8098-4406EC30A499";
name = ExtraBold;
shapes = (
{
closed = 1;
nodes = (
(594,52,o),
(676,178,o),
(676,265,qs),
(676,672,l),
(489,672,l),
(489,278,ls),
(489,244,o),
(464,190,o),
(413,160,o),
(373,160,qs),
(333,160,o),
(282,190,o),
(257,244,o),
(257,278,qs),
(257,672,l),
(70,672,l),
(70,265,ls),
(70,178,o),
(152,52,o),
(290,-15,o),
(373,-15,qs),
(457,-15,o)
);
}
);
width = 746;
},
{
associatedMasterId = m002;
layerId = "A3ECF407-9C53-499D-8B7D-2BD4BE7C1750";
name = DEMOLITION;
shapes = (
{
closed = 1;
nodes = (
(579,53,o),
(674,178,o),
(650,270,qs),
(550,670,l),
(650,670,l),
(562,268,ls),
(548,204,o),
(500,0,o),
(430,-30,o),
(380,-30,qs),
(330,-30,o),
(260,20,o),
(206,198,o),
(190,268,qs),
(100,670,l),
(200,670,l),
(100,265,ls),
(78,178,o),
(173,53,o),
(302,-10,o),
(380,-10,qs),
(460,-10,o)
);
}
);
width = 752;
},
{
associatedMasterId = m002;
layerId = "0D5F6723-2739-4DC8-A708-E1189099B3D9";
name = DEMOLITION;
shapes = (
{
closed = 1;
nodes = (
(594,52,o),
(676,178,o),
(676,265,qs),
(676,672,l),
(489,672,l),
(489,278,ls),
(489,244,o),
(464,190,o),
(413,160,o),
(373,160,qs),
(333,160,o),
(282,190,o),
(257,244,o),
(257,278,qs),
(257,672,l),
(70,672,l),
(70,265,ls),
(70,178,o),
(152,52,o),
(290,-15,o),
(373,-15,qs),
(457,-15,o)
);
}
);
width = 746;
},
{
layerId = m003;
shapes = (
{
closed = 1;
nodes = (
(579,53,o),
(652,178,o),
(652,265,qs),
(652,400,o),
(652,536,o),
(652,672,c),
(562,672,l),
(562,538,o),
(562,402,o),
(562,268,cs),
(562,200,o),
(511,117,o),
(426,79,o),
(376,79,qs),
(326,79,o),
(241,117,o),
(190,200,o),
(190,268,qs),
(190,402,o),
(190,538,o),
(190,672,c),
(100,672,l),
(100,536,o),
(100,400,o),
(100,265,cs),
(100,178,o),
(173,53,o),
(298,-13,o),
(376,-13,qs),
(455,-13,o)
);
}
);
width = 752;
},
{
associatedMasterId = m003;
layerId = "9E94ABFE-2DBE-4C7A-98A1-DFB12BB86DD6";
name = ExtraBold;
shapes = (
{
closed = 1;
nodes = (
(594,52,o),
(676,178,o),
(676,265,qs),
(676,672,l),
(489,672,l),
(489,278,ls),
(489,244,o),
(464,190,o),
(413,160,o),
(373,160,qs),
(333,160,o),
(282,190,o),
(257,244,o),
(257,278,qs),
(257,672,l),
(70,672,l),
(70,265,ls),
(70,178,o),
(152,52,o),
(290,-15,o),
(373,-15,qs),
(457,-15,o)
);
}
);
width = 746;
},
{
associatedMasterId = m003;
layerId = "EE428122-32EC-4FA4-A605-62CF672C6C35";
name = DEMOLITION;
shapes = (
{
closed = 1;
nodes = (
(594,52,o),
(676,178,o),
(676,265,qs),
(676,672,l),
(489,672,l),
(489,278,ls),
(489,244,o),
(464,190,o),
(413,160,o),
(373,160,qs),
(333,160,o),
(282,190,o),
(257,244,o),
(257,278,qs),
(257,672,l),
(70,672,l),
(70,265,ls),
(70,178,o),
(152,52,o),
(290,-15,o),
(373,-15,qs),
(457,-15,o)
);
}
);
width = 746;
}
);
note = U;
unicode = (85,117);
},
{
glyphname = V;
lastChange = "2024-11-05 08:28:03 +0000";
layers = (
{
layerId = m01;
shapes = (
{
closed = 1;
nodes = (
(472,224,o),
(576,446,o),
(681,670,c),
(570,670,l),
(680,520,o),
(558,486,o),
(500,360,cs),
(492,344,o),
(450,130,o),
(340,10,c),
(270,110,o),
(194,316,o),
(160,390,cs),
(94,542,o),
(-28,648,o),
(118,670,c),
(10,670,l),
(114,446,o),
(218,224,o),
(323,0,c),
(368,0,l)
);
}
);
width = 691;
},
{
associatedMasterId = m01;
layerId = "C5FAC1B4-FC30-4230-AD22-0E3CA9B26410";
name = ExtraBold;
shapes = (
{
closed = 1;
nodes = (
(719,670,l),
(501,670,l),
(367,302,l),
(233,670,l),
(15,670,l),
(320,-5,l),
(414,-5,l)
);
}
);
width = 734;
},
{
layerId = m002;
shapes = (
{
closed = 1;
nodes = (
(342,84,o),
(630,260,o),
(680,670,c),
(570,670,l),
(240,250,o),
(970,1020,o),
(470,360,cs),
(420,292,o),
(370,90,o),
(340,90,cs),
(308,90,o),
(284,272,o),
(240,330,cs),
(-280,1030,o),
(393,253,o),
(120,670,c),
(10,670,l),
(80,230,o),
(340,100,o),
(320,0,c),
(370,0,l)
);
}
);
width = 691;
},
{
associatedMasterId = m01;
layerId = "E2596EBE-4AF5-451A-9F5C-2CA5DEB11312";
name = DEMOLITION;
shapes = (
{
closed = 1;
nodes = (
(719,670,l),
(501,670,l),
(367,302,l),
(233,670,l),
(15,670,l),
(320,-5,l),
(414,-5,l)
);
}
);
width = 734;
},
{
associatedMasterId = m002;
layerId = "08F692E5-CEE9-4C7B-9F00-FB43420A1625";
name = ExtraBold;
shapes = (
{
closed = 1;
nodes = (
(719,670,l),
(501,670,l),
(367,302,l),
(233,670,l),
(15,670,l),
(320,-5,l),
(414,-5,l)
);
}
);
width = 734;
},
{
associatedMasterId = m002;
layerId = "00E50042-A844-4BE7-8159-2D8AB5296B6D";
name = DEMOLITION;
shapes = (
{
closed = 1;
nodes = (
(580,670,l),
(680,670,l),
(340,20,l),
(0,670,l),
(100,670,l),
(323,0,l),
(368,0,l)
);
}
);
width = 691;
},
{
associatedMasterId = m002;
layerId = "7556F9DF-7F9F-4427-8F5B-34DA194E88D0";
name = DEMOLITION;
shapes = (
{
closed = 1;
nodes = (
(719,670,l),
(501,670,l),
(367,302,l),
(233,670,l),
(15,670,l),
(320,-5,l),
(414,-5,l)
);
}
);
width = 734;
},
{
layerId = m003;
shapes = (
{
closed = 1;
nodes = (
(472,224,o),
(576,446,o),
(681,670,c),
(573,670,l),
(529,572,o),
(485,473,o),
(442,375,cs),
(409,300,o),
(377,226,o),
(344,152,c),
(311,226,o),
(279,300,o),
(247,374,cs),
(204,473,o),
(161,572,o),
(118,670,c),
(10,670,l),
(114,446,o),
(218,224,o),
(323,0,c),
(368,0,l)
);
}
);
width = 691;
},
{
associatedMasterId = m003;
layerId = "E91B2E9F-5A62-49C5-B47D-58AA91E12BFE";
name = ExtraBold;
shapes = (
{
closed = 1;
nodes = (
(719,670,l),
(501,670,l),
(367,302,l),
(233,670,l),
(15,670,l),
(320,-5,l),
(414,-5,l)
);
}
);
width = 734;
},
{
associatedMasterId = m003;
layerId = "5A325C45-1404-4B27-AC85-A239F60CDE3E";
name = DEMOLITION;
shapes = (
{
closed = 1;
nodes = (
(719,670,l),
(501,670,l),
(367,302,l),
(233,670,l),
(15,670,l),
(320,-5,l),
(414,-5,l)
);
}
);
width = 734;
}
);
note = V;
unicode = (86,118);
},
{
glyphname = W;
lastChange = "2024-11-05 09:05:17 +0000";
layers = (
{
layerId = m01;
shapes = (
{
closed = 1;
nodes = (
(470,510,l),
(650,0,l),
(700,0,l),
(934,670,l),
(836,670,l),
(946,592,o),
(818,426,o),
(760,250,cs),
(750,220,o),
(700,52,o),
(690,20,c),
(610,160,o),
(460,430,o),
(500,670,c),
(440,670,l),
(458,668,o),
(442,222,o),
(270,140,cs),
(240,126,o),
(272,54,o),
(260,20,c),
(160,220,o),
(50,500,o),
(108,670,c),
(10,670,l),
(86,446,o),
(160,224,o),
(240,0,c),
(290,0,l)
);
}
);
width = 944;
},
{
associatedMasterId = m01;
layerId = "C5FAC1B4-FC30-4230-AD22-0E3CA9B26410";
name = ExtraBold;
shapes = (
{
closed = 1;
nodes = (
(493,355,l),
(610,0,l),
(751,0,l),
(969,670,l),
(751,670,l),
(662,322,l),
(556,670,l),
(428,670,l),
(324,322,l),
(233,670,l),
(15,670,l),
(235,0,l),
(376,0,l)
);
}
);
width = 984;
},
{
layerId = m002;
shapes = (
{
closed = 1;
nodes = (
(470,510,l),
(650,0,l),
(700,0,l),
(930,670,l),
(790,670,l),
(900,540,o),
(840,460,o),
(810,360,cs),
(770,230,o),
(670,370,o),
(700,170,cs),
(734,-54,o),
(426,460,o),
(500,670,c),
(440,670,l),
(504,500,o),
(300,80,o),
(340,310,cs),
(370,488,o),
(210,310,o),
(270,170,cs),
(366,-54,o),
(0,330,o),
(150,670,c),
(10,670,l),
(86,446,o),
(160,224,o),
(240,0,c),
(290,0,l)
);
}
);
width = 944;
},
{
associatedMasterId = m01;
layerId = "C8CE67AF-B5E0-42B3-B91F-521604FCB563";
name = DEMOLITION;
shapes = (
{
closed = 1;
nodes = (
(493,355,l),
(610,0,l),
(751,0,l),
(969,670,l),
(751,670,l),
(662,322,l),
(556,670,l),
(428,670,l),
(324,322,l),
(233,670,l),
(15,670,l),
(235,0,l),
(376,0,l)
);
}
);
width = 984;
},
{
associatedMasterId = m002;
layerId = "34940E06-D462-4D0D-A68E-67A05E7B845C";
name = ExtraBold;
shapes = (
{
closed = 1;
nodes = (
(493,355,l),
(610,0,l),
(751,0,l),
(969,670,l),
(751,670,l),
(662,322,l),
(556,670,l),
(428,670,l),
(324,322,l),
(233,670,l),
(15,670,l),
(235,0,l),
(376,0,l)
);
}
);
width = 984;
},
{
associatedMasterId = m002;
layerId = "31E6F64C-0095-43CE-A234-5FE81D443AA7";
name = DEMOLITION;
shapes = (
{
closed = 1;
nodes = (
(470,740,l),
(648,0,l),
(699,0,l),
(830,670,l),
(940,670,l),
(672,172,l),
(500,669,l),
(442,670,l),
(265,172,l),
(0,670,l),
(120,670,l),
(235,0,l),
(286,0,l)
);
}
);
width = 944;
},
{
associatedMasterId = m002;
layerId = "7136298D-0075-4591-8F4A-92FB5384A5DD";
name = DEMOLITION;
shapes = (
{
closed = 1;
nodes = (
(493,355,l),
(610,0,l),
(751,0,l),
(969,670,l),
(751,670,l),
(662,322,l),
(556,670,l),
(428,670,l),
(324,322,l),
(233,670,l),
(15,670,l),
(235,0,l),
(376,0,l)
);
}
);
width = 984;
},
{
layerId = m003;
shapes = (
{
closed = 1;
nodes = (
(468,507,l),
(650,0,l),
(700,0,l),
(934,670,l),
(836,670,l),
(792,535,o),
(747,400,o),
(703,265,cs),
(692,234,o),
(682,203,o),
(672,172,c),
(614,338,o),
(558,504,o),
(500,669,c),
(442,670,l),
(396,538,o),
(349,407,o),
(302,275,cs),
(290,241,o),
(277,206,o),
(265,172,c),
(212,338,o),
(160,504,o),
(108,670,c),
(10,670,l),
(86,446,o),
(160,224,o),
(240,0,c),
(290,0,l)
);
}
);
width = 944;
},
{
associatedMasterId = m003;
layerId = "531451A9-111E-4C2E-B651-CA03BEA2C4F3";
name = ExtraBold;
shapes = (
{
closed = 1;
nodes = (
(493,355,l),
(610,0,l),
(751,0,l),
(969,670,l),
(751,670,l),
(662,322,l),
(556,670,l),
(428,670,l),
(324,322,l),
(233,670,l),
(15,670,l),
(235,0,l),
(376,0,l)
);
}
);
width = 984;
},
{
associatedMasterId = m003;
layerId = "8677C5DC-112C-4610-BE18-6F7EDA6BD65C";
name = DEMOLITION;
shapes = (
{
closed = 1;
nodes = (
(493,355,l),
(610,0,l),
(751,0,l),
(969,670,l),
(751,670,l),
(662,322,l),
(556,670,l),
(428,670,l),
(324,322,l),
(233,670,l),
(15,670,l),
(235,0,l),
(376,0,l)
);
}
);
width = 984;
}
);
note = W;
unicode = (87,119);
},
{
glyphname = X;
lastChange = "2024-11-05 08:28:03 +0000";
layers = (
{
layerId = m01;
shapes = (
{
closed = 1;
nodes = (
(152,44,o),
(180,80,o),
(220,140,cs),
(233,159,o),
(254,202,o),
(260,220,cs),
(282,278,o),
(262,276,o),
(280,300,c),
(428,264,o),
(600,26,o),
(514,0,c),
(634,0,l),
(560,150,o),
(400,250,o),
(300,330,c),
(352,478,o),
(506,602,o),
(634,670,c),
(510,670,l),
(478,618,o),
(440,566,o),
(400,510,cs),
(376,476,o),
(318,390,o),
(290,350,c),
(180,440,o),
(0,670,o),
(130,670,c),
(10,670,l),
(94,558,o),
(172,466,o),
(230,340,cs),
(290,210,o),
(188,76,o),
(10,0,c),
(120,0,l)
);
}
);
width = 644;
},
{
associatedMasterId = m01;
layerId = "C5FAC1B4-FC30-4230-AD22-0E3CA9B26410";
name = ExtraBold;
shapes = (
{
closed = 1;
nodes = (
(368,200,l),
(491,0,l),
(721,0,l),
(496,346,l),
(721,670,l),
(491,670,l),
(378,467,l),
(245,670,l),
(15,670,l),
(250,331,l),
(15,0,l),
(245,0,l)
);
}
);
width = 736;
},
{
layerId = m002;
shapes = (
{
closed = 1;
nodes = (
(-114,104,o),
(178,318,o),
(100,200,cs),
(20,80,o),
(170,150,o),
(240,240,cs),
(292,308,o),
(180,524,o),
(310,320,cs),
(372,222,o),
(538,122,o),
(460,0,c),
(620,0,l),
(530,110,o),
(350,250,o),
(350,310,cs),
(350,390,o),
(620,510,o),
(630,670,c),
(450,670,l),
(560,650,o),
(510,506,o),
(540,570,cs),
(630,764,o),
(602,516,o),
(350,370,cs),
(280,330,o),
(120,590,o),
(210,670,c),
(50,670,l),
(134,558,o),
(284,444,o),
(220,330,cs),
(170,240,o),
(10,282,o),
(0,0,c),
(180,0,l)
);
}
);
width = 644;
},
{
associatedMasterId = m01;
layerId = "D40B83A4-AAB5-4741-82AE-D610FEAC0AAE";
name = DEMOLITION;
shapes = (
{
closed = 1;
nodes = (
(368,200,l),
(491,0,l),
(721,0,l),
(496,346,l),
(721,670,l),
(491,670,l),
(378,467,l),
(245,670,l),
(15,670,l),
(250,331,l),
(15,0,l),
(245,0,l)
);
}
);
width = 736;
},
{
associatedMasterId = m002;
layerId = "C54F4D53-6CC4-43AD-8BB0-F1B54D6B0C94";
name = ExtraBold;
shapes = (
{
closed = 1;
nodes = (
(368,200,l),
(491,0,l),
(721,0,l),
(496,346,l),
(721,670,l),
(491,670,l),
(378,467,l),
(245,670,l),
(15,670,l),
(250,331,l),
(15,0,l),
(245,0,l)
);
}
);
width = 736;
},
{
associatedMasterId = m002;
layerId = "1214445E-BF7F-4521-A18D-C255BB09BF5D";
name = DEMOLITION;
shapes = (
{
closed = 1;
nodes = (
(320,300,l),
(640,0,l),
(480,0,l),
(350,330,l),
(490,670,l),
(630,670,l),
(320,370,l),
(10,670,l),
(130,670,l),
(300,330,l),
(150,0,l),
(-10,0,l)
);
}
);
width = 644;
},
{
associatedMasterId = m002;
layerId = "3AE5DF7A-7DBF-4C80-A8E8-74F52A90BD6C";
name = DEMOLITION;
shapes = (
{
closed = 1;
nodes = (
(368,200,l),
(491,0,l),
(721,0,l),
(496,346,l),
(721,670,l),
(491,670,l),
(378,467,l),
(245,670,l),
(15,670,l),
(250,331,l),
(15,0,l),
(245,0,l)
);
}
);
width = 736;
},
{
layerId = m003;
shapes = (
{
closed = 1;
nodes = (
(152,44,o),
(180,80,o),
(220,140,cs),
(233,159,o),
(246,176,o),
(259,193,cs),
(276,215,o),
(294,237,o),
(312,262,c),
(380,174,o),
(446,88,o),
(514,0,c),
(634,0,l),
(546,108,o),
(458,216,o),
(371,325,c),
(458,440,o),
(546,556,o),
(634,670,c),
(510,670,l),
(478,618,o),
(440,566,o),
(400,510,cs),
(376,476,o),
(348,436,o),
(320,397,c),
(256,488,o),
(194,580,o),
(130,670,c),
(10,670,l),
(94,558,o),
(178,446,o),
(261,335,c),
(178,224,o),
(94,112,o),
(10,0,c),
(120,0,l)
);
}
);
width = 644;
},
{
associatedMasterId = m003;
layerId = "2C69720B-2756-46C7-98E4-042CC1EB2CBE";
name = ExtraBold;
shapes = (
{
closed = 1;
nodes = (
(368,200,l),
(491,0,l),
(721,0,l),
(496,346,l),
(721,670,l),
(491,670,l),
(378,467,l),
(245,670,l),
(15,670,l),
(250,331,l),
(15,0,l),
(245,0,l)
);
}
);
width = 736;
},
{
associatedMasterId = m003;
layerId = "0215403E-2F9B-4FE6-8305-CC995FF383DA";
name = DEMOLITION;
shapes = (
{
closed = 1;
nodes = (
(368,200,l),
(491,0,l),
(721,0,l),
(496,346,l),
(721,670,l),
(491,670,l),
(378,467,l),
(245,670,l),
(15,670,l),
(250,331,l),
(15,0,l),
(245,0,l)
);
}
);
width = 736;
}
);
note = X;
unicode = (88,120);
},
{
glyphname = Y;
lastChange = "2024-11-05 08:55:34 +0000";
layers = (
{
layerId = m01;
shapes = (
{
closed = 1;
nodes = (
(418,372,o),
(522,520,o),
(621,670,c),
(513,670,l),
(670,670,o),
(320,240,o),
(310,240,cs),
(290,240,o),
(10,630,o),
(80,670,c),
(10,670,l),
(98,518,o),
(200,370,o),
(300,220,c),
(320,220,l)
);
},
{
closed = 1;
nodes = (
(320,220,l),
(300,220,l),
(340,-10,o),
(280,100,o),
(290,0,c),
(330,0,l)
);
}
);
width = 631;
},
{
associatedMasterId = m01;
layerId = "C5FAC1B4-FC30-4230-AD22-0E3CA9B26410";
name = ExtraBold;
shapes = (
{
closed = 1;
nodes = (
(726,670,l),
(508,670,l),
(371,409,l),
(233,670,l),
(15,670,l),
(315,167,l),
(426,167,l)
);
},
{
closed = 1;
nodes = (
(464,254,l),
(277,254,l),
(277,0,l),
(464,0,l)
);
}
);
width = 741;
},
{
layerId = m002;
shapes = (
{
closed = 1;
nodes = (
(454,342,o),
(536,512,o),
(620,670,c),
(480,670,l),
(530,520,o),
(370,170,o),
(330,170,cs),
(260,170,o),
(52,580,o),
(160,670,c),
(10,670,l),
(106,520,o),
(140,440,o),
(280,170,c),
(320,80,l)
);
},
{
closed = 1;
nodes = (
(320,80,l),
(230,180,ls),
(106,318,o),
(144,128,o),
(200,0,c),
(280,0,l)
);
}
);
width = 631;
},
{
associatedMasterId = m01;
layerId = "44BBA7CE-1B89-4108-B65F-1F455A38913A";
name = DEMOLITION;
shapes = (
{
closed = 1;
nodes = (
(726,670,l),
(508,670,l),
(371,409,l),
(233,670,l),
(15,670,l),
(315,167,l),
(426,167,l)
);
},
{
closed = 1;
nodes = (
(464,254,l),
(277,254,l),
(277,0,l),
(464,0,l)
);
}
);
width = 741;
},
{
associatedMasterId = m002;
layerId = "F84EE4A8-9CDC-4D1D-9AB9-A5FA8A99597A";
name = ExtraBold;
shapes = (
{
closed = 1;
nodes = (
(726,670,l),
(508,670,l),
(371,409,l),
(233,670,l),
(15,670,l),
(315,167,l),
(426,167,l)
);
},
{
closed = 1;
nodes = (
(464,254,l),
(277,254,l),
(277,0,l),
(464,0,l)
);
}
);
width = 741;
},
{
associatedMasterId = m002;
layerId = "8E58B08A-CCA2-40A2-AD29-056921DE54F5";
name = DEMOLITION;
shapes = (
{
closed = 1;
nodes = (
(510,670,l),
(620,670,l),
(310,300,l),
(10,670,l),
(130,670,l),
(190,300,l),
(390,440,l)
);
},
{
closed = 1;
nodes = (
(300,280,l),
(260,330,l),
(160,0,l),
(70,0,l)
);
}
);
width = 631;
},
{
associatedMasterId = m002;
layerId = "7BF9611F-698C-42C8-A4BD-A0CDE392DC9B";
name = DEMOLITION;
shapes = (
{
closed = 1;
nodes = (
(726,670,l),
(508,670,l),
(371,409,l),
(233,670,l),
(15,670,l),
(315,167,l),
(426,167,l)
);
},
{
closed = 1;
nodes = (
(464,254,l),
(277,254,l),
(277,0,l),
(464,0,l)
);
}
);
width = 741;
},
{
layerId = m003;
shapes = (
{
closed = 1;
nodes = (
(424,368,o),
(522,520,o),
(621,670,c),
(513,670,l),
(446,564,o),
(380,460,o),
(314,354,c),
(248,460,o),
(184,564,o),
(118,670,c),
(10,670,l),
(106,520,o),
(200,368,o),
(295,217,c),
(326,217,l)
);
},
{
closed = 1;
nodes = (
(364,304,l),
(267,304,l),
(268,202,o),
(268,102,o),
(267,0,c),
(364,0,l)
);
}
);
width = 631;
},
{
associatedMasterId = m003;
layerId = "FFC7D3C5-E1DE-4C66-8D20-406E2654EF27";
name = ExtraBold;
shapes = (
{
closed = 1;
nodes = (
(726,670,l),
(508,670,l),
(371,409,l),
(233,670,l),
(15,670,l),
(315,167,l),
(426,167,l)
);
},
{
closed = 1;
nodes = (
(464,254,l),
(277,254,l),
(277,0,l),
(464,0,l)
);
}
);
width = 741;
},
{
associatedMasterId = m003;
layerId = "02500C1A-35EE-4A50-A350-D1580268E3C2";
name = DEMOLITION;
shapes = (
{
closed = 1;
nodes = (
(726,670,l),
(508,670,l),
(371,409,l),
(233,670,l),
(15,670,l),
(315,167,l),
(426,167,l)
);
},
{
closed = 1;
nodes = (
(464,254,l),
(277,254,l),
(277,0,l),
(464,0,l)
);
}
);
width = 741;
}
);
note = Y;
unicode = (89,121);
},
{
glyphname = Z;
lastChange = "2024-11-05 09:05:32 +0000";
layers = (
{
layerId = m01;
shapes = (
{
closed = 1;
nodes = (
(582,26,o),
(582,-6,o),
(580,20,c),
(446,0,o),
(216,2,o),
(80,20,c),
(138,204,o),
(356,452,o),
(583,634,c),
(583,670,l),
(412,670,o),
(240,670,o),
(68,670,c),
(70,590,l),
(62,734,o),
(380,610,o),
(570,660,c),
(272,394,o),
(160,228,o),
(100,110,cs),
(90,90,o),
(68,140,o),
(60,130,cs),
(56,124,o),
(50,130,o),
(45,36,c),
(45,0,l),
(583,0,l)
);
}
);
width = 628;
},
{
associatedMasterId = m01;
layerId = "C5FAC1B4-FC30-4230-AD22-0E3CA9B26410";
name = ExtraBold;
shapes = (
{
closed = 1;
nodes = (
(639,165,l),
(354,165,l),
(639,634,l),
(639,670,l),
(72,670,l),
(72,505,l),
(334,505,l),
(50,36,l),
(50,0,l),
(639,0,l)
);
}
);
width = 699;
},
{
layerId = m002;
shapes = (
{
closed = 1;
nodes = (
(538,96,o),
(534,154,o),
(580,210,c),
(300,-90,o),
(160,-20,o),
(190,270,cs),
(250,844,o),
(526,-284,o),
(590,540,cs),
(600,670,l),
(496,610,o),
(366,720,o),
(70,670,c),
(70,490,l),
(140,710,o),
(590,710,o),
(580,540,cs),
(540,-158,o),
(116,1018,o),
(60,150,cs),
(56,66,o),
(260,-10,o),
(110,20,cs),
(60,30,o),
(42,64,o),
(40,80,c),
(40,0,l),
(580,0,l)
);
}
);
width = 628;
},
{
associatedMasterId = m01;
layerId = "695D1120-D962-426A-B293-243D4768BEDD";
name = DEMOLITION;
shapes = (
{
closed = 1;
nodes = (
(639,165,l),
(354,165,l),
(639,634,l),
(639,670,l),
(72,670,l),
(72,505,l),
(334,505,l),
(50,36,l),
(50,0,l),
(639,0,l)
);
}
);
width = 699;
},
{
associatedMasterId = m002;
layerId = "45C1707D-3475-4580-B7AC-1AE7C8482CBF";
name = ExtraBold;
shapes = (
{
closed = 1;
nodes = (
(639,165,l),
(354,165,l),
(639,634,l),
(639,670,l),
(72,670,l),
(72,505,l),
(334,505,l),
(50,36,l),
(50,0,l),
(639,0,l)
);
}
);
width = 699;
},
{
associatedMasterId = m002;
layerId = "35F23957-CF60-44D7-BE37-4F19163ED0E2";
name = DEMOLITION;
shapes = (
{
closed = 1;
nodes = (
(580,0,l),
(20,30,l),
(583,634,l),
(583,670,l),
(70,570,l),
(70,670,l),
(438,585,l),
(45,36,l),
(45,0,l),
(580,90,l)
);
}
);
width = 628;
},
{
associatedMasterId = m002;
layerId = "34231523-DD8A-4275-8C99-283306B7C89E";
name = DEMOLITION;
shapes = (
{
closed = 1;
nodes = (
(639,165,l),
(354,165,l),
(639,634,l),
(639,670,l),
(72,670,l),
(72,505,l),
(334,505,l),
(50,36,l),
(50,0,l),
(639,0,l)
);
}
);
width = 699;
},
{
layerId = m003;
shapes = (
{
closed = 1;
nodes = (
(582,26,o),
(582,54,o),
(580,80,c),
(446,82,o),
(316,82,o),
(180,80,c),
(316,264,o),
(448,452,o),
(583,634,c),
(583,670,l),
(412,670,o),
(240,670,o),
(68,670,c),
(70,590,l),
(194,592,o),
(316,592,o),
(440,590,c),
(314,414,o),
(208,258,o),
(80,80,cs),
(78,77,o),
(71,69,o),
(64,60,cs),
(56,50,o),
(47,39,o),
(45,36,c),
(45,0,l),
(583,0,l)
);
}
);
width = 628;
},
{
associatedMasterId = m003;
layerId = "5878B6FE-BFF6-464E-9467-1AAC4328E13B";
name = ExtraBold;
shapes = (
{
closed = 1;
nodes = (
(639,165,l),
(354,165,l),
(639,634,l),
(639,670,l),
(72,670,l),
(72,505,l),
(334,505,l),
(50,36,l),
(50,0,l),
(639,0,l)
);
}
);
width = 699;
},
{
associatedMasterId = m003;
layerId = "66F5576A-55A7-426E-8C85-E852B17E30A6";
name = DEMOLITION;
shapes = (
{
closed = 1;
nodes = (
(639,165,l),
(354,165,l),
(639,634,l),
(639,670,l),
(72,670,l),
(72,505,l),
(334,505,l),
(50,36,l),
(50,0,l),
(639,0,l)
);
}
);
width = 699;
}
);
note = Z;
unicode = (90,122);
},
{
glyphname = zero;
lastChange = "2024-11-04 22:16:22 +0000";
layers = (
{
layerId = m01;
shapes = (
{
closed = 1;
nodes = (
(438,45,o),
(500,146,o),
(531,271,o),
(531,335,qs),
(531,400,o),
(500,524,o),
(438,625,o),
(343,685,o),
(278,685,qs),
(214,685,o),
(118,625,o),
(56,524,o),
(25,400,o),
(25,335,qs),
(25,271,o),
(56,146,o),
(118,45,o),
(216,-10,o),
(280,-10,qs),
(346,-10,o)
);
},
{
closed = 1;
nodes = (
(130,40,o),
(60,160,o),
(38,282,o),
(40,330,qs),
(50,540,o),
(132,477,o),
(174,552,o),
(160,680,o),
(280,680,qs),
(322,680,o),
(450,610,o),
(510,480,o),
(530,370,o),
(520,320,qs),
(484,144,o),
(424,193,o),
(382,118,o),
(322,0,o),
(280,0,qs),
(240,0,o)
);
}
);
width = 550;
},
{
layerId = m002;
shapes = (
{
closed = 1;
nodes = (
(438,45,o),
(500,146,o),
(531,271,o),
(531,335,qs),
(531,400,o),
(500,524,o),
(438,625,o),
(343,685,o),
(278,685,qs),
(214,685,o),
(118,625,o),
(56,524,o),
(25,400,o),
(25,335,qs),
(25,271,o),
(56,146,o),
(118,46,o),
(216,0,o),
(280,0,qs),
(346,0,o)
);
},
{
closed = 1;
nodes = (
(140,190,o),
(150,290,o),
(260,238,o),
(230,330,qs),
(214,378,o),
(132,477,o),
(170,630,o),
(240,680,o),
(280,680,qs),
(322,680,o),
(460,570,o),
(450,270,o),
(520,470,o),
(520,330,qs),
(520,270,o),
(424,193,o),
(400,30,o),
(318,0,o),
(280,10,qs),
(200,30,o)
);
}
);
width = 550;
},
{
layerId = m003;
shapes = (
{
closed = 1;
nodes = (
(438,45,o),
(500,146,o),
(531,271,o),
(531,335,qs),
(531,400,o),
(500,524,o),
(438,625,o),
(343,685,o),
(278,685,qs),
(214,685,o),
(118,625,o),
(56,524,o),
(25,400,o),
(25,335,qs),
(25,271,o),
(56,146,o),
(118,45,o),
(214,-15,o),
(278,-15,qs),
(343,-15,o)
);
},
{
closed = 1;
nodes = (
(174,118,o),
(132,193,o),
(110,286,o),
(110,335,qs),
(110,384,o),
(132,477,o),
(174,552,o),
(237,597,o),
(278,597,qs),
(319,597,o),
(382,552,o),
(424,477,o),
(446,384,o),
(446,335,qs),
(446,286,o),
(424,193,o),
(382,118,o),
(319,73,o),
(278,73,qs),
(237,73,o)
);
}
);
width = 550;
}
);
note = zero;
unicode = 48;
},
{
glyphname = one;
lastChange = "2024-11-04 22:18:45 +0000";
layers = (
{
layerId = m01;
shapes = (
{
closed = 1;
nodes = (
(330,240,o),
(332,446,o),
(331,670,c),
(287,670,l),
(259,633,o),
(174,566,o),
(115,550,q),
(110,540,l),
(180,530,o),
(320,682,o),
(320,650,qs),
(332,128,o),
(250,30,o),
(320,0,c),
(331,0,l)
);
},
{
closed = 1;
nodes = (
(470,10,l),
(110,10,l),
(108,0,l),
(471,0,l)
);
}
);
width = 550;
},
{
layerId = m002;
shapes = (
{
closed = 1;
nodes = (
(320,224,o),
(320,446,o),
(320,670,c),
(280,670,l),
(250,634,o),
(164,566,o),
(110,550,q),
(110,460,l),
(138,470,o),
(202,570,o),
(230,600,q),
(338,696,o),
(210,370,o),
(230,0,c),
(320,0,l)
);
},
{
closed = 1;
nodes = (
(400,10,l),
(160,10,l),
(160,0,l),
(400,0,l)
);
}
);
width = 480;
},
{
layerId = m003;
shapes = (
{
closed = 1;
nodes = (
(332,224,o),
(332,446,o),
(331,670,c),
(287,670,l),
(259,633,o),
(173,565,o),
(115,550,q),
(115,464,l),
(147,470,o),
(211,490,o),
(241,516,q),
(242,344,o),
(242,172,o),
(241,0,c),
(331,0,l)
);
},
{
closed = 1;
nodes = (
(471,80,l),
(108,80,l),
(108,0,l),
(471,0,l)
);
}
);
width = 550;
}
);
note = one;
unicode = 49;
},
{
glyphname = two;
lastChange = "2024-11-04 22:20:03 +0000";
layers = (
{
layerId = m01;
shapes = (
{
closed = 1;
nodes = (
(483,83,l),
(470,-30,o),
(210,20,o),
(100,30,cs),
(60,34,o),
(350,190,o),
(440,349,o),
(478,438,o),
(478,487,qs),
(478,548,o),
(422,637,o),
(322,685,o),
(256,685,qs),
(199,685,o),
(109,640,o),
(83,616,q),
(83,522,l),
(112,548,o),
(202,680,o),
(250,680,qs),
(310,680,o),
(470,590,o),
(470,470,qs),
(470,400,o),
(350,230,o),
(180,100,o),
(60,40,q),
(63,0,l),
(483,0,l)
);
}
);
width = 550;
},
{
layerId = m002;
shapes = (
{
closed = 1;
nodes = (
(480,210,l),
(472,70,o),
(252,30,o),
(250,30,cs),
(-38,-30,o),
(312,380,o),
(372,150,o),
(502,360,o),
(480,490,qs),
(472,550,o),
(424,638,o),
(324,686,o),
(260,690,qs),
(202,686,o),
(112,640,o),
(80,620,q),
(80,470,l),
(114,498,o),
(252,678,o),
(300,680,qs),
(360,678,o),
(406,572,o),
(400,510,qs),
(382,100,o),
(302,480,o),
(52,210,o),
(60,100,q),
(60,0,l),
(480,0,l)
);
}
);
width = 560;
},
{
layerId = m003;
shapes = (
{
closed = 1;
nodes = (
(483,83,l),
(392,84,o),
(300,84,o),
(208,83,c),
(270,150,o),
(369,257,o),
(440,349,o),
(478,438,o),
(478,487,qs),
(478,548,o),
(422,637,o),
(322,685,o),
(256,685,qs),
(199,685,o),
(109,640,o),
(83,616,q),
(83,522,l),
(112,548,o),
(199,597,o),
(248,597,qs),
(308,597,o),
(393,532,o),
(393,467,qs),
(393,423,o),
(313,309,o),
(165,150,o),
(63,36,q),
(63,0,l),
(483,0,l)
);
}
);
width = 550;
}
);
note = two;
unicode = 50;
},
{
glyphname = three;
lastChange = "2024-11-04 22:38:16 +0000";
layers = (
{
layerId = m01;
shapes = (
{
closed = 1;
nodes = (
(417,37,o),
(470,128,o),
(470,180,qs),
(470,220,o),
(429,294,o),
(367,335,o),
(341,342,q),
(367,349,o),
(429,385,o),
(474,447,o),
(474,492,qs),
(474,548,o),
(415,635,o),
(312,685,o),
(246,685,qs),
(200,685,o),
(117,653,o),
(91,629,q),
(91,530,l),
(120,559,o),
(180,670,o),
(240,680,qs),
(280,686,o),
(400,650,o),
(470,526,o),
(470,490,qs),
(470,440,o),
(410,370,o),
(276,322,o),
(220,360,qs),
(186,383,l),
(190,300,l),
(220,320,ls),
(250,340,o),
(410,330,o),
(490,150,o),
(410,120,qs),
(340,94,o),
(308,-4,o),
(250,-10,qs),
(150,-20,o),
(90,80,o),
(80,110,o),
(71,148,q),
(71,49,l),
(97,25,o),
(192,-20,o),
(250,-20,qs),
(316,-20,o)
);
}
);
width = 550;
},
{
layerId = m002;
shapes = (
{
closed = 1;
nodes = (
(418,38,o),
(474,128,o),
(470,180,qs),
(474,228,o),
(430,294,o),
(368,336,o),
(340,340,q),
(368,350,o),
(430,386,o),
(474,448,o),
(470,490,qs),
(474,548,o),
(416,636,o),
(312,686,o),
(250,690,qs),
(200,686,o),
(118,654,o),
(90,630,q),
(90,530,l),
(120,560,o),
(202,684,o),
(250,680,qs),
(294,684,o),
(350,574,o),
(450,510,o),
(460,480,qs),
(470,450,o),
(420,380,o),
(308,340,o),
(220,370,qs),
(190,380,l),
(190,300,l),
(220,310,ls),
(280,330,o),
(380,330,o),
(468,246,o),
(440,210,qs),
(400,160,o),
(312,-4,o),
(250,0,qs),
(208,-4,o),
(144,94,o),
(94,132,o),
(70,150,q),
(70,50,l),
(98,26,o),
(190,-14,o),
(250,-10,qs),
(316,-14,o)
);
}
);
width = 550;
},
{
layerId = m003;
shapes = (
{
closed = 1;
nodes = (
(417,37,o),
(474,127,o),
(474,183,qs),
(474,228,o),
(429,294,o),
(367,335,o),
(341,342,q),
(367,349,o),
(429,385,o),
(474,447,o),
(474,492,qs),
(474,548,o),
(415,635,o),
(312,685,o),
(246,685,qs),
(200,685,o),
(117,653,o),
(91,629,q),
(91,530,l),
(120,559,o),
(191,604,o),
(243,604,qs),
(283,604,o),
(349,574,o),
(389,522,o),
(389,487,qs),
(389,455,o),
(352,408,o),
(288,383,o),
(246,383,qs),
(186,383,l),
(186,303,l),
(246,303,ls),
(283,303,o),
(348,273,o),
(389,221,o),
(389,188,qs),
(389,130,o),
(311,66,o),
(251,66,qs),
(208,66,o),
(144,94,o),
(94,132,o),
(71,148,q),
(71,49,l),
(97,25,o),
(190,-15,o),
(249,-15,qs),
(315,-15,o)
);
}
);
width = 550;
}
);
note = three;
unicode = 51;
},
{
glyphname = four;
lastChange = "2024-11-04 22:40:14 +0000";
layers = (
{
layerId = m01;
shapes = (
{
closed = 1;
nodes = (
(420,50,o),
(420,70,o),
(420,120,cs),
(420,156,o),
(410,160,o),
(530,150,c),
(530,160,l),
(420,160,l),
(398,306,o),
(380,580,o),
(423,670,c),
(390,670,l),
(338,570,o),
(190,420,o),
(110,258,o),
(60,190,qs),
(30,150,ls),
(-26,74,o),
(218,150,o),
(330,150,cs),
(450,150,o),
(410,80,o),
(410,0,c),
(420,0,l)
);
},
{
closed = 1;
nodes = (
(350,580,o),
(390,650,q),
(392,574,o),
(390,240,o),
(410,160,c),
(180,140,ls),
(-8,124,o)
);
}
);
width = 550;
},
{
layerId = m002;
shapes = (
{
closed = 1;
nodes = (
(422,168,o),
(316,218,o),
(350,220,cs),
(490,230,o),
(506,188,o),
(530,150,c),
(530,220,l),
(380,230,ls),
(260,238,o),
(342,450,o),
(420,670,c),
(390,670,l),
(338,570,o),
(214,392,o),
(80,200,o),
(30,240,q),
(70,200,l),
(162,178,o),
(352,294,o),
(350,160,c),
(350,110,o),
(270,50,o),
(270,0,c),
(420,0,l)
);
},
{
closed = 1;
nodes = (
(340,550,o),
(330,450,q),
(300,304,o),
(324,234,o),
(280,230,cs),
(170,220,l),
(80,210,o)
);
}
);
width = 550;
},
{
layerId = m003;
shapes = (
{
closed = 1;
nodes = (
(420,50,o),
(420,100,o),
(420,150,c),
(456,150,o),
(494,150,o),
(530,150,c),
(530,220,l),
(423,224,l),
(424,372,o),
(424,522,o),
(423,670,c),
(390,670,l),
(338,569,o),
(213,392,o),
(88,242,o),
(30,180,q),
(30,150,l),
(120,152,o),
(216,152,o),
(330,150,c),
(330,100,o),
(330,50,o),
(330,0,c),
(420,0,l)
);
},
{
closed = 1;
nodes = (
(293,388,o),
(333,450,q),
(334,374,o),
(334,300,o),
(330,220,c),
(170,220,l),
(214,270,o)
);
}
);
width = 550;
}
);
note = four;
unicode = 52;
},
{
glyphname = five;
lastChange = "2024-11-04 22:43:02 +0000";
layers = (
{
layerId = m01;
shapes = (
{
closed = 1;
nodes = (
(426,44,o),
(490,149,o),
(490,217,qs),
(490,276,o),
(433,368,o),
(340,422,o),
(284,422,qs),
(253,422,o),
(136,358,o),
(120,350,q),
(120,600,ls),
(120,676,o),
(80,680,o),
(460,650,c),
(460,670,l),
(109,670,l),
(118,550,o),
(120,470,o),
(110,350,cs),
(108,320,o),
(180,380,o),
(238,342,qs),
(274,318,o),
(360,410,o),
(490,310,o),
(480,210,qs),
(476,166,o),
(360,120,o),
(380,0,o),
(240,0,qs),
(170,0,o),
(110,30,o),
(70,110,o),
(63,153,q),
(63,54,l),
(81,38,o),
(137,6,o),
(204,-10,o),
(240,-10,qs),
(312,-10,o)
);
}
);
width = 550;
},
{
layerId = m002;
shapes = (
{
closed = 1;
nodes = (
(426,44,o),
(490,150,o),
(490,220,qs),
(490,276,o),
(434,368,o),
(340,422,o),
(280,420,qs),
(254,422,o),
(120,370,o),
(120,480,q),
(120,500,ls),
(120,614,o),
(320,800,o),
(460,510,c),
(460,670,l),
(120,670,ls),
(0,670,o),
(160,480,o),
(110,310,c),
(138,324,o),
(270,412,o),
(310,410,qs),
(354,412,o),
(360,310,o),
(476,250,o),
(480,210,qs),
(476,166,o),
(362,102,o),
(220,80,o),
(260,50,qs),
(340,-10,o),
(140,0,o),
(82,138,o),
(60,150,q),
(60,50,l),
(82,38,o),
(138,6,o),
(208,-14,o),
(240,-10,qs),
(314,-14,o)
);
}
);
width = 550;
},
{
layerId = m003;
shapes = (
{
closed = 1;
nodes = (
(426,44,o),
(490,149,o),
(490,217,qs),
(490,276,o),
(433,368,o),
(340,422,o),
(284,422,qs),
(253,422,o),
(214,414,o),
(199,408,q),
(199,587,l),
(288,588,o),
(376,588,o),
(463,587,c),
(463,670,l),
(109,670,l),
(110,550,o),
(110,432,o),
(109,312,c),
(137,323,o),
(200,342,o),
(238,342,qs),
(283,342,o),
(359,309,o),
(405,250,o),
(405,209,qs),
(405,166,o),
(362,102,o),
(288,66,o),
(243,66,qs),
(204,66,o),
(136,97,o),
(82,138,o),
(63,153,q),
(63,54,l),
(81,38,o),
(137,6,o),
(207,-15,o),
(243,-15,qs),
(314,-15,o)
);
}
);
width = 550;
}
);
note = five;
unicode = 53;
},
{
glyphname = six;
lastChange = "2024-11-05 08:12:46 +0000";
layers = (
{
layerId = m01;
shapes = (
{
closed = 1;
nodes = (
(426,28,o),
(486,98,o),
(516,184,o),
(520,230,qs),
(516,282,o),
(466,376,o),
(372,432,o),
(310,440,qs),
(240,450,o),
(112,386,o),
(90,350,q),
(102,394,o),
(150,490,o),
(250,610,o),
(340,660,o),
(440,670,q),
(310,670,l),
(288,650,o),
(224,584,o),
(152,500,o),
(88,402,o),
(48,298,o),
(50,240,qs),
(48,164,o),
(114,48,o),
(230,-20,o),
(280,-20,qs),
(330,-20,o)
);
},
{
closed = 1;
nodes = (
(130,60,o),
(80,170,o),
(80,230,qs),
(80,280,o),
(120,380,o),
(248,444,o),
(280,440,qs),
(322,444,o),
(440,240,o),
(512,258,o),
(510,220,qs),
(512,172,o),
(450,40,o),
(322,0,o),
(280,0,qs),
(240,0,o)
);
}
);
width = 550;
},
{
layerId = m002;
shapes = (
{
closed = 1;
nodes = (
(426,28,o),
(486,98,o),
(516,184,o),
(520,230,qs),
(516,282,o),
(466,376,o),
(372,436,o),
(310,440,qs),
(258,436,o),
(182,386,o),
(160,350,q),
(120,390,o),
(150,490,o),
(240,600,o),
(410,642,o),
(440,670,q),
(310,670,l),
(288,650,o),
(224,584,o),
(152,500,o),
(88,402,o),
(48,298,o),
(50,240,qs),
(48,164,o),
(114,48,o),
(222,-14,o),
(290,-10,qs),
(342,-14,o)
);
},
{
closed = 1;
nodes = (
(178,104,o),
(134,172,o),
(130,220,qs),
(134,258,o),
(178,320,o),
(278,434,o),
(310,430,qs),
(352,434,o),
(390,320,o),
(512,258,o),
(510,220,qs),
(512,172,o),
(430,50,o),
(322,-4,o),
(280,0,qs),
(248,-4,o)
);
}
);
width = 550;
},
{
layerId = m003;
shapes = (
{
closed = 1;
nodes = (
(426,28,o),
(486,98,o),
(516,184,o),
(520,230,qs),
(516,282,o),
(466,376,o),
(372,436,o),
(310,440,qs),
(258,436,o),
(182,386,o),
(160,350,q),
(172,394,o),
(240,480,o),
(326,566,o),
(410,642,o),
(440,670,q),
(310,670,l),
(288,650,o),
(224,584,o),
(152,500,o),
(88,402,o),
(48,298,o),
(50,240,qs),
(48,164,o),
(114,48,o),
(222,-14,o),
(290,-10,qs),
(342,-14,o)
);
},
{
closed = 1;
nodes = (
(178,104,o),
(134,172,o),
(130,220,qs),
(134,258,o),
(178,320,o),
(248,354,o),
(280,350,qs),
(322,354,o),
(390,320,o),
(432,258,o),
(430,220,qs),
(432,172,o),
(390,104,o),
(322,66,o),
(280,70,qs),
(248,66,o)
);
}
);
width = 550;
}
);
note = six;
unicode = 54;
},
{
glyphname = seven;
lastChange = "2024-11-05 08:14:06 +0000";
layers = (
{
layerId = m01;
shapes = (
{
closed = 1;
nodes = (
(160,10,o),
(180,190,o),
(290,410,o),
(440,540,o),
(510,630,q),
(510,670,l),
(50,670,l),
(50,590,l),
(90,680,o),
(342,662,o),
(460,660,cs),
(544,658,o),
(260,390,o),
(194,240,o),
(150,88,o),
(150,0,q),
(250,0,l)
);
}
);
width = 550;
},
{
layerId = m002;
shapes = (
{
closed = 1;
nodes = (
(200,90,o),
(200,220,o),
(260,380,o),
(451,538,o),
(514,628,q),
(514,670,l),
(51,670,l),
(51,587,l),
(190,698,o),
(450,650,o),
(450,630,cs),
(450,570,o),
(240,360,o),
(193,240,o),
(149,87,o),
(149,0,q),
(252,0,l)
);
}
);
width = 550;
},
{
layerId = m003;
shapes = (
{
closed = 1;
nodes = (
(252,84,o),
(287,234,o),
(354,382,o),
(451,538,o),
(514,628,q),
(514,670,l),
(51,670,l),
(51,587,l),
(170,588,o),
(288,588,o),
(407,587,c),
(360,517,o),
(268,381,o),
(193,240,o),
(149,87,o),
(149,0,q),
(252,0,l)
);
}
);
width = 550;
}
);
note = seven;
unicode = 55;
},
{
glyphname = eight;
lastChange = "2024-11-05 08:16:40 +0000";
layers = (
{
layerId = m01;
shapes = (
{
closed = 1;
nodes = (
(441,39,o),
(496,131,o),
(496,187,qs),
(496,225,o),
(464,290,o),
(411,339,o),
(379,353,q),
(420,376,o),
(476,449,o),
(476,507,qs),
(476,560,o),
(422,640,o),
(331,685,o),
(275,685,qs),
(219,685,o),
(128,640,o),
(74,560,o),
(74,507,qs),
(74,449,o),
(131,376,o),
(171,353,q),
(140,339,o),
(86,290,o),
(54,225,o),
(54,187,qs),
(54,131,o),
(110,40,o),
(214,-20,o),
(280,-20,qs),
(346,-20,o)
);
},
{
closed = 1;
nodes = (
(120,30,o),
(50,160,o),
(70,190,qs),
(88,218,o),
(160,330,o),
(234,356,o),
(250,330,qs),
(280,280,o),
(372,280,o),
(470,290,o),
(480,190,qs),
(484,150,o),
(410,190,o),
(320,0,o),
(280,0,qs),
(238,0,o)
);
},
{
closed = 1;
nodes = (
(160,510,o),
(90,470,o),
(90,500,qs),
(90,532,o),
(140,630,o),
(242,670,o),
(270,670,qs),
(300,670,o),
(420,500,o),
(462,532,o),
(460,500,qs),
(462,470,o),
(400,390,o),
(300,360,o),
(270,360,qs),
(242,360,o)
);
}
);
width = 550;
},
{
layerId = m002;
shapes = (
{
closed = 1;
nodes = (
(442,40,o),
(496,132,o),
(500,190,qs),
(496,226,o),
(464,290,o),
(412,340,o),
(380,350,q),
(420,376,o),
(476,450,o),
(480,510,qs),
(476,560,o),
(422,640,o),
(332,686,o),
(280,690,qs),
(220,686,o),
(128,640,o),
(74,560,o),
(70,510,qs),
(74,450,o),
(132,376,o),
(170,350,q),
(140,340,o),
(86,290,o),
(54,226,o),
(50,190,qs),
(54,132,o),
(110,40,o),
(210,-14,o),
(280,-10,qs),
(342,-14,o)
);
},
{
closed = 1;
nodes = (
(176,102,o),
(170,170,o),
(170,200,qs),
(170,236,o),
(180,280,o),
(242,312,o),
(280,310,qs),
(310,312,o),
(440,320,o),
(482,236,o),
(480,200,qs),
(482,170,o),
(376,102,o),
(314,-4,o),
(280,0,qs),
(238,-4,o)
);
},
{
closed = 1;
nodes = (
(130,390,o),
(70,480,o),
(80,540,qs),
(84,568,o),
(194,576,o),
(248,684,o),
(280,680,qs),
(304,684,o),
(420,640,o),
(442,528,o),
(440,500,qs),
(442,466,o),
(380,380,o),
(298,418,o),
(280,400,qs),
(240,360,o)
);
}
);
width = 550;
},
{
layerId = m003;
shapes = (
{
closed = 1;
nodes = (
(441,39,o),
(496,131,o),
(496,187,qs),
(496,225,o),
(464,290,o),
(411,339,o),
(379,353,q),
(420,376,o),
(476,449,o),
(476,507,qs),
(476,560,o),
(422,640,o),
(331,685,o),
(275,685,qs),
(219,685,o),
(128,640,o),
(74,560,o),
(74,507,qs),
(74,449,o),
(131,376,o),
(171,353,q),
(140,339,o),
(86,290,o),
(54,225,o),
(54,187,qs),
(54,131,o),
(110,39,o),
(209,-15,o),
(275,-15,qs),
(341,-15,o)
);
},
{
closed = 1;
nodes = (
(175,101,o),
(139,159,o),
(139,192,qs),
(139,226,o),
(179,280,o),
(242,312,o),
(275,312,qs),
(309,312,o),
(371,280,o),
(411,226,o),
(411,192,qs),
(411,159,o),
(375,101,o),
(314,66,o),
(275,66,qs),
(237,66,o)
);
},
{
closed = 1;
nodes = (
(193,421,o),
(159,466,o),
(159,497,qs),
(159,528,o),
(193,576,o),
(247,604,o),
(275,604,qs),
(304,604,o),
(357,576,o),
(391,528,o),
(391,497,qs),
(391,466,o),
(357,421,o),
(304,396,o),
(275,396,qs),
(247,396,o)
);
}
);
width = 550;
}
);
note = eight;
unicode = 56;
},
{
glyphname = nine;
lastChange = "2024-11-05 08:20:46 +0000";
layers = (
{
layerId = m01;
shapes = (
{
closed = 1;
nodes = (
(136,643,o),
(77,572,o),
(46,487,o),
(46,443,qs),
(46,390,o),
(97,294,o),
(192,235,o),
(257,235,qs),
(304,235,o),
(436,280,o),
(460,310,q),
(450,230,o),
(350,120,o),
(280,60,o),
(200,0,o),
(121,0,q),
(254,0,l),
(275,21,o),
(339,87,o),
(411,171,o),
(474,268,o),
(514,373,o),
(514,427,qs),
(514,507,o),
(449,623,o),
(338,690,o),
(270,690,qs),
(218,690,o)
);
},
{
closed = 1;
nodes = (
(450,630,o),
(514,436,o),
(480,450,qs),
(380,490,o),
(440,330,o),
(348,266,o),
(290,250,qs),
(220,230,o),
(110,290,o),
(54,494,o),
(120,460,qs),
(160,440,o),
(100,600,o),
(210,690,o),
(280,670,qs),
(314,660,o)
);
}
);
width = 550;
},
{
layerId = m002;
shapes = (
{
closed = 1;
nodes = (
(136,644,o),
(78,572,o),
(46,488,o),
(50,440,qs),
(46,390,o),
(98,294,o),
(192,236,o),
(260,240,qs),
(304,236,o),
(380,286,o),
(410,320,q),
(390,278,o),
(400,130,o),
(200,70,o),
(152,30,o),
(120,0,q),
(250,0,l),
(276,22,o),
(340,88,o),
(412,172,o),
(474,268,o),
(514,374,o),
(510,430,qs),
(514,508,o),
(450,624,o),
(340,686,o),
(270,690,qs),
(220,686,o)
);
},
{
closed = 1;
nodes = (
(386,566,o),
(500,480,o),
(500,430,qs),
(500,394,o),
(410,330,o),
(316,246,o),
(280,250,qs),
(242,246,o),
(174,352,o),
(132,414,o),
(130,450,qs),
(132,500,o),
(174,566,o),
(282,674,o),
(320,670,qs),
(356,674,o)
);
}
);
width = 550;
},
{
layerId = m003;
shapes = (
{
closed = 1;
nodes = (
(136,643,o),
(77,572,o),
(46,487,o),
(46,443,qs),
(46,390,o),
(97,294,o),
(192,235,o),
(257,235,qs),
(304,235,o),
(380,285,o),
(405,316,q),
(390,277,o),
(322,191,o),
(236,105,o),
(152,29,o),
(121,0,q),
(254,0,l),
(275,21,o),
(339,87,o),
(411,171,o),
(474,268,o),
(514,373,o),
(514,427,qs),
(514,507,o),
(449,623,o),
(340,685,o),
(273,685,qs),
(220,685,o)
);
},
{
closed = 1;
nodes = (
(385,566,o),
(429,499,o),
(429,453,qs),
(429,413,o),
(385,351,o),
(316,316,o),
(278,316,qs),
(241,316,o),
(173,351,o),
(131,413,o),
(131,453,qs),
(131,499,o),
(173,566,o),
(241,604,o),
(278,604,qs),
(316,604,o)
);
}
);
width = 550;
}
);
note = nine;
unicode = 57;
},
{
glyphname = period;
lastChange = "2024-11-19 01:22:32 +0000";
layers = (
{
layerId = m01;
shapes = (
{
closed = 1;
nodes = (
(180,-20,o),
(220,24,o),
(220,50,qs),
(220,82,o),
(180,122,o),
(150,120,qs),
(122,122,o),
(80,82,o),
(80,50,qs),
(80,26,o),
(97,6,qs),
(117,-16,o),
(141,-19,qs),
(150,-20,qs)
);
},
{
closed = 1;
nodes = (
(122,122,o),
(80,24,o)
);
},
{
closed = 1;
nodes = (
(210,40,o),
(200,100,o),
(170,100,qs),
(136,100,o),
(110,110,o),
(150,110,qs),
(182,110,o),
(210,82,o),
(210,50,qs),
(210,20,o),
(160,4,o),
(170,10,qs)
);
}
);
width = 300;
},
{
layerId = m002;
shapes = (
{
closed = 1;
nodes = (
(182,-20,o),
(220,24,o),
(220,50,qs),
(220,82,o),
(182,120,o),
(150,120,qs),
(90,120,o),
(82,94,o),
(100,90,q),
(138,94,o),
(100,60,qs),
(24,-6,o),
(130,-20,qs),
(150,-20,qs)
);
},
{
closed = 1;
nodes = (
(90,120,o),
(170,120,o)
);
},
{
closed = 1;
nodes = (
(140,60,o),
(180,80,o),
(150,80,qs),
(130,80,o),
(110,110,o),
(150,110,qs),
(182,110,o),
(210,82,o),
(210,50,qs),
(210,20,o),
(154,18,o),
(150,30,qs)
);
}
);
width = 300;
},
{
layerId = m003;
shapes = (
{
closed = 1;
nodes = (
(180,-20,o),
(220,24,o),
(220,50,qs),
(220,82,o),
(180,122,o),
(150,120,qs),
(122,122,o),
(80,82,o),
(80,50,qs),
(80,26,o),
(98,6,qs),
(117,-16,o),
(141,-19,qs),
(150,-20,qs)
);
},
{
closed = 1;
nodes = (
(122,122,o),
(80,24,o)
);
},
{
closed = 1;
nodes = (
(102,100,o),
(230,100,o),
(150,110,qs),
(138,112,o),
(114,116,o),
(140,110,qs),
(180,100,o),
(110,100,o),
(120,100,qs),
(152,100,o),
(130,100,o),
(130,100,qs)
);
}
);
width = 300;
}
);
note = period;
unicode = 46;
},
{
glyphname = comma;
lastChange = "2024-10-29 15:56:55 +0000";
layers = (
{
layerId = m01;
shapes = (
{
closed = 1;
nodes = (
);
},
{
closed = 1;
nodes = (
(132,-88,o),
(172,2,o),
(200,90,c),
(130,120,l),
(100,10,o),
(84,-78,o),
(60,-170,c),
(100,-180,l)
);
},
{
closed = 1;
nodes = (
(160,-10,ls),
(192,68,o),
(180,92,o),
(180,80,cs),
(180,70,l),
(152,-18,o),
(132,-68,o),
(100,-160,c)
);
}
);
width = 282;
},
{
layerId = m002;
shapes = (
{
closed = 1;
nodes = (
(132,-88,o),
(172,2,o),
(200,90,c),
(170,110,ls),
(54,188,o),
(114,-78,o),
(90,-170,c),
(100,-180,l)
);
},
{
closed = 1;
nodes = (
(130,-10,ls),
(146,72,o),
(122,106,o),
(160,90,cs),
(180,80,l),
(152,-8,o),
(132,-68,o),
(100,-160,c)
);
}
);
width = 280;
},
{
layerId = m003;
shapes = (
{
closed = 1;
nodes = (
);
},
{
closed = 1;
nodes = (
(132,-88,o),
(172,2,o),
(200,90,c),
(130,120,l),
(100,10,o),
(84,-78,o),
(60,-170,c),
(100,-180,l)
);
},
{
closed = 1;
nodes = (
(160,-10,ls),
(192,68,o),
(180,92,o),
(180,80,cs),
(180,70,l),
(152,-18,o),
(132,-68,o),
(100,-160,c)
);
}
);
width = 282;
}
);
note = comma;
unicode = 44;
},
{
glyphname = hyphen;
lastChange = "2024-10-29 15:56:55 +0000";
layers = (
{
layerId = m01;
shapes = (
{
closed = 1;
nodes = (
(220,210,o),
(210,210,o),
(360,210,c),
(360,300,l),
(310,300,o),
(310,300,o),
(60,300,c),
(60,210,l)
);
},
{
closed = 1;
nodes = (
(104,276,o),
(112,276,o),
(130,270,cs),
(160,260,o),
(156,254,o),
(180,270,cs),
(210,290,l),
(140,260,o),
(130,310,o),
(100,270,c)
);
}
);
width = 421;
},
{
layerId = m002;
shapes = (
{
closed = 1;
nodes = (
(140,350,o),
(360,90,o),
(360,290,cs),
(360,300,l),
(310,230,o),
(60,440,o),
(60,220,cs),
(60,210,l)
);
},
{
closed = 1;
nodes = (
(84,286,o),
(102,316,o),
(120,310,cs),
(150,300,o),
(112,322,o),
(180,300,cs),
(210,290,l),
(148,270,o),
(126,338,o),
(80,280,c)
);
}
);
width = 420;
},
{
layerId = m003;
shapes = (
{
closed = 1;
nodes = (
(220,210,o),
(210,210,o),
(360,210,c),
(360,300,l),
(310,300,o),
(310,300,o),
(60,300,c),
(60,210,l)
);
},
{
closed = 1;
nodes = (
(104,276,o),
(112,276,o),
(130,270,cs),
(160,260,o),
(156,254,o),
(180,270,cs),
(210,290,l),
(140,260,o),
(130,310,o),
(100,270,c)
);
}
);
width = 421;
}
);
note = hyphen;
unicode = 45;
},
{
export = 0;
glyphname = pixel;
lastChange = "2024-10-29 15:56:55 +0000";
layers = (
{
layerId = m01;
shapes = (
{
closed = 1;
nodes = (
(10,0,l),
(10,10,l),
(0,10,l),
(0,0,l)
);
}
